<svg width="500" height="484" viewBox="0 0 500 484" fill="none" xmlns="http://www.w3.org/2000/svg">
<path d="M86.2854 431.603C-4.13159 379.4 -4.13159 294.763 86.2854 242.561C176.702 190.359 323.298 190.359 413.716 242.561C504.134 294.763 504.134 379.4 413.716 431.603C323.298 483.806 176.702 483.806 86.2854 431.603Z" fill="#F5F5F5"/>
<path d="M158.643 434.119C197.876 434.119 229.679 415.757 229.679 393.106C229.679 370.455 197.876 352.093 158.643 352.093C119.411 352.093 87.6074 370.455 87.6074 393.106C87.6074 415.757 119.411 434.119 158.643 434.119Z" fill="#E0E0E0"/>
<path d="M322.846 373.961C372.11 347.393 401.328 305.983 388.108 281.468C374.887 256.954 324.233 258.62 274.97 285.188C225.706 311.756 196.488 353.167 209.709 377.681C222.929 402.195 273.583 400.53 322.846 373.961Z" fill="#E0E0E0"/>
<path d="M371.852 315.713C381.704 303.97 397.134 296.318 414.485 291.804C431.615 287.347 434.687 276.807 423.331 273.387C410.458 269.51 394.397 276.635 384.04 286.544C365.99 303.813 363.728 317.031 363.728 317.031L371.852 315.713Z" fill="#38CFB1"/>
<path opacity="0.15" d="M371.852 315.713C381.704 303.97 397.134 296.318 414.485 291.804C431.615 287.347 434.687 276.807 423.331 273.387C410.458 269.51 394.397 276.635 384.04 286.544C365.99 303.813 363.728 317.031 363.728 317.031L371.852 315.713Z" fill="black"/>
<path d="M366.779 315.027C366.705 315.027 366.631 315.01 366.56 314.976C366.311 314.855 366.208 314.556 366.33 314.308C380.95 284.31 413.304 276.93 421.169 277.486C421.444 277.506 421.65 277.747 421.631 278.022C421.61 278.297 421.356 278.503 421.095 278.484C413.415 277.895 381.624 285.211 367.229 314.746C367.142 314.924 366.963 315.027 366.779 315.027Z" fill="white"/>
<path d="M363.727 318.834C363.727 320.955 366.025 322.241 367.858 321.173C377.017 315.839 390.38 312.894 412.003 319.046C423.499 322.317 429.158 320.129 431.583 315.447C434.276 310.247 428.57 305.222 422.077 302.85C399.948 294.764 379.975 300.285 363.726 316.417L363.727 318.834Z" fill="#38CFB1"/>
<path d="M364.985 319.263C364.847 319.263 364.711 319.206 364.612 319.096C364.428 318.89 364.446 318.575 364.652 318.39C383.757 301.313 413.36 304.637 424.563 311.298C424.8 311.439 424.878 311.746 424.737 311.984C424.595 312.221 424.289 312.298 424.051 312.158C413.075 305.633 384.06 302.384 365.318 319.136C365.223 319.221 365.104 319.263 364.985 319.263Z" fill="white"/>
<path d="M149.917 358.655C141.519 345.832 127.1 336.412 110.402 329.883C93.9165 323.436 92.1105 312.607 103.791 310.551C117.031 308.219 132.14 317.19 141.255 328.251C157.141 347.529 157.828 360.922 157.828 360.922L149.917 358.655Z" fill="#38CFB1"/>
<path opacity="0.15" d="M149.917 358.655C141.519 345.832 127.1 336.412 110.402 329.883C93.9165 323.436 92.1105 312.607 103.791 310.551C117.031 308.219 132.14 317.19 141.255 328.251C157.141 347.529 157.828 360.922 157.828 360.922L149.917 358.655Z" fill="black"/>
<path d="M155.034 358.572C155.108 358.581 155.183 358.573 155.257 358.547C155.519 358.456 155.656 358.172 155.565 357.911C144.586 326.398 113.329 315.252 105.453 314.876C105.177 314.864 104.944 315.078 104.931 315.354C104.919 315.63 105.148 315.864 105.409 315.876C113.105 316.197 143.811 327.212 154.621 358.24C154.686 358.427 154.851 358.551 155.034 358.572Z" fill="white"/>
<path d="M157.902 360.312C157.534 363.404 154.036 365.009 151.449 363.275C142.973 357.596 130.342 353.912 109.653 357.228C97.8507 359.12 92.4897 356.28 90.6337 351.344C88.5727 345.862 94.8317 341.546 101.559 339.956C124.488 334.537 143.67 342.375 157.902 360.312Z" fill="#38CFB1"/>
<path d="M156.316 362.99C156.453 363.006 156.595 362.966 156.706 362.868C156.913 362.685 156.932 362.37 156.749 362.162C139.792 342.95 110.004 342.759 98.093 348.052C97.841 348.164 97.727 348.46 97.839 348.712C97.952 348.964 98.247 349.077 98.499 348.966C110.168 343.781 139.364 343.978 155.999 362.825C156.085 362.92 156.198 362.976 156.316 362.99Z" fill="white"/>
<path d="M380.823 130.171L380.826 130.164L380.668 130.083C380.662 130.08 380.657 130.077 380.651 130.074L342.532 108.13C342.52 108.124 342.508 108.118 342.496 108.111L342.273 107.997L342.269 108.007C324.462 99.0238 300.7 101.718 275.144 118.243C223.801 151.443 184.677 227.861 187.758 288.926C189.294 319.364 201.029 340.235 218.769 349.41L218.765 349.417L218.922 349.497C218.929 349.501 218.935 349.504 218.942 349.507L257.069 371.456C257.075 371.458 257.08 371.461 257.086 371.464L257.273 371.56L257.277 371.552C275.089 380.563 298.87 377.877 324.448 361.337C375.79 328.136 414.915 251.72 411.834 190.655C410.298 160.217 398.562 139.345 380.823 130.171Z" fill="#143642"/>
<path d="M255.772 370.761L218.954 349.503C218.926 349.505 218.926 349.505 218.926 349.505L218.755 349.402C201.025 340.204 189.295 319.332 187.762 288.937C186.387 261.704 193.424 231.433 206.157 203.32L206.414 202.704L244.29 225.261C231.529 253.375 224.52 283.645 225.894 310.879C227.396 340.663 238.667 361.28 255.772 370.761Z" fill="#0B2630"/>
<path d="M324.449 361.336C375.791 328.135 414.915 251.719 411.834 190.654C408.753 129.59 364.634 107.001 313.291 140.202C261.948 173.402 222.824 249.819 225.905 310.884C228.987 371.949 273.106 394.536 324.449 361.336Z" fill="#295868"/>
<path d="M367.928 125.434L303.581 257.974L289.73 242.963C285.457 238.321 279.367 235.659 273.022 235.659C267.28 235.659 261.79 237.799 257.559 241.689C248.35 250.198 247.776 264.627 256.281 273.853L292.767 313.377C296.806 317.752 302.308 320.338 308.259 320.66C308.679 320.682 309.099 320.694 309.521 320.694C310.609 320.694 311.712 320.615 312.819 320.458C320.284 319.349 326.696 314.645 329.968 307.88L403.768 155.871C396.234 139.018 383.627 128.537 367.928 125.434Z" fill="#143642"/>
<path d="M420.187 81.7719C419.785 81.5409 419.373 81.3219 418.95 81.1169C409.125 76.3669 397.272 80.4639 392.53 90.2589L310.645 258.92L305.993 253.879C304.608 252.375 303.039 251.139 301.351 250.172C298.908 248.772 288.529 242.761 286.85 241.792C279.573 237.592 270.077 238.383 263.542 244.392C255.547 251.779 255.049 264.307 262.432 272.317L298.918 311.842C300.306 313.346 301.895 314.602 303.629 315.589C306.011 316.944 316.354 322.94 318.046 323.922C320.714 325.47 323.729 326.378 326.891 326.549C328.195 326.619 329.504 326.566 330.848 326.375C337.327 325.412 342.9 321.326 345.74 315.455L442.612 115.924C447.161 106.534 443.612 95.2859 434.724 90.1659C434.318 89.9309 422.774 83.2609 420.187 81.7719Z" fill="#38CFB1"/>
<path opacity="0.15" d="M420.187 81.7719C419.785 81.5409 419.373 81.3219 418.95 81.1169C409.125 76.3669 397.272 80.4639 392.53 90.2589L310.645 258.92L305.993 253.879C304.608 252.375 303.039 251.139 301.351 250.172C298.908 248.772 288.529 242.761 286.85 241.792C279.573 237.592 270.077 238.383 263.542 244.392C255.547 251.779 255.049 264.307 262.432 272.317L298.918 311.842C300.306 313.346 301.895 314.602 303.629 315.589C306.011 316.944 316.354 322.94 318.046 323.922C320.714 325.47 323.729 326.378 326.891 326.549C328.195 326.619 329.504 326.566 330.848 326.375C337.327 325.412 342.9 321.326 345.74 315.455L442.612 115.924C447.161 106.534 443.612 95.2859 434.724 90.1659C434.318 89.9309 422.774 83.2609 420.187 81.7719Z" fill="black"/>
<path opacity="0.15" d="M318.042 323.92C316.356 322.942 306.01 316.945 303.626 315.585C301.894 314.598 300.301 313.341 298.914 311.841L262.428 272.319C260.771 270.512 259.523 268.464 258.657 266.312L273.166 274.684C274.023 276.844 275.289 278.893 276.956 280.7L313.442 320.222C314.801 321.694 316.347 322.933 318.042 323.92Z" fill="black"/>
<path opacity="0.15" d="M411.632 92.5609C409.77 94.2189 408.205 96.2669 407.05 98.6419L322.829 272.124L310.648 258.919L392.533 90.2609C393.678 87.8769 395.261 85.8379 397.124 84.1799L411.632 92.5609Z" fill="black"/>
<path d="M433.473 89.5029C423.648 84.7529 411.795 88.8499 407.053 98.6439L322.829 272.124L305.994 253.879C298.638 245.889 286.109 245.381 278.066 252.777C270.071 260.164 269.573 272.692 276.956 280.702L313.442 320.227C316.947 324.023 321.724 326.269 326.892 326.549C328.196 326.619 329.505 326.566 330.849 326.375C337.328 325.412 342.901 321.326 345.741 315.455L442.614 115.924C447.368 106.105 443.271 94.2539 433.473 89.5029Z" fill="#38CFB1"/>
<path d="M157.228 108.987C149.601 108.987 144.377 110.973 138.959 118.69C133.99 125.768 120.319 149.367 120.319 149.367C120.319 149.367 110.35 128.853 109.314 124.76C108.278 120.668 108.37 118.851 109.355 117.074C110.568 114.885 111.65 112.967 111.88 110.038C112.266 105.125 113.473 100.915 112.369 100.775C109.315 100.6 109.2 104.516 107.597 106.833C107.025 107.659 105.155 107.78 104.524 106.496C103.85 105.126 104.213 102.879 103.886 101.259C104.032 99.858 104.159 99.405 104.318 98.584C105.178 98.784 106.429 98.808 107.818 98.682C109.136 100.754 110.041 101.625 111.88 100.784C112.123 100.396 111.09 97.74 109.894 95.825C109.705 95.522 109.417 95.292 109.073 95.197C107.225 94.687 105.13 94.562 102.291 95.011C101.956 95.064 101.611 95.213 101.422 95.494C100.363 97.064 99.7293 98.654 99.4713 99.462C99.3353 99.888 98.9413 99.877 98.8423 99.508C97.8673 94.679 97.8533 87.822 97.8533 84.606C97.8533 82.08 94.1563 81.683 94.0273 85.302C93.8953 89.009 93.7993 95.871 94.2773 99.875C94.3343 100.311 93.8413 100.52 93.6623 100.042C93.0183 98.326 91.4493 93.16 90.7913 84.241C90.6143 81.845 86.7343 81.449 86.7633 84.821C86.8423 94.061 88.9843 102.58 88.9843 102.58C89.0973 103.003 88.7143 103.373 88.4213 102.894C87.1313 100.784 85.1023 95.543 84.0753 91.937C83.2523 89.044 79.3843 89.778 80.0603 93.386C81.2733 99.857 83.1943 108.045 86.0553 113.89C89.1153 120.142 91.7633 123.269 93.2793 128.18C94.7953 133.092 101.091 160.903 107.819 171.743C113.09 180.236 119.121 179.455 125.607 174.975C132.093 170.495 155.285 138.181 155.285 138.181L157.228 108.987Z" fill="#9E6767"/>
<path d="M120.319 149.366C120.319 149.366 123.572 154.882 124.066 159.287C124.066 159.287 125.637 152.979 121.773 146.867L120.319 149.366Z" fill="#874C4C"/>
<path d="M158.849 109.012C154.969 108.613 150.146 108.479 144.757 111.866C139.368 115.253 137.499 119.982 134.891 124.109C132.283 128.237 123.258 142.871 123.258 142.871C123.258 142.871 126.567 156.762 139.733 159.624L159.443 132.88L158.849 109.012Z" fill="#143642"/>
<path d="M176.525 353.227C177.487 353.105 178.849 356.51 178.869 357.622C178.888 358.734 177.774 361.123 176.298 363.361C174.823 365.599 172.779 368.37 171.453 371.987C170.323 375.068 169.28 377.089 166.134 381.122C162.629 385.615 154.415 393.129 141.93 389.857C138.883 389.059 137.359 388.098 136.256 386.99C135.325 386.055 134.883 384.538 135.383 383.171L176.525 353.227Z" fill="#263238"/>
<path d="M152.006 349.332C151.996 349.367 151.987 349.403 151.979 349.438C151.763 350.356 151.946 351.313 152.062 352.249C152.47 355.531 152.033 358.915 150.803 361.986C149.976 364.05 148.793 365.969 147.329 367.641C145.838 369.343 143.398 371.143 141.495 372.358C135.17 376.395 134.491 379.092 135.382 383.17C137.497 387.92 151.833 390.811 160.074 383.735C163.294 380.97 165.738 378.542 167.918 373.069C169.451 369.221 170.598 367.042 172.075 364.27C173.672 361.274 176.694 357.888 176.782 354.797C176.83 353.099 175.149 349.94 173.515 347.337C172.016 344.949 170.472 342.678 169.123 342.944L169.495 344.294C168.372 345.462 166.74 345.897 165.755 347.268C164.54 348.959 164.584 351.231 163.828 353.171C163.755 353.358 163.653 353.562 163.461 353.62C163.257 353.682 163.035 353.54 162.935 353.352C162.835 353.164 162.826 352.942 162.819 352.728C162.79 351.758 162.76 350.788 162.731 349.818C162.714 349.263 162.679 348.658 162.31 348.242C161.53 347.36 159.606 347.464 158.538 347.42C157.073 347.36 155.68 347.588 154.23 347.679C153.691 347.713 153.287 347.68 152.828 348.049C152.43 348.371 152.144 348.839 152.006 349.332Z" fill="#37474F"/>
<path d="M130.819 291.194C134.151 302.142 149.718 340.048 150.653 342.329C151.589 344.61 153.75 349.853 153.75 349.853C153.75 349.853 156.293 350.9 160.073 350.116C160.4 353.747 160.948 359.44 161.164 362.312C161.236 365.642 161.526 369.755 160.81 373.046C160.199 375.85 159.493 378.788 158.964 381.597C158.73 382.841 158.496 384.085 158.309 385.337C158.11 386.66 157.982 388.09 158.622 389.265C158.922 389.816 159.373 390.27 159.857 390.668C162.014 392.443 164.917 393.197 167.702 392.971C169.175 392.851 170.658 392.455 171.859 391.594C174.278 389.86 175.13 386.85 176.361 384.291C177.698 381.515 177.264 381.211 177.378 378.238C177.458 376.159 178.034 370.877 178.866 365.359C179.698 359.841 183.279 340.44 184.997 321.107C186.186 307.723 184.996 295.309 184.996 295.309C198.657 258.196 204.739 236.133 206.525 223.806C208.339 211.285 207.47 206.83 207.24 199.623L140.812 201.222C135.472 235.557 126.349 276.509 130.819 291.194Z" fill="#9E6767"/>
<path d="M129.783 263.788C131.151 251.168 140.59 202.657 140.59 202.657H207.515C207.515 202.657 207.938 211.97 207.817 216.246C207.696 220.522 206.323 228.345 203.926 238.228C201.53 248.111 192.681 276.114 190.971 280.248C189.26 284.382 185.947 296.319 185.947 296.319C187.589 318.763 183.321 338.902 180.12 365.668C180.12 365.668 179.194 369.283 169.709 368.567C160.492 367.871 158.632 364.474 158.632 364.474L158.015 341.378C158.015 341.378 152.975 342.924 150.016 342.216C150.016 342.216 130.207 293.314 129.249 290.368C128.294 287.42 128.414 276.407 129.783 263.788Z" fill="#38CFB1"/>
<path opacity="0.45" d="M129.783 263.788C131.151 251.168 140.59 202.657 140.59 202.657H207.515C207.515 202.657 207.938 211.97 207.817 216.246C207.696 220.522 206.323 228.345 203.926 238.228C201.53 248.111 192.681 276.114 190.971 280.248C189.26 284.382 185.947 296.319 185.947 296.319C187.589 318.763 183.321 338.902 180.12 365.668C180.12 365.668 179.194 369.283 169.709 368.567C160.492 367.871 158.632 364.474 158.632 364.474L158.015 341.378C158.015 341.378 152.975 342.924 150.016 342.216C150.016 342.216 130.207 293.314 129.249 290.368C128.294 287.42 128.414 276.407 129.783 263.788Z" fill="black"/>
<path opacity="0.2" d="M158.167 234.281C148.691 225.736 146.584 218.938 146.584 218.938C153.647 227.274 163.271 232.31 163.271 232.31C163.271 232.31 154.273 279.831 154.928 289.602C155.582 299.373 158.018 341.378 158.018 341.378C158.036 341.782 151.638 296.954 151.456 293.371C150.977 283.934 158.167 234.281 158.167 234.281Z" fill="black"/>
<path d="M179.026 389.464C179.959 389.73 179.842 392.514 179.421 393.546C179 394.577 177.338 396.55 175.097 398.029C172.856 399.508 170.771 401.579 168.751 404.865C167.315 407.2 163.695 411.643 158.8 414.577C153.906 417.511 146.672 418.537 141.298 417.01C135.02 415.227 134.435 413.689 134.494 411.32L179.026 389.464Z" fill="#263238"/>
<path d="M159.601 374.923C157.955 382.961 155.084 388.796 148.427 393.743C143.134 397.676 139.288 399.675 135.065 403.191C133.266 404.689 133.115 407.881 134.494 411.321C137.348 413.614 141.408 414.925 146.862 414.917C152.957 414.908 155.302 413.833 158.8 411.438C160.814 410.059 162.207 408.8 163.577 407.425C166.505 404.487 168.546 400.86 170.66 398.531C172.774 396.201 177.345 393.823 178.645 391.011C179.359 389.466 179.056 385.895 178.578 382.856C178.139 380.067 178.994 375.168 177.648 374.882C177.677 374.888 177.465 376.878 177.465 376.878C177.355 377.331 177.073 377.56 176.13 377.886C175.5 378.104 174.213 378.072 173.556 377.963C172.787 377.835 172.347 377.847 171.835 378.45C170.932 379.514 170.692 381.01 169.535 381.889C169.454 381.951 169.367 382.009 169.267 382.031C169.168 382.053 169.053 382.03 168.988 381.952C168.916 381.864 168.925 381.737 168.937 381.624C169.048 380.628 169.16 379.631 169.271 378.634C169.305 378.333 169.338 378.028 169.296 377.728C169.217 377.172 168.796 376.697 168.33 376.414C167.515 375.918 166.56 375.554 165.643 375.298C164.67 375.026 163.668 374.881 162.663 374.79C161.653 374.697 160.599 374.677 159.601 374.923Z" fill="#455A64"/>
<path d="M201.467 111.866C201.467 111.866 204.224 115.653 206.431 123.443C206.431 123.443 210.633 141.254 210.633 162.362C210.633 180.026 208.249 208.659 208.249 208.659C187.743 218.938 154.662 212.859 140.104 202.835C140.693 199.652 141.193 182.934 142.337 171.905C143.113 152.982 143.751 143.067 143.885 134.65C144.152 117.829 152.524 109.142 158.848 109.013L174.907 109.264L201.467 111.866Z" fill="#38CFB1"/>
<path d="M206.528 203.465C203.48 205.975 197.492 210.798 196.397 213.227C195.143 216.009 194.363 220.196 193.548 221.813C192.733 223.43 193.983 224.185 195.74 223.621C197.496 223.057 198.555 221.555 199.911 217.917C201.267 214.279 205.049 211.431 205.049 211.431L206.528 203.465Z" fill="#874C4C"/>
<path d="M195.393 236.203C196.12 237.61 197.826 237.616 199.405 237.744C201.652 237.926 202.921 237.768 205.074 237.099C207.227 236.43 209.235 235.155 210.525 233.305C212.066 231.094 212.458 228.31 213.337 225.762C215.184 220.407 220.665 216.553 221.558 210.882C221.927 208.537 221.93 205.781 222.595 204.326C222.986 203.47 231.995 187.958 235.208 181.239C238.296 174.781 240.605 171.742 237.806 163.977C235.007 156.212 225.471 128.906 218.726 119.418C214.9 114.035 208.828 112.502 201.468 111.864C195.869 126.453 202.386 141.518 202.386 141.518L217.198 170.095C217.198 170.095 211.44 189.774 207.84 200.718C206.84 203.758 204.819 205.636 202.548 209.006C201.562 210.469 199.293 213.031 198.487 214.601C197.449 216.622 197.476 217.917 196.989 220.747C196.213 225.26 195.046 235.532 195.393 236.203Z" fill="#9E6767"/>
<path d="M200.678 111.788C204.546 111.943 210.106 112.597 213.432 114.276C216.758 115.955 219.057 118.03 222.885 125.687C226.712 133.345 232.286 148.226 232.286 148.226C232.286 148.226 230.436 159.454 212.68 162.368L200.678 140.24C200.678 140.24 195.33 126.454 200.678 111.788Z" fill="#143642"/>
<path d="M154.545 76.046C155.124 76.89 155.446 78.043 155.903 78.965C156.546 80.263 157.19 81.578 158.147 82.68C160.448 85.331 163.685 87.274 166.627 89.15C168.414 90.29 170.453 91.362 172.636 91.049C174.852 90.731 177.248 91.212 179.505 91.414C182.128 91.649 184.75 91.884 187.373 92.119L186.929 100.393C186.929 100.393 187.904 98.199 189.237 95.583C190.383 93.334 195.161 81.917 195.179 81.874C197.547 76.217 200.361 68.68 197.526 62.737C196.857 61.335 195.866 60.028 194.449 59.209C194.734 58.118 194.824 57.359 194.709 56.392C194.328 53.194 192.701 51.365 190.531 49.768C188.361 48.171 185.735 47.315 183.109 46.711C179.591 45.902 175.979 45.502 172.37 45.516C168.779 45.53 165.358 46.132 161.834 46.726C159.893 47.053 157.934 47.317 155.963 47.339C155.136 47.348 154.218 47.403 153.421 47.218C152.388 46.978 151.353 46.471 150.355 46.111C150.177 46.047 149.976 45.984 149.807 46.067C149.635 46.151 149.561 46.354 149.511 46.539C148.879 48.852 149.674 51.859 151.145 53.752C150.544 53.676 150.079 53.472 149.844 53.374C149.358 53.171 148.937 52.892 148.493 52.615C147.695 52.117 147.206 51.538 146.595 50.804C146.51 50.702 146.414 50.593 146.283 50.57C146.085 50.535 145.916 50.708 145.797 50.87C144.657 52.427 144.372 54.505 144.757 56.397C145.142 58.288 146.141 60.009 147.359 61.507C146.052 63.449 146.032 66.089 147.005 68.218C147.437 69.163 148.048 70.017 148.772 70.76C149.669 71.68 150.733 72.432 151.677 73.288C152.64 74.163 153.801 74.962 154.545 76.046Z" fill="#253035"/>
<path d="M178.511 62.268C178.533 64.473 178.844 66.013 179.077 66.692C179.542 68.048 180.319 68.943 181.31 69.98C182.326 71.043 183.586 71.89 184.407 73.11C185.527 74.775 185.912 76.921 186.148 78.869C186.291 80.054 186.655 81.345 187.669 81.973C189.808 83.296 191.09 80.73 192.231 79.471C193.703 78.11 198.066 76.452 200.085 81.089C202.176 85.893 198.322 92.254 194.81 93.232C188.757 94.918 187.443 90.8 187.443 90.8L186.283 112.4C182.865 118.873 174.845 120.927 169.576 119.897C165.027 119.008 162.527 115.821 166.805 111.195L167.036 104.617C167.036 104.617 161.58 105.265 158.944 104.769C154.559 103.944 152.385 100.219 151.203 95.405C149.305 87.674 148.437 79.548 150.784 62.142C151.862 61.548 156.187 64.919 162.736 65.371C169.243 65.821 175.246 64.073 178.511 62.268Z" fill="#9E6767"/>
<path d="M167.037 104.618C167.037 104.618 176.938 102.956 180.437 101.239C182.779 100.09 184.743 98.0309 185.344 96.6899C185.344 96.6899 184.605 99.5879 182.463 102.15C179.843 105.284 166.952 107.235 166.952 107.235L167.037 104.618Z" fill="#874C4C"/>
<path d="M172.15 69.96L176.759 71.37C177.118 70.056 176.377 68.675 175.105 68.285C173.832 67.895 172.509 68.645 172.15 69.96Z" fill="#263238"/>
<path d="M170.549 91.8391L163.764 94.1371C164.365 96.0801 166.371 97.1401 168.245 96.5061C170.119 95.8721 171.15 93.7821 170.549 91.8391Z" fill="#874C4C"/>
<path d="M170.001 93.5C168.127 93.5 166.565 94.795 166.132 96.535C166.799 96.741 167.531 96.748 168.245 96.507C169.561 96.061 170.447 94.893 170.658 93.567C170.443 93.531 170.226 93.5 170.001 93.5Z" fill="#F28F8F"/>
<path d="M151.574 70.7341L156.255 70.1171C156.116 68.8441 154.955 67.9501 153.662 68.1201C152.37 68.2901 151.435 69.4601 151.574 70.7341Z" fill="#263238"/>
<path d="M180.402 72.7322L195.867 78.0322C195.867 78.0322 193.444 77.8362 191.411 80.2942L180.457 76.1332L180.402 72.7322Z" fill="#263238"/>
<path d="M153.876 78.7652C153.842 79.8252 154.641 80.7092 155.662 80.7392C156.682 80.7692 157.538 79.9352 157.572 78.8742C157.607 77.8142 156.807 76.9302 155.787 76.8992C154.766 76.8692 153.911 77.7042 153.876 78.7652Z" fill="#263238"/>
<path d="M171.551 78.7742C171.517 79.8342 172.316 80.7182 173.337 80.7482C174.357 80.7782 175.213 79.9442 175.247 78.8832C175.282 77.8232 174.482 76.9382 173.462 76.9082C172.441 76.8792 171.586 77.7142 171.551 78.7742Z" fill="#263238"/>
<path d="M144.754 73.8542C144.822 74.7942 145.422 75.6682 145.73 76.0342C145.892 76.2272 146.042 76.4812 146.122 76.8112C146.483 78.2982 146.791 81.1162 147.496 82.6992C148.204 84.2802 149.681 86.7882 153.834 86.8832C154.642 86.9032 155.357 86.8372 155.991 86.7012C156.046 86.6912 156.101 86.6772 156.154 86.6662C156.825 86.5102 157.404 86.2722 157.907 85.9762C157.942 85.9552 157.978 85.9332 158.011 85.9112C158.063 85.8812 158.112 85.8502 158.161 85.8162C158.205 85.7882 158.248 85.7572 158.349 85.6862C158.409 85.6442 158.466 85.6012 158.523 85.5552C158.589 85.5052 158.651 85.4542 158.713 85.4002C158.775 85.3492 158.835 85.2962 158.895 85.2392C159.014 85.1292 159.125 85.0152 159.234 84.8962C159.848 84.2292 160.291 83.4472 160.642 82.6572C161.556 80.5992 161.319 77.7192 162.823 77.3862C162.879 77.3742 162.941 77.3642 163.003 77.3602C163.065 77.3532 163.13 77.3522 163.198 77.3522C165.243 77.3822 165.015 80.5192 166.16 82.7582C167.301 85.0012 169.193 87.1882 173.629 87.2502C173.827 87.2542 174.019 87.2502 174.203 87.2452C174.36 87.2382 174.513 87.2302 174.66 87.2142C175.041 87.1872 175.398 87.1332 175.728 87.0632C175.843 87.0372 175.955 87.0132 176.064 86.9852C176.173 86.9572 176.282 86.9242 176.385 86.8942C176.452 86.8762 176.52 86.8532 176.588 86.8302C177.04 86.6732 177.436 86.4842 177.789 86.2662C177.929 86.1782 178.06 86.0892 178.192 85.9952C178.445 85.8082 178.669 85.6102 178.886 85.3862C179.551 84.6942 179.953 83.9292 180.23 83.3052C180.919 81.7502 181.099 78.9332 181.441 77.4662C181.533 77.0762 181.653 76.8052 181.78 76.6172C182.067 76.1922 182.752 75.4542 182.779 74.5132C182.806 73.5722 182.143 72.7522 181.544 72.6652C181.196 72.6152 180.832 72.5662 180.456 72.5202C176.956 72.0962 172.392 71.9092 169.662 72.6502C166.239 73.5862 165.052 74.6832 163.143 74.6562C161.358 74.6142 160.199 73.4762 156.957 72.4172C154.37 71.5762 150.104 71.6012 146.846 71.8992C146.497 71.9312 146.16 71.9662 145.837 72.0052C145.277 72.0682 144.686 72.9142 144.754 73.8542ZM167.272 75.9952C167.453 75.7292 167.793 75.4542 168.246 75.1992C168.302 75.1632 168.36 75.1322 168.422 75.1012C168.454 75.0822 168.486 75.0662 168.519 75.0502C168.671 74.9712 168.832 74.8942 169.002 74.8222C169.143 74.7602 169.293 74.6982 169.448 74.6392C169.897 74.4652 170.394 74.3102 170.909 74.1792C171.1 74.1312 171.294 74.0842 171.491 74.0442C171.986 73.9372 172.49 73.8592 172.995 73.8072C173.116 73.7942 173.234 73.7822 173.346 73.7792C176.642 73.5112 178.699 74.2882 179.447 74.9642C180.222 75.6662 179.872 78.7102 179.558 80.2562C179.55 80.2942 179.542 80.3322 179.534 80.3712C179.526 80.4092 179.518 80.4502 179.51 80.4912C179.472 80.6782 179.427 80.8902 179.369 81.1152C179.336 81.2392 179.3 81.3702 179.262 81.5022C179.259 81.5092 179.259 81.5142 179.256 81.5182C179.196 81.7272 179.123 81.9422 179.036 82.1642V82.1662C179.008 82.2382 178.977 82.3142 178.946 82.3872C178.93 82.4302 178.91 82.4742 178.887 82.5192C178.867 82.5682 178.845 82.6162 178.819 82.6662C178.791 82.7272 178.76 82.7902 178.728 82.8512C178.694 82.9202 178.657 82.9892 178.617 83.0562C178.577 83.1282 178.534 83.2002 178.485 83.2742C178.442 83.3452 178.393 83.4202 178.341 83.4932C177.523 84.6762 176.139 85.6732 173.734 85.6662C171.355 85.6612 169.839 84.8432 168.868 83.8112L168.865 83.8102C167.903 82.7812 167.475 81.5442 167.27 80.6872C166.864 78.9522 166.629 76.9362 167.272 75.9952ZM147.886 74.3822C148.068 74.2082 148.335 74.0302 148.691 73.8722C148.713 73.8612 148.732 73.8532 148.754 73.8442C148.864 73.7942 148.981 73.7482 149.11 73.7042C149.179 73.6812 149.254 73.6552 149.328 73.6342C149.386 73.6172 149.449 73.5972 149.509 73.5832C149.55 73.5692 149.592 73.5612 149.63 73.5512C149.647 73.5452 149.663 73.5422 149.677 73.5402C149.735 73.5252 149.796 73.5122 149.856 73.4982C150.09 73.4462 150.344 73.4052 150.614 73.3732C150.747 73.3562 150.884 73.3412 151.025 73.3332C151.105 73.3252 151.188 73.3212 151.273 73.3152C151.337 73.3112 151.4 73.3092 151.464 73.3072C151.633 73.3032 151.809 73.2992 151.989 73.3022C152.053 73.3032 152.117 73.3032 152.183 73.3052C152.241 73.3062 152.302 73.3082 152.363 73.3102C152.834 73.3282 153.341 73.3752 153.882 73.4532C156.232 73.7932 158.687 74.8822 159.327 75.8482C159.967 76.8132 159.824 78.8212 159.517 80.5412C159.455 80.8812 159.364 81.2762 159.22 81.6932C159.212 81.7212 159.199 81.7512 159.189 81.7832C159.176 81.8212 159.163 81.8602 159.147 81.9002C159.137 81.9262 159.129 81.9522 159.118 81.9782C159.1 82.0242 159.082 82.0712 159.06 82.1162C159.02 82.2132 158.978 82.3062 158.933 82.4012C158.896 82.4812 158.854 82.5642 158.811 82.6442C158.795 82.6742 158.779 82.7032 158.763 82.7302C158.733 82.7822 158.701 82.8382 158.666 82.8932C158.639 82.9392 158.61 82.9862 158.578 83.0342C158.575 83.0412 158.57 83.0492 158.565 83.0572C157.747 84.3102 156.287 85.3902 153.671 85.2922C152.685 85.2602 151.87 85.0392 151.205 84.7002C148.87 83.5132 148.273 80.8882 147.995 79.6712C147.646 78.1162 147.189 75.0542 147.886 74.3822Z" fill="#263238"/>
<path d="M163.763 77.46L163.413 90.315L156.239 88.244L162.926 77.354C163.236 77.323 163.511 77.368 163.763 77.46Z" fill="#874C4C"/>
<path d="M264.02 79.0949C284.482 79.0949 301.071 64.5657 301.071 46.6429C301.071 28.7202 284.482 14.1909 264.02 14.1909C243.557 14.1909 226.969 28.7202 226.969 46.6429C226.969 64.5657 243.557 79.0949 264.02 79.0949Z" fill="#38CFB1"/>
<path d="M234.445 65.406C234.242 69.76 230.562 77.538 223.906 80.368C223.487 80.546 223.536 81.149 223.982 81.242C227.618 81.999 237.324 82.914 244.483 73.477L234.445 65.406Z" fill="#38CFB1"/>
<path d="M238.9 44.0679C238.978 42.6109 239.296 41.2389 239.856 39.9519C240.415 38.6639 241.208 37.5459 242.236 36.5969C243.263 35.6479 244.511 34.8939 245.981 34.3339C247.451 33.7739 249.148 33.4949 251.073 33.4949C252.971 33.4949 254.663 33.7739 256.145 34.3339C257.627 34.8939 258.882 35.6479 259.91 36.5969C260.937 37.5459 261.73 38.6639 262.29 39.9519C262.85 41.2389 263.168 42.6109 263.246 44.0679C263.298 45.1859 263.324 46.3569 263.324 47.5789C263.324 48.8029 263.298 49.9459 263.246 51.0129C263.168 52.4699 262.85 53.8419 262.29 55.1289C261.73 56.4169 260.937 57.5419 259.91 58.5039C258.883 59.4669 257.628 60.2209 256.145 60.7679C254.663 61.3139 252.971 61.5869 251.073 61.5869C249.148 61.5869 247.451 61.3139 245.981 60.7679C244.511 60.2209 243.263 59.4669 242.236 58.5039C241.208 57.5419 240.415 56.4169 239.856 55.1289C239.296 53.8419 238.978 52.4699 238.9 51.0129C238.847 49.9469 238.822 48.8029 238.822 47.5789C238.822 46.3569 238.847 45.1859 238.9 44.0679ZM256.028 50.8179C256.053 50.3489 256.08 49.8299 256.106 49.2569C256.131 48.6859 256.145 48.1009 256.145 47.5019C256.145 46.9029 256.131 46.3249 256.106 45.7659C256.08 45.2059 256.053 44.7059 256.028 44.2629C255.975 43.6139 255.839 43.0149 255.619 42.4689C255.397 41.9219 255.085 41.4479 254.682 41.0439C254.278 40.6419 253.778 40.3219 253.179 40.0889C252.58 39.8549 251.878 39.7369 251.073 39.7369C250.266 39.7369 249.564 39.8539 248.967 40.0889C248.368 40.3219 247.867 40.6419 247.464 41.0439C247.061 41.4479 246.749 41.9219 246.528 42.4689C246.306 43.0149 246.17 43.6139 246.118 44.2629C246.065 44.7059 246.033 45.2059 246.02 45.7659C246.006 46.3259 246 46.9039 246 47.5019C246 48.1009 246.006 48.6859 246.02 49.2569C246.033 49.8299 246.065 50.3499 246.118 50.8179C246.222 52.1189 246.671 53.1979 247.464 54.0559C248.258 54.9139 249.46 55.3429 251.073 55.3429C252.685 55.3429 253.883 54.9139 254.663 54.0559C255.443 53.1979 255.897 52.1179 256.028 50.8179Z" fill="#FAFAFA"/>
<path d="M290.948 59.9078C291.026 60.0118 291.065 60.1548 291.065 60.3368C291.065 60.5708 290.98 60.7728 290.811 60.9408C290.641 61.1108 290.44 61.1948 290.207 61.1948H284.003C283.639 61.1948 283.34 61.1168 283.105 60.9608C282.871 60.8048 282.638 60.5838 282.404 60.2978L275.029 51.0118V60.1418C275.029 60.4288 274.925 60.6758 274.716 60.8828C274.508 61.0918 274.261 61.1958 273.975 61.1958H268.865C268.579 61.1958 268.331 61.0918 268.123 60.8828C267.915 60.6758 267.812 60.4288 267.812 60.1418V34.9378C267.812 34.6518 267.915 34.4048 268.123 34.1968C268.331 33.9888 268.579 33.8838 268.865 33.8838H273.975C274.261 33.8838 274.508 33.9878 274.716 34.1968C274.924 34.4048 275.029 34.6518 275.029 34.9378V43.1698L281.896 34.7418C282.026 34.5858 282.196 34.4038 282.404 34.1958C282.612 33.9878 282.962 33.8828 283.457 33.8828H289.543C289.777 33.8828 289.979 33.9678 290.148 34.1368C290.317 34.3058 290.401 34.5068 290.401 34.7408C290.401 34.9238 290.362 35.0658 290.284 35.1708L280.647 46.9528L290.948 59.9078Z" fill="#FAFAFA"/>
<path d="M359.616 77.3221L354.012 79.0101L349.957 65.4841L355.552 63.7971L359.616 77.3221Z" fill="#E0E0E0"/>
<path d="M377.133 65.3091C377.351 66.0351 376.632 67.5981 375.544 67.9271C375.544 67.9271 376.066 68.4791 376.33 69.3591C376.652 70.4061 375.796 71.8141 374.112 72.3161C372.436 72.8181 361.282 76.1771 361.282 76.1771L357.506 63.6141L357.497 63.6131C357.497 63.6131 359.674 58.0561 359.781 57.2201C359.908 56.3971 358.606 53.3011 358.431 52.7191C358.289 52.2451 360.33 51.3831 361.973 52.0451C362.352 52.2001 362.711 52.4301 363.02 52.7691C363.663 53.4731 364.144 54.1631 364.491 54.8761C365.045 55.9771 365.272 57.1231 365.272 58.4231L373.023 56.0911C373.67 55.8971 374.235 55.9531 374.682 56.1431C375.373 56.4281 375.817 57.0211 375.961 57.5001C376.318 58.6331 375.657 59.5031 375.302 59.8411C375.302 59.8411 376.955 59.7051 377.422 61.2651C377.684 62.1391 377.25 63.2951 376.143 63.8641C376.143 63.8641 376.808 64.2241 377.133 65.3091Z" fill="#E0E0E0"/>
<path d="M440.005 217.613L432.815 215.884L437.005 198.543L444.186 200.266L440.005 217.613Z" fill="#E0E0E0"/>
<path d="M466.772 215.662C466.547 216.593 464.768 217.84 463.37 217.506C463.37 217.506 463.588 218.441 463.316 219.569C463.001 220.916 461.17 221.908 459.012 221.383C456.863 220.864 442.552 217.423 442.552 217.423L446.435 201.31L446.426 201.303C446.426 201.303 452.342 196.626 452.99 195.782C453.653 194.965 454.204 190.758 454.385 190.011C454.532 189.403 457.308 189.763 458.679 191.532C458.993 191.942 459.239 192.422 459.36 192.989C459.613 194.167 459.698 195.226 459.622 196.225C459.525 197.78 459.044 199.174 458.215 200.593L468.159 202.986C468.989 203.187 469.57 203.607 469.936 204.1C470.509 204.852 470.615 205.78 470.466 206.396C470.133 207.86 468.858 208.388 468.255 208.531C468.255 208.531 470.145 209.436 469.662 211.435C469.391 212.556 468.182 213.54 466.61 213.456C466.613 213.456 467.108 214.271 466.772 215.662Z" fill="#E0E0E0"/>
<path d="M76.8232 207.236L84.6712 209.599L90.3502 190.659L82.5142 188.297L76.8232 207.236Z" fill="#E0E0E0"/>
<path d="M52.293 190.413C51.988 191.429 52.994 193.618 54.518 194.079C54.518 194.079 53.786 194.852 53.417 196.084C52.966 197.55 54.164 199.523 56.523 200.225C58.87 200.929 74.49 205.632 74.49 205.632L79.777 188.039L79.789 188.038C79.789 188.038 76.74 180.256 76.591 179.085C76.414 177.933 78.237 173.597 78.481 172.782C78.68 172.118 75.8221 170.911 73.521 171.838C72.991 172.055 72.488 172.377 72.055 172.852C71.155 173.838 70.481 174.805 69.996 175.803C69.22 177.345 68.902 178.949 68.902 180.77L58.047 177.504C57.14 177.233 56.349 177.31 55.723 177.577C54.755 177.976 54.134 178.806 53.933 179.478C53.434 181.065 54.359 182.283 54.856 182.757C54.856 182.757 52.541 182.567 51.886 184.751C51.519 185.975 52.127 187.593 53.678 188.39C53.678 188.39 52.749 188.894 52.293 190.413Z" fill="#E0E0E0"/>
</svg>
