<svg width="517" height="508" viewBox="0 0 517 508" fill="none" xmlns="http://www.w3.org/2000/svg">
<path d="M321.685 472.504H127.985C75.7708 472.504 28.9018 438.17 12.1886 386.612C11.814 385.452 11.4394 384.263 11.0647 383.074C-3.38641 335.981 -11.2387 281.117 36.8117 207.781C84.8622 134.446 51.8968 65.6478 113.678 40.6081C175.459 15.5683 225.584 46.7992 295.938 16.3803C366.292 -14.0386 507.029 -12.2407 515.602 111.189C524.189 234.619 489.855 229.254 503.586 270.388C517.316 311.536 563.652 483.248 321.671 472.518L321.685 472.504Z" fill="#E4FFFA"/>
<path d="M471.303 353.283H210.282C203.543 353.283 198.08 347.82 198.08 341.081V93.3411H483.505V341.08C483.505 347.819 478.042 353.283 471.303 353.283Z" fill="white" stroke="#97AFFF" stroke-width="1.5" stroke-miterlimit="10" stroke-linecap="round" stroke-linejoin="round"/>
<path d="M483.505 93.341H198.08V81.839C198.08 78.13 201.087 75.123 204.796 75.123H476.789C480.498 75.123 483.505 78.13 483.505 81.839V93.341Z" fill="white" stroke="#97AFFF" stroke-width="1.5" stroke-miterlimit="10" stroke-linecap="round" stroke-linejoin="round"/>
<path d="M473.409 84.2321C473.409 86.3751 471.672 88.112 469.529 88.112C467.386 88.112 465.649 86.3751 465.649 84.2321C465.649 82.0891 467.386 80.3521 469.529 80.3521C471.672 80.3521 473.409 82.0891 473.409 84.2321Z" fill="#3E8879"/>
<path d="M458.615 84.2321C458.615 86.3751 456.878 88.112 454.735 88.112C452.592 88.112 450.855 86.3751 450.855 84.2321C450.855 82.0891 452.592 80.3521 454.735 80.3521C456.878 80.3521 458.615 82.0891 458.615 84.2321Z" fill="#6A8AF4"/>
<path d="M443.822 84.2321C443.822 86.3751 442.085 88.112 439.942 88.112C437.799 88.112 436.062 86.3751 436.062 84.2321C436.062 82.0891 437.799 80.3521 439.942 80.3521C442.084 80.3521 443.822 82.0891 443.822 84.2321Z" fill="#303030"/>
<path d="M228.488 122.485C232.74 118.232 232.74 111.337 228.488 107.085C224.235 102.832 217.34 102.832 213.087 107.085C208.834 111.337 208.834 118.232 213.087 122.485C217.34 126.738 224.235 126.738 228.488 122.485Z" fill="#3E8879"/>
<path d="M226.309 113.467H222.105V109.263C222.105 108.536 221.515 107.946 220.788 107.946C220.061 107.946 219.471 108.536 219.471 109.263V113.467H215.267C214.54 113.467 213.95 114.057 213.95 114.784C213.95 115.511 214.54 116.101 215.267 116.101H219.471V120.305C219.471 121.032 220.061 121.622 220.788 121.622C221.515 121.622 222.105 121.032 222.105 120.305V116.1H226.309C227.036 116.1 227.626 115.51 227.626 114.783C227.626 114.057 227.036 113.467 226.309 113.467Z" fill="white"/>
<path d="M240.771 120V109.818H244.977C245.739 109.818 246.397 109.967 246.95 110.266C247.507 110.561 247.936 110.973 248.238 111.504C248.54 112.031 248.69 112.644 248.69 113.343C248.69 114.046 248.536 114.661 248.228 115.188C247.923 115.711 247.487 116.117 246.92 116.406C246.354 116.694 245.681 116.838 244.902 116.838H242.307V114.899H244.445C244.816 114.899 245.126 114.835 245.374 114.705C245.626 114.576 245.817 114.395 245.946 114.163C246.075 113.928 246.14 113.655 246.14 113.343C246.14 113.028 246.075 112.756 245.946 112.528C245.817 112.296 245.626 112.117 245.374 111.991C245.122 111.865 244.813 111.802 244.445 111.802H243.232V120H240.771ZM249.903 120V109.818H254.109C254.872 109.818 255.53 109.956 256.083 110.231C256.64 110.503 257.069 110.894 257.371 111.404C257.672 111.911 257.823 112.513 257.823 113.209C257.823 113.915 257.669 114.515 257.361 115.009C257.053 115.499 256.615 115.874 256.048 116.132C255.482 116.387 254.81 116.515 254.035 116.515H251.375V114.576H253.577C253.949 114.576 254.259 114.528 254.507 114.432C254.759 114.332 254.95 114.183 255.079 113.984C255.208 113.782 255.273 113.524 255.273 113.209C255.273 112.894 255.208 112.634 255.079 112.428C254.95 112.219 254.759 112.064 254.507 111.961C254.255 111.855 253.945 111.802 253.577 111.802H252.364V120H249.903ZM255.636 115.347L258.171 120H255.487L253.001 115.347H255.636ZM268.783 114.909C268.783 116.029 268.568 116.979 268.137 117.758C267.706 118.537 267.123 119.128 266.387 119.533C265.654 119.937 264.832 120.139 263.921 120.139C263.006 120.139 262.182 119.935 261.45 119.528C260.717 119.12 260.136 118.528 259.705 117.753C259.277 116.974 259.064 116.026 259.064 114.909C259.064 113.789 259.277 112.839 259.705 112.06C260.136 111.281 260.717 110.69 261.45 110.286C262.182 109.881 263.006 109.679 263.921 109.679C264.832 109.679 265.654 109.881 266.387 110.286C267.123 110.69 267.706 111.281 268.137 112.06C268.568 112.839 268.783 113.789 268.783 114.909ZM266.267 114.909C266.267 114.246 266.173 113.686 265.984 113.229C265.798 112.771 265.53 112.425 265.179 112.19C264.831 111.954 264.411 111.837 263.921 111.837C263.434 111.837 263.014 111.954 262.663 112.19C262.312 112.425 262.042 112.771 261.853 113.229C261.667 113.686 261.574 114.246 261.574 114.909C261.574 115.572 261.667 116.132 261.853 116.589C262.042 117.047 262.312 117.393 262.663 117.629C263.014 117.864 263.434 117.982 263.921 117.982C264.411 117.982 264.831 117.864 265.179 117.629C265.53 117.393 265.798 117.047 265.984 116.589C266.173 116.132 266.267 115.572 266.267 114.909ZM270.22 120V109.818H274.426C275.188 109.818 275.846 109.967 276.4 110.266C276.956 110.561 277.386 110.973 277.687 111.504C277.989 112.031 278.14 112.644 278.14 113.343C278.14 114.046 277.985 114.661 277.677 115.188C277.372 115.711 276.936 116.117 276.37 116.406C275.803 116.694 275.13 116.838 274.351 116.838H271.756V114.899H273.894C274.265 114.899 274.575 114.835 274.824 114.705C275.075 114.576 275.266 114.395 275.395 114.163C275.525 113.928 275.589 113.655 275.589 113.343C275.589 113.028 275.525 112.756 275.395 112.528C275.266 112.296 275.075 112.117 274.824 111.991C274.572 111.865 274.262 111.802 273.894 111.802H272.681V120H270.22ZM279.353 120V109.818H286.452V111.817H281.814V113.905H286.089V115.908H281.814V118.001H286.452V120H279.353ZM287.993 120V109.818H292.199C292.962 109.818 293.619 109.956 294.173 110.231C294.73 110.503 295.159 110.894 295.461 111.404C295.762 111.911 295.913 112.513 295.913 113.209C295.913 113.915 295.759 114.515 295.451 115.009C295.142 115.499 294.705 115.874 294.138 116.132C293.571 116.387 292.9 116.515 292.125 116.515H289.465V114.576H291.667C292.038 114.576 292.348 114.528 292.597 114.432C292.849 114.332 293.039 114.183 293.169 113.984C293.298 113.782 293.363 113.524 293.363 113.209C293.363 112.894 293.298 112.634 293.169 112.428C293.039 112.219 292.849 112.064 292.597 111.961C292.345 111.855 292.035 111.802 291.667 111.802H290.454V120H287.993ZM293.725 115.347L296.261 120H293.576L291.091 115.347H293.725ZM296.93 111.817V109.818H305.536V111.817H302.448V120H300.022V111.817H296.93ZM306.23 109.818H308.98L311.132 114.079H311.222L313.374 109.818H316.124L312.4 116.599V120H309.954V116.599L306.23 109.818ZM320.163 109.818H323.211L325.796 116.122H325.915L328.501 109.818H331.548V120H329.152V113.746H329.067L326.621 119.935H325.09L322.644 113.711H322.559V120H320.163V109.818ZM335.286 120H332.641L336.076 109.818H339.352L342.788 120H340.143L337.751 112.384H337.672L335.286 120ZM334.933 115.993H340.461V117.862H334.933V115.993ZM352.549 109.818V120H350.461L346.409 114.124H346.345V120H343.884V109.818H346.002L350.009 115.685H350.093V109.818H352.549ZM356.299 120H353.654L357.09 109.818H360.366L363.801 120H361.156L358.765 112.384H358.686L356.299 120ZM355.946 115.993H361.475V117.862H355.946V115.993ZM371.101 113.144C371.045 112.935 370.962 112.751 370.852 112.592C370.743 112.43 370.609 112.292 370.45 112.18C370.29 112.067 370.108 111.982 369.903 111.926C369.697 111.866 369.472 111.837 369.227 111.837C368.733 111.837 368.305 111.956 367.944 112.195C367.586 112.433 367.309 112.781 367.114 113.239C366.918 113.693 366.82 114.245 366.82 114.894C366.82 115.547 366.915 116.104 367.104 116.565C367.293 117.025 367.566 117.377 367.924 117.619C368.282 117.861 368.716 117.982 369.227 117.982C369.677 117.982 370.058 117.909 370.37 117.763C370.685 117.614 370.924 117.403 371.086 117.131C371.248 116.86 371.33 116.54 371.33 116.172L371.787 116.227H369.311V114.432H373.701V115.779C373.701 116.691 373.507 117.471 373.119 118.121C372.735 118.77 372.205 119.269 371.528 119.617C370.856 119.965 370.082 120.139 369.207 120.139C368.236 120.139 367.382 119.929 366.646 119.508C365.911 119.087 365.337 118.487 364.926 117.708C364.515 116.926 364.31 115.998 364.31 114.924C364.31 114.089 364.434 113.348 364.683 112.702C364.931 112.052 365.277 111.502 365.722 111.051C366.169 110.6 366.686 110.259 367.273 110.027C367.863 109.795 368.497 109.679 369.177 109.679C369.767 109.679 370.315 109.763 370.822 109.933C371.333 110.102 371.784 110.34 372.175 110.648C372.569 110.957 372.889 111.323 373.134 111.747C373.379 112.171 373.532 112.637 373.592 113.144H371.101ZM375.151 120V109.818H382.251V111.817H377.612V113.905H381.888V115.908H377.612V118.001H382.251V120H375.151ZM383.792 109.818H386.84L389.425 116.122H389.544L392.129 109.818H395.177V120H392.781V113.746H392.696L390.25 119.935H388.719L386.273 113.711H386.188V120H383.792V109.818ZM396.712 120V109.818H403.811V111.817H399.173V113.905H403.449V115.908H399.173V118.001H403.811V120H396.712ZM414.018 109.818V120H411.93L407.878 114.124H407.814V120H405.353V109.818H407.471L411.478 115.685H411.562V109.818H414.018ZM415.232 111.817V109.818H423.838V111.817H420.751V120H418.325V111.817H415.232Z" fill="#002445"/>
<path d="M464.828 156.385H216.119C213.523 156.385 211.419 154.281 211.419 151.685V141.397C211.419 138.801 213.523 136.697 216.119 136.697H464.828C467.424 136.697 469.528 138.801 469.528 141.397V151.685C469.529 154.281 467.424 156.385 464.828 156.385Z" fill="white" stroke="#3E8879" stroke-width="1.5" stroke-miterlimit="10" stroke-linecap="round" stroke-linejoin="round"/>
<path d="M217.584 144.167V143.131H223.218V144.167H217.584ZM219.834 150.037V143.328H220.969V150.037H219.834Z" fill="#3E8879"/>
<path d="M224.609 144.434C224.424 144.434 224.272 144.371 224.15 144.246C224.029 144.121 223.967 143.966 223.967 143.782C223.967 143.597 224.028 143.443 224.15 143.318C224.272 143.193 224.424 143.13 224.609 143.13C224.799 143.13 224.955 143.193 225.073 143.318C225.191 143.443 225.251 143.597 225.251 143.782C225.251 143.966 225.191 144.121 225.073 144.246C224.955 144.371 224.8 144.434 224.609 144.434ZM224.066 150.037V145.302H225.152V150.037H224.066Z" fill="#3E8879"/>
<path d="M225.951 146.288V145.302H229.305V146.288H225.951ZM227.086 150.037V143.328H228.171V150.037H227.086Z" fill="#3E8879"/>
<path d="M230.094 150.037V142.934H231.18V150.037H230.094Z" fill="#3E8879"/>
<path d="M234.583 150.136C234.109 150.136 233.684 150.03 233.306 149.816C232.928 149.602 232.628 149.307 232.409 148.932C232.188 148.558 232.078 148.137 232.078 147.669C232.078 147.202 232.186 146.783 232.403 146.411C232.621 146.04 232.915 145.745 233.287 145.528C233.658 145.311 234.071 145.203 234.525 145.203C234.965 145.203 235.355 145.305 235.694 145.509C236.033 145.713 236.298 145.992 236.493 146.347C236.687 146.702 236.784 147.107 236.784 147.561C236.784 147.64 236.779 147.721 236.769 147.803C236.759 147.885 236.744 147.975 236.725 148.074H232.837V147.185H236.162L235.758 147.54C235.744 147.251 235.689 147.007 235.59 146.81C235.491 146.613 235.352 146.461 235.17 146.357C234.989 146.252 234.768 146.199 234.504 146.199C234.229 146.199 233.988 146.259 233.784 146.377C233.58 146.495 233.422 146.661 233.31 146.875C233.198 147.089 233.142 147.344 233.142 147.64C233.142 147.936 233.202 148.196 233.32 148.419C233.438 148.643 233.606 148.815 233.823 148.938C234.041 149.059 234.29 149.12 234.573 149.12C234.816 149.12 235.042 149.078 235.249 148.992C235.456 148.907 235.632 148.782 235.777 148.617L236.468 149.317C236.238 149.587 235.958 149.791 235.629 149.929C235.3 150.066 234.951 150.136 234.583 150.136Z" fill="#3E8879"/>
<path d="M358.351 187.932H216.119C213.523 187.932 211.419 185.828 211.419 183.232V172.944C211.419 170.348 213.523 168.244 216.119 168.244H358.351C360.947 168.244 363.051 170.348 363.051 172.944V183.232C363.052 185.828 360.947 187.932 358.351 187.932Z" fill="white" stroke="#3E8879" stroke-width="1.5" stroke-miterlimit="10" stroke-linecap="round" stroke-linejoin="round"/>
<path d="M217.584 181.585L220.426 174.679H221.215L224.037 181.585H222.813L220.603 175.991H221.017L218.788 181.585H217.584ZM218.985 180.252V179.266H222.645V180.252H218.985Z" fill="#3E8879"/>
<path d="M226.642 181.683C226.241 181.683 225.883 181.594 225.571 181.416C225.258 181.238 225.015 180.994 224.842 180.682C224.667 180.369 224.58 180.009 224.58 179.601V176.849H225.665V179.552C225.665 179.782 225.703 179.978 225.779 180.139C225.854 180.3 225.967 180.423 226.114 180.509C226.262 180.594 226.438 180.637 226.642 180.637C226.957 180.637 227.199 180.543 227.367 180.356C227.535 180.169 227.619 179.901 227.619 179.552V176.849H228.704V179.601C228.704 180.016 228.617 180.379 228.442 180.692C228.268 181.005 228.026 181.248 227.717 181.422C227.407 181.596 227.049 181.683 226.642 181.683Z" fill="#3E8879"/>
<path d="M229.385 177.835V176.849H232.74V177.835H229.385ZM230.52 181.585V174.876H231.605V181.585H230.52Z" fill="#3E8879"/>
<path d="M233.528 181.585V174.481H234.614V181.585H233.528ZM236.774 181.585V178.852C236.774 178.536 236.673 178.277 236.473 178.073C236.272 177.87 236.014 177.767 235.699 177.767C235.488 177.767 235.301 177.813 235.136 177.906C234.972 177.998 234.843 178.126 234.751 178.291C234.659 178.455 234.613 178.643 234.613 178.853L234.188 178.617C234.188 178.256 234.267 177.934 234.425 177.655C234.582 177.376 234.801 177.155 235.081 176.994C235.36 176.833 235.674 176.753 236.022 176.753C236.377 176.753 236.693 176.831 236.969 176.989C237.245 177.147 237.462 177.366 237.62 177.645C237.778 177.924 237.856 178.249 237.856 178.617V181.587H236.774V181.585Z" fill="#3E8879"/>
<path d="M241.135 181.683C240.674 181.683 240.257 181.573 239.882 181.353C239.507 181.132 239.209 180.835 238.989 180.46C238.768 180.085 238.658 179.668 238.658 179.207C238.658 178.747 238.768 178.332 238.989 177.964C239.209 177.596 239.507 177.302 239.882 177.081C240.257 176.86 240.674 176.751 241.135 176.751C241.602 176.751 242.023 176.859 242.398 177.076C242.773 177.293 243.071 177.588 243.29 177.959C243.511 178.331 243.621 178.747 243.621 179.207C243.621 179.668 243.511 180.085 243.29 180.46C243.07 180.835 242.773 181.133 242.398 181.353C242.023 181.573 241.602 181.683 241.135 181.683ZM241.135 180.637C241.405 180.637 241.643 180.576 241.85 180.454C242.058 180.333 242.219 180.163 242.333 179.946C242.448 179.729 242.506 179.482 242.506 179.206C242.506 178.93 242.447 178.686 242.328 178.477C242.21 178.266 242.049 178.1 241.845 177.978C241.642 177.857 241.405 177.795 241.135 177.795C240.871 177.795 240.637 177.857 240.43 177.978C240.222 178.1 240.061 178.266 239.947 178.477C239.832 178.687 239.774 178.93 239.774 179.206C239.774 179.482 239.832 179.729 239.947 179.946C240.061 180.163 240.222 180.333 240.43 180.454C240.637 180.577 240.871 180.637 241.135 180.637Z" fill="#3E8879"/>
<path d="M244.519 181.585V176.85H245.605V181.585H244.519ZM245.605 178.951L245.23 178.763C245.23 178.164 245.363 177.679 245.629 177.307C245.896 176.936 246.298 176.75 246.837 176.75C247.074 176.75 247.288 176.792 247.479 176.878C247.669 176.963 247.847 177.102 248.012 177.292L247.301 178.022C247.216 177.93 247.12 177.864 247.015 177.825C246.911 177.785 246.788 177.765 246.651 177.765C246.348 177.765 246.098 177.861 245.901 178.051C245.703 178.244 245.605 178.542 245.605 178.951Z" fill="#3E8879"/>
<path d="M464.829 187.932H376.343C373.747 187.932 371.643 185.828 371.643 183.232V172.944C371.643 170.348 373.747 168.244 376.343 168.244H464.829C467.425 168.244 469.529 170.348 469.529 172.944V183.232C469.53 185.828 467.425 187.932 464.829 187.932Z" fill="white" stroke="#3E8879" stroke-width="1.5" stroke-miterlimit="10" stroke-linecap="round" stroke-linejoin="round"/>
<path d="M378.32 181.585V174.679H379.455V181.585H378.32ZM379.1 181.585V180.549H380.916C381.389 180.549 381.805 180.447 382.164 180.243C382.521 180.039 382.801 179.755 383.002 179.389C383.203 179.024 383.303 178.602 383.303 178.121C383.303 177.647 383.201 177.229 382.998 176.868C382.793 176.506 382.512 176.223 382.154 176.019C381.795 175.815 381.383 175.713 380.916 175.713H379.1V174.677H380.946C381.446 174.677 381.909 174.764 382.337 174.939C382.765 175.113 383.138 175.356 383.456 175.669C383.776 175.982 384.024 176.347 384.202 176.765C384.38 177.182 384.468 177.638 384.468 178.131C384.468 178.617 384.38 179.071 384.202 179.492C384.024 179.913 383.778 180.28 383.462 180.593C383.146 180.906 382.774 181.149 382.347 181.322C381.919 181.497 381.46 181.584 380.966 181.584H379.1V181.585Z" fill="#3E8879"/>
<path d="M387.458 181.683C387.03 181.683 386.644 181.575 386.298 181.358C385.952 181.14 385.681 180.846 385.48 180.474C385.279 180.103 385.179 179.687 385.179 179.226C385.179 178.759 385.279 178.34 385.48 177.968C385.681 177.597 385.953 177.301 386.298 177.08C386.643 176.859 387.03 176.75 387.458 176.75C387.819 176.75 388.14 176.827 388.419 176.981C388.698 177.135 388.921 177.348 389.085 177.618C389.249 177.888 389.333 178.193 389.333 178.535V179.896C389.333 180.239 389.251 180.544 389.091 180.814C388.929 181.084 388.708 181.296 388.425 181.451C388.142 181.606 387.819 181.683 387.458 181.683ZM387.636 180.657C388.036 180.657 388.361 180.522 388.607 180.253C388.855 179.983 388.978 179.638 388.978 179.217C388.978 178.935 388.921 178.685 388.81 178.467C388.697 178.25 388.542 178.081 388.341 177.959C388.14 177.838 387.905 177.776 387.636 177.776C387.372 177.776 387.14 177.838 386.941 177.959C386.74 178.081 386.582 178.25 386.466 178.467C386.351 178.685 386.294 178.935 386.294 179.217C386.294 179.5 386.351 179.75 386.466 179.967C386.581 180.184 386.739 180.354 386.941 180.475C387.14 180.596 387.372 180.657 387.636 180.657ZM388.907 181.585V180.312L389.095 179.158L388.907 178.013V176.849H389.993V181.584H388.907V181.585Z" fill="#3E8879"/>
<path d="M390.781 177.835V176.849H394.136V177.835H390.781ZM391.916 181.585V174.876H393.002V181.585H391.916Z" fill="#3E8879"/>
<path d="M396.986 181.683C396.513 181.683 396.088 181.577 395.709 181.363C395.332 181.149 395.031 180.854 394.812 180.479C394.591 180.105 394.48 179.684 394.48 179.216C394.48 178.749 394.589 178.33 394.806 177.958C395.023 177.587 395.318 177.292 395.689 177.075C396.06 176.858 396.474 176.75 396.927 176.75C397.368 176.75 397.757 176.852 398.097 177.056C398.435 177.26 398.701 177.539 398.896 177.894C399.089 178.249 399.187 178.654 399.187 179.108C399.187 179.187 399.181 179.268 399.171 179.35C399.161 179.432 399.148 179.522 399.128 179.621H395.239V178.732H398.565L398.161 179.087C398.147 178.798 398.091 178.554 397.993 178.357C397.893 178.16 397.755 178.008 397.573 177.904C397.391 177.799 397.171 177.746 396.907 177.746C396.632 177.746 396.391 177.806 396.186 177.924C395.983 178.042 395.825 178.208 395.713 178.422C395.6 178.636 395.545 178.891 395.545 179.187C395.545 179.483 395.604 179.743 395.723 179.966C395.84 180.19 396.008 180.362 396.225 180.485C396.444 180.606 396.692 180.667 396.975 180.667C397.219 180.667 397.444 180.625 397.651 180.539C397.858 180.454 398.034 180.329 398.18 180.164L398.869 180.864C398.639 181.134 398.359 181.338 398.031 181.476C397.703 181.614 397.355 181.683 396.986 181.683Z" fill="#3E8879"/>
<path d="M358.351 218.966H216.119C213.523 218.966 211.419 216.862 211.419 214.266V203.978C211.419 201.382 213.523 199.278 216.119 199.278H358.351C360.947 199.278 363.051 201.382 363.051 203.978V214.266C363.052 216.862 360.947 218.966 358.351 218.966Z" fill="white" stroke="#3E8879" stroke-width="1.5" stroke-miterlimit="10" stroke-linecap="round" stroke-linejoin="round"/>
<path d="M221.235 212.717C220.735 212.717 220.273 212.626 219.848 212.446C219.424 212.265 219.054 212.012 218.739 211.686C218.423 211.361 218.179 210.983 218.009 210.551C217.838 210.12 217.752 209.658 217.752 209.165C217.752 208.672 217.838 208.21 218.009 207.778C218.18 207.347 218.423 206.971 218.739 206.649C219.054 206.327 219.425 206.073 219.848 205.889C220.273 205.704 220.735 205.613 221.235 205.613C221.794 205.613 222.277 205.705 222.685 205.889C223.092 206.073 223.455 206.323 223.77 206.639L223.001 207.409C222.797 207.185 222.549 207.011 222.256 206.886C221.963 206.761 221.623 206.698 221.235 206.698C220.892 206.698 220.58 206.758 220.297 206.876C220.014 206.994 219.769 207.164 219.562 207.384C219.355 207.605 219.196 207.866 219.083 208.169C218.972 208.471 218.915 208.804 218.915 209.165C218.915 209.526 218.972 209.859 219.083 210.161C219.195 210.464 219.354 210.725 219.562 210.946C219.769 211.166 220.014 211.336 220.297 211.454C220.579 211.572 220.892 211.632 221.235 211.632C221.656 211.632 222.012 211.568 222.305 211.44C222.597 211.311 222.846 211.135 223.05 210.912L223.82 211.682C223.504 212.004 223.132 212.258 222.705 212.442C222.277 212.625 221.787 212.717 221.235 212.717Z" fill="#3E8879"/>
<path d="M226.533 212.717C226.105 212.717 225.719 212.609 225.374 212.392C225.028 212.174 224.756 211.88 224.555 211.508C224.355 211.137 224.254 210.721 224.254 210.26C224.254 209.793 224.355 209.374 224.555 209.002C224.756 208.631 225.029 208.335 225.374 208.114C225.719 207.893 226.106 207.784 226.533 207.784C226.894 207.784 227.216 207.861 227.495 208.015C227.774 208.169 227.997 208.382 228.161 208.652C228.325 208.922 228.408 209.227 228.408 209.569V210.93C228.408 211.273 228.327 211.578 228.166 211.848C228.005 212.118 227.783 212.329 227.5 212.485C227.217 212.64 226.895 212.717 226.533 212.717ZM226.711 211.69C227.112 211.69 227.436 211.555 227.683 211.286C227.93 211.016 228.053 210.671 228.053 210.25C228.053 209.968 227.997 209.718 227.885 209.5C227.773 209.283 227.617 209.114 227.416 208.992C227.216 208.871 226.98 208.809 226.711 208.809C226.447 208.809 226.216 208.87 226.016 208.992C225.815 209.114 225.657 209.283 225.542 209.5C225.427 209.718 225.369 209.968 225.369 210.25C225.369 210.533 225.427 210.783 225.542 211C225.656 211.217 225.814 211.387 226.016 211.508C226.216 211.63 226.447 211.69 226.711 211.69ZM227.983 212.618V211.346L228.171 210.192L227.983 209.047V207.883H229.068V212.618H227.983Z" fill="#3E8879"/>
<path d="M229.858 208.869V207.883H233.213V208.869H229.858ZM230.993 212.618V205.909H232.078V212.618H230.993Z" fill="#3E8879"/>
<path d="M236.064 212.717C235.59 212.717 235.165 212.611 234.787 212.397C234.409 212.183 234.109 211.888 233.89 211.513C233.669 211.139 233.559 210.718 233.559 210.25C233.559 209.783 233.667 209.364 233.884 208.992C234.102 208.621 234.396 208.326 234.768 208.109C235.139 207.892 235.552 207.784 236.006 207.784C236.446 207.784 236.836 207.886 237.175 208.09C237.514 208.294 237.78 208.573 237.974 208.928C238.168 209.283 238.265 209.688 238.265 210.142C238.265 210.221 238.26 210.302 238.25 210.384C238.24 210.466 238.226 210.556 238.206 210.655H234.318V209.766H237.643L237.239 210.121C237.225 209.832 237.17 209.588 237.071 209.391C236.972 209.194 236.833 209.042 236.651 208.938C236.47 208.832 236.249 208.78 235.985 208.78C235.71 208.78 235.469 208.839 235.265 208.958C235.061 209.076 234.903 209.242 234.791 209.456C234.679 209.67 234.623 209.925 234.623 210.221C234.623 210.517 234.683 210.777 234.801 211C234.919 211.224 235.087 211.396 235.304 211.519C235.522 211.64 235.771 211.701 236.054 211.701C236.297 211.701 236.523 211.659 236.73 211.573C236.937 211.488 237.113 211.363 237.258 211.198L237.948 211.898C237.718 212.168 237.438 212.372 237.109 212.51C236.78 212.648 236.432 212.717 236.064 212.717Z" fill="#3E8879"/>
<path d="M241.056 212.52C240.635 212.52 240.255 212.416 239.916 212.209C239.577 212.002 239.311 211.717 239.117 211.355C238.923 210.993 238.826 210.588 238.826 210.141C238.826 209.694 238.923 209.292 239.117 208.938C239.311 208.582 239.577 208.301 239.916 208.094C240.255 207.887 240.635 207.783 241.056 207.783C241.431 207.783 241.76 207.858 242.043 208.01C242.325 208.161 242.546 208.37 242.704 208.636C242.861 208.903 242.94 209.213 242.94 209.569V210.733C242.94 211.082 242.859 211.391 242.699 211.661C242.537 211.931 242.315 212.141 242.033 212.293C241.75 212.444 241.424 212.52 241.056 212.52ZM241.105 214.69C240.605 214.69 240.167 214.599 239.792 214.419C239.417 214.237 239.114 213.983 238.885 213.654L239.595 212.943C239.785 213.18 240.003 213.358 240.246 213.476C240.489 213.594 240.782 213.654 241.124 213.654C241.552 213.654 241.891 213.544 242.141 213.323C242.391 213.103 242.516 212.802 242.516 212.421V211.257L242.704 210.211L242.516 209.155V207.882H243.601V212.42C243.601 212.874 243.496 213.27 243.286 213.609C243.075 213.948 242.782 214.213 242.407 214.404C242.033 214.595 241.599 214.69 241.105 214.69ZM241.273 211.493C241.536 211.493 241.766 211.437 241.963 211.326C242.16 211.214 242.313 211.057 242.422 210.857C242.53 210.656 242.584 210.421 242.584 210.151C242.584 209.881 242.53 209.646 242.422 209.446C242.313 209.246 242.16 209.089 241.963 208.977C241.766 208.866 241.535 208.809 241.273 208.809C241.009 208.809 240.778 208.866 240.577 208.977C240.377 209.089 240.221 209.246 240.108 209.446C239.997 209.646 239.941 209.882 239.941 210.151C239.941 210.415 239.997 210.648 240.108 210.852C240.22 211.055 240.377 211.213 240.577 211.326C240.778 211.438 241.01 211.493 241.273 211.493Z" fill="#3E8879"/>
<path d="M246.976 212.717C246.515 212.717 246.098 212.607 245.723 212.387C245.348 212.166 245.05 211.868 244.83 211.493C244.609 211.118 244.499 210.701 244.499 210.24C244.499 209.78 244.609 209.365 244.83 208.997C245.05 208.629 245.348 208.335 245.723 208.114C246.098 207.893 246.515 207.784 246.976 207.784C247.443 207.784 247.864 207.892 248.239 208.109C248.614 208.326 248.912 208.621 249.132 208.992C249.353 209.364 249.463 209.78 249.463 210.24C249.463 210.701 249.353 211.118 249.132 211.493C248.912 211.868 248.614 212.166 248.239 212.387C247.863 212.606 247.442 212.717 246.976 212.717ZM246.976 211.671C247.246 211.671 247.484 211.61 247.691 211.488C247.899 211.367 248.06 211.197 248.174 210.98C248.289 210.763 248.347 210.516 248.347 210.24C248.347 209.964 248.288 209.72 248.169 209.51C248.051 209.299 247.89 209.133 247.686 209.011C247.483 208.89 247.246 208.828 246.976 208.828C246.712 208.828 246.478 208.889 246.271 209.011C246.063 209.133 245.902 209.299 245.788 209.51C245.673 209.72 245.615 209.963 245.615 210.24C245.615 210.516 245.673 210.763 245.788 210.98C245.902 211.197 246.063 211.367 246.271 211.488C246.477 211.61 246.712 211.671 246.976 211.671Z" fill="#3E8879"/>
<path d="M250.359 212.618V207.883H251.445V212.618H250.359ZM251.445 209.984L251.07 209.796C251.07 209.197 251.203 208.712 251.469 208.34C251.736 207.969 252.138 207.783 252.677 207.783C252.914 207.783 253.128 207.825 253.319 207.911C253.509 207.996 253.687 208.135 253.852 208.325L253.141 209.055C253.056 208.963 252.96 208.897 252.855 208.858C252.751 208.818 252.628 208.798 252.491 208.798C252.188 208.798 251.938 208.894 251.741 209.084C251.544 209.277 251.445 209.576 251.445 209.984Z" fill="#3E8879"/>
<path d="M255.845 212.668L253.823 207.883H255.017L256.398 211.395H256.052L257.513 207.883H258.716L256.516 212.668H255.845ZM254.435 214.592L255.905 211.563L256.516 212.668L255.638 214.592H254.435Z" fill="#3E8879"/>
<path d="M221.235 212.717C220.735 212.717 220.273 212.626 219.848 212.446C219.424 212.265 219.054 212.012 218.739 211.686C218.423 211.361 218.179 210.983 218.009 210.551C217.838 210.12 217.752 209.658 217.752 209.165C217.752 208.672 217.838 208.21 218.009 207.778C218.18 207.347 218.423 206.971 218.739 206.649C219.054 206.327 219.425 206.073 219.848 205.889C220.273 205.704 220.735 205.613 221.235 205.613C221.794 205.613 222.277 205.705 222.685 205.889C223.092 206.073 223.455 206.323 223.77 206.639L223.001 207.409C222.797 207.185 222.549 207.011 222.256 206.886C221.963 206.761 221.623 206.698 221.235 206.698C220.892 206.698 220.58 206.758 220.297 206.876C220.014 206.994 219.769 207.164 219.562 207.384C219.355 207.605 219.196 207.866 219.083 208.169C218.972 208.471 218.915 208.804 218.915 209.165C218.915 209.526 218.972 209.859 219.083 210.161C219.195 210.464 219.354 210.725 219.562 210.946C219.769 211.166 220.014 211.336 220.297 211.454C220.579 211.572 220.892 211.632 221.235 211.632C221.656 211.632 222.012 211.568 222.305 211.44C222.597 211.311 222.846 211.135 223.05 210.912L223.82 211.682C223.504 212.004 223.132 212.258 222.705 212.442C222.277 212.625 221.787 212.717 221.235 212.717Z" fill="#3E8879"/>
<path d="M226.533 212.717C226.105 212.717 225.719 212.609 225.374 212.392C225.028 212.174 224.756 211.88 224.555 211.508C224.355 211.137 224.254 210.721 224.254 210.26C224.254 209.793 224.355 209.374 224.555 209.002C224.756 208.631 225.029 208.335 225.374 208.114C225.719 207.893 226.106 207.784 226.533 207.784C226.894 207.784 227.216 207.861 227.495 208.015C227.774 208.169 227.997 208.382 228.161 208.652C228.325 208.922 228.408 209.227 228.408 209.569V210.93C228.408 211.273 228.327 211.578 228.166 211.848C228.005 212.118 227.783 212.329 227.5 212.485C227.217 212.64 226.895 212.717 226.533 212.717ZM226.711 211.69C227.112 211.69 227.436 211.555 227.683 211.286C227.93 211.016 228.053 210.671 228.053 210.25C228.053 209.968 227.997 209.718 227.885 209.5C227.773 209.283 227.617 209.114 227.416 208.992C227.216 208.871 226.98 208.809 226.711 208.809C226.447 208.809 226.216 208.87 226.016 208.992C225.815 209.114 225.657 209.283 225.542 209.5C225.427 209.718 225.369 209.968 225.369 210.25C225.369 210.533 225.427 210.783 225.542 211C225.656 211.217 225.814 211.387 226.016 211.508C226.216 211.63 226.447 211.69 226.711 211.69ZM227.983 212.618V211.346L228.171 210.192L227.983 209.047V207.883H229.068V212.618H227.983Z" fill="#3E8879"/>
<path d="M229.858 208.869V207.883H233.213V208.869H229.858ZM230.993 212.618V205.909H232.078V212.618H230.993Z" fill="#3E8879"/>
<path d="M236.064 212.717C235.59 212.717 235.165 212.611 234.787 212.397C234.409 212.183 234.109 211.888 233.89 211.513C233.669 211.139 233.559 210.718 233.559 210.25C233.559 209.783 233.667 209.364 233.884 208.992C234.102 208.621 234.396 208.326 234.768 208.109C235.139 207.892 235.552 207.784 236.006 207.784C236.446 207.784 236.836 207.886 237.175 208.09C237.514 208.294 237.78 208.573 237.974 208.928C238.168 209.283 238.265 209.688 238.265 210.142C238.265 210.221 238.26 210.302 238.25 210.384C238.24 210.466 238.226 210.556 238.206 210.655H234.318V209.766H237.643L237.239 210.121C237.225 209.832 237.17 209.588 237.071 209.391C236.972 209.194 236.833 209.042 236.651 208.938C236.47 208.832 236.249 208.78 235.985 208.78C235.71 208.78 235.469 208.839 235.265 208.958C235.061 209.076 234.903 209.242 234.791 209.456C234.679 209.67 234.623 209.925 234.623 210.221C234.623 210.517 234.683 210.777 234.801 211C234.919 211.224 235.087 211.396 235.304 211.519C235.522 211.64 235.771 211.701 236.054 211.701C236.297 211.701 236.523 211.659 236.73 211.573C236.937 211.488 237.113 211.363 237.258 211.198L237.948 211.898C237.718 212.168 237.438 212.372 237.109 212.51C236.78 212.648 236.432 212.717 236.064 212.717Z" fill="#3E8879"/>
<path d="M241.056 212.52C240.635 212.52 240.255 212.416 239.916 212.209C239.577 212.002 239.311 211.717 239.117 211.355C238.923 210.993 238.826 210.588 238.826 210.141C238.826 209.694 238.923 209.292 239.117 208.938C239.311 208.582 239.577 208.301 239.916 208.094C240.255 207.887 240.635 207.783 241.056 207.783C241.431 207.783 241.76 207.858 242.043 208.01C242.325 208.161 242.546 208.37 242.704 208.636C242.861 208.903 242.94 209.213 242.94 209.569V210.733C242.94 211.082 242.859 211.391 242.699 211.661C242.537 211.931 242.315 212.141 242.033 212.293C241.75 212.444 241.424 212.52 241.056 212.52ZM241.105 214.69C240.605 214.69 240.167 214.599 239.792 214.419C239.417 214.237 239.114 213.983 238.885 213.654L239.595 212.943C239.785 213.18 240.003 213.358 240.246 213.476C240.489 213.594 240.782 213.654 241.124 213.654C241.552 213.654 241.891 213.544 242.141 213.323C242.391 213.103 242.516 212.802 242.516 212.421V211.257L242.704 210.211L242.516 209.155V207.882H243.601V212.42C243.601 212.874 243.496 213.27 243.286 213.609C243.075 213.948 242.782 214.213 242.407 214.404C242.033 214.595 241.599 214.69 241.105 214.69ZM241.273 211.493C241.536 211.493 241.766 211.437 241.963 211.326C242.16 211.214 242.313 211.057 242.422 210.857C242.53 210.656 242.584 210.421 242.584 210.151C242.584 209.881 242.53 209.646 242.422 209.446C242.313 209.246 242.16 209.089 241.963 208.977C241.766 208.866 241.535 208.809 241.273 208.809C241.009 208.809 240.778 208.866 240.577 208.977C240.377 209.089 240.221 209.246 240.108 209.446C239.997 209.646 239.941 209.882 239.941 210.151C239.941 210.415 239.997 210.648 240.108 210.852C240.22 211.055 240.377 211.213 240.577 211.326C240.778 211.438 241.01 211.493 241.273 211.493Z" fill="#3E8879"/>
<path d="M246.976 212.717C246.515 212.717 246.098 212.607 245.723 212.387C245.348 212.166 245.05 211.868 244.83 211.493C244.609 211.118 244.499 210.701 244.499 210.24C244.499 209.78 244.609 209.365 244.83 208.997C245.05 208.629 245.348 208.335 245.723 208.114C246.098 207.893 246.515 207.784 246.976 207.784C247.443 207.784 247.864 207.892 248.239 208.109C248.614 208.326 248.912 208.621 249.132 208.992C249.353 209.364 249.463 209.78 249.463 210.24C249.463 210.701 249.353 211.118 249.132 211.493C248.912 211.868 248.614 212.166 248.239 212.387C247.863 212.606 247.442 212.717 246.976 212.717ZM246.976 211.671C247.246 211.671 247.484 211.61 247.691 211.488C247.899 211.367 248.06 211.197 248.174 210.98C248.289 210.763 248.347 210.516 248.347 210.24C248.347 209.964 248.288 209.72 248.169 209.51C248.051 209.299 247.89 209.133 247.686 209.011C247.483 208.89 247.246 208.828 246.976 208.828C246.712 208.828 246.478 208.889 246.271 209.011C246.063 209.133 245.902 209.299 245.788 209.51C245.673 209.72 245.615 209.963 245.615 210.24C245.615 210.516 245.673 210.763 245.788 210.98C245.902 211.197 246.063 211.367 246.271 211.488C246.477 211.61 246.712 211.671 246.976 211.671Z" fill="#3E8879"/>
<path d="M250.359 212.618V207.883H251.445V212.618H250.359ZM251.445 209.984L251.07 209.796C251.07 209.197 251.203 208.712 251.469 208.34C251.736 207.969 252.138 207.783 252.677 207.783C252.914 207.783 253.128 207.825 253.319 207.911C253.509 207.996 253.687 208.135 253.852 208.325L253.141 209.055C253.056 208.963 252.96 208.897 252.855 208.858C252.751 208.818 252.628 208.798 252.491 208.798C252.188 208.798 251.938 208.894 251.741 209.084C251.544 209.277 251.445 209.576 251.445 209.984Z" fill="#3E8879"/>
<path d="M255.845 212.668L253.823 207.883H255.017L256.398 211.395H256.052L257.513 207.883H258.716L256.516 212.668H255.845ZM254.435 214.592L255.905 211.563L256.516 212.668L255.638 214.592H254.435Z" fill="#3E8879"/>
<path d="M358.351 199.278H343.363V218.966H358.351C360.947 218.966 363.051 216.862 363.051 214.266V203.978C363.052 201.382 360.947 199.278 358.351 199.278Z" fill="#3E8879"/>
<path d="M353.208 206.662H350.554C349.868 206.662 349.471 207.439 349.872 207.995L352.526 211.673C352.862 212.138 353.554 212.138 353.89 211.673L356.544 207.995C356.945 207.439 356.548 206.662 355.862 206.662H353.208Z" fill="white"/>
<path d="M464.829 218.966H376.343C373.747 218.966 371.643 216.862 371.643 214.266V203.978C371.643 201.382 373.747 199.278 376.343 199.278H464.829C467.425 199.278 469.529 201.382 469.529 203.978V214.266C469.53 216.862 467.425 218.966 464.829 218.966Z" fill="white" stroke="#3E8879" stroke-width="1.5" stroke-miterlimit="10" stroke-linecap="round" stroke-linejoin="round"/>
<path d="M377.808 206.748V205.712H383.443V206.748H377.808ZM380.058 212.618V205.909H381.193V212.618H380.058Z" fill="#3E8879"/>
<path d="M384.685 212.668L382.664 207.883H383.857L385.238 211.395H384.892L386.353 207.883H387.556L385.357 212.668H384.685ZM383.274 214.592L384.745 211.563L385.357 212.668L384.477 214.592H383.274Z" fill="#3E8879"/>
<path d="M388.147 214.592V207.883H389.233V209.156L389.045 210.31L389.233 211.455V214.593H388.147V214.592ZM390.684 212.717C390.321 212.717 389.998 212.64 389.717 212.486C389.434 212.331 389.211 212.119 389.051 211.849C388.889 211.579 388.809 211.274 388.809 210.931V209.57C388.809 209.228 388.891 208.923 389.055 208.653C389.219 208.383 389.444 208.171 389.727 208.016C390.008 207.862 390.329 207.785 390.684 207.785C391.11 207.785 391.497 207.894 391.842 208.115C392.187 208.336 392.461 208.632 392.66 209.003C392.861 209.375 392.963 209.794 392.963 210.261C392.963 210.722 392.861 211.138 392.66 211.509C392.461 211.881 392.187 212.175 391.842 212.393C391.496 212.608 391.109 212.717 390.684 212.717ZM390.506 211.69C390.768 211.69 391 211.629 391.201 211.507C391.402 211.386 391.558 211.216 391.674 210.999C391.789 210.782 391.848 210.532 391.848 210.249C391.848 209.967 391.789 209.717 391.674 209.499C391.559 209.282 391.403 209.113 391.201 208.991C391 208.87 390.767 208.808 390.506 208.808C390.242 208.808 390.008 208.869 389.805 208.991C389.602 209.113 389.444 209.282 389.332 209.499C389.219 209.717 389.164 209.967 389.164 210.249C389.164 210.532 389.219 210.782 389.332 210.999C389.443 211.216 389.602 211.386 389.805 211.507C390.008 211.63 390.242 211.69 390.506 211.69Z" fill="#3E8879"/>
<path d="M396.07 212.717C395.595 212.717 395.17 212.611 394.793 212.397C394.414 212.183 394.115 211.888 393.895 211.513C393.674 211.139 393.565 210.718 393.565 210.25C393.565 209.783 393.672 209.364 393.889 208.992C394.108 208.621 394.401 208.326 394.774 208.109C395.145 207.892 395.557 207.784 396.012 207.784C396.452 207.784 396.842 207.886 397.18 208.09C397.52 208.294 397.785 208.573 397.979 208.928C398.174 209.283 398.27 209.688 398.27 210.142C398.27 210.221 398.266 210.302 398.256 210.384C398.246 210.466 398.231 210.556 398.211 210.655H394.324V209.766H397.648L397.244 210.121C397.23 209.832 397.176 209.588 397.076 209.391C396.978 209.194 396.838 209.042 396.656 208.938C396.476 208.832 396.254 208.78 395.99 208.78C395.715 208.78 395.474 208.839 395.271 208.958C395.066 209.076 394.908 209.242 394.796 209.456C394.685 209.67 394.628 209.925 394.628 210.221C394.628 210.517 394.689 210.777 394.806 211C394.925 211.224 395.093 211.396 395.31 211.519C395.527 211.64 395.777 211.701 396.06 211.701C396.302 211.701 396.529 211.659 396.736 211.573C396.943 211.488 397.119 211.363 397.263 211.198L397.954 211.898C397.724 212.168 397.444 212.372 397.114 212.51C396.787 212.648 396.438 212.717 396.07 212.717Z" fill="#3E8879"/>
<path d="M464.829 199.278H449.841V218.966H464.829C467.425 218.966 469.529 216.862 469.529 214.266V203.978C469.53 201.382 467.425 199.278 464.829 199.278Z" fill="#3E8879"/>
<path d="M459.686 206.662H457.032C456.346 206.662 455.949 207.439 456.35 207.995L459.004 211.673C459.34 212.138 460.032 212.138 460.367 211.673L463.021 207.995C463.422 207.439 463.025 206.662 462.339 206.662H459.686Z" fill="white"/>
<path d="M218.099 232.96V226.054H219.234V232.96H218.099ZM218.878 232.96V231.924H220.694C221.168 231.924 221.584 231.822 221.942 231.618C222.3 231.414 222.58 231.13 222.781 230.764C222.981 230.399 223.082 229.977 223.082 229.496C223.082 229.022 222.979 228.604 222.776 228.243C222.572 227.881 222.291 227.598 221.932 227.394C221.573 227.19 221.161 227.088 220.694 227.088H218.878V226.052H220.723C221.223 226.052 221.687 226.139 222.115 226.314C222.542 226.488 222.916 226.731 223.234 227.044C223.553 227.357 223.801 227.722 223.979 228.14C224.157 228.557 224.246 229.013 224.246 229.506C224.246 229.992 224.157 230.446 223.979 230.867C223.801 231.288 223.555 231.655 223.239 231.968C222.924 232.281 222.553 232.524 222.125 232.697C221.697 232.872 221.237 232.959 220.743 232.959H218.878V232.96Z" fill="#3E8879"/>
<path d="M227.451 233.058C226.977 233.058 226.552 232.952 226.174 232.738C225.796 232.524 225.496 232.229 225.277 231.854C225.056 231.48 224.946 231.059 224.946 230.591C224.946 230.124 225.054 229.705 225.271 229.333C225.489 228.962 225.783 228.667 226.155 228.45C226.526 228.233 226.939 228.125 227.393 228.125C227.833 228.125 228.223 228.227 228.562 228.431C228.901 228.635 229.166 228.914 229.361 229.269C229.555 229.624 229.652 230.029 229.652 230.483C229.652 230.562 229.647 230.643 229.637 230.725C229.627 230.807 229.613 230.897 229.593 230.996H225.705V230.107H229.03L228.626 230.462C228.612 230.173 228.557 229.929 228.458 229.732C228.359 229.535 228.22 229.383 228.038 229.279C227.857 229.174 227.636 229.121 227.372 229.121C227.097 229.121 226.856 229.181 226.652 229.299C226.448 229.417 226.29 229.583 226.178 229.797C226.066 230.011 226.01 230.266 226.01 230.562C226.01 230.858 226.069 231.118 226.188 231.341C226.306 231.565 226.474 231.737 226.691 231.86C226.909 231.981 227.158 232.042 227.441 232.042C227.684 232.042 227.91 232 228.117 231.914C228.324 231.829 228.5 231.704 228.645 231.539L229.335 232.239C229.105 232.509 228.825 232.713 228.496 232.851C228.167 232.989 227.819 233.058 227.451 233.058Z" fill="#3E8879"/>
<path d="M229.987 229.21V228.224H233.341V229.21H229.987ZM231.122 232.96V226.251H232.207V232.96H231.122Z" fill="#3E8879"/>
<path d="M235.975 233.058C235.547 233.058 235.161 232.95 234.816 232.733C234.47 232.515 234.198 232.221 233.997 231.849C233.797 231.478 233.696 231.062 233.696 230.601C233.696 230.134 233.797 229.715 233.997 229.343C234.198 228.972 234.471 228.676 234.816 228.455C235.161 228.234 235.547 228.125 235.975 228.125C236.336 228.125 236.658 228.202 236.937 228.356C237.216 228.51 237.439 228.723 237.603 228.993C237.767 229.263 237.85 229.568 237.85 229.91V231.271C237.85 231.614 237.769 231.919 237.608 232.189C237.447 232.459 237.225 232.671 236.942 232.826C236.659 232.981 236.336 233.058 235.975 233.058ZM236.153 232.032C236.554 232.032 236.878 231.897 237.125 231.628C237.372 231.358 237.495 231.013 237.495 230.592C237.495 230.31 237.439 230.06 237.327 229.842C237.215 229.625 237.059 229.456 236.858 229.334C236.658 229.213 236.422 229.151 236.153 229.151C235.889 229.151 235.658 229.213 235.458 229.334C235.257 229.456 235.099 229.625 234.984 229.842C234.869 230.06 234.811 230.31 234.811 230.592C234.811 230.875 234.869 231.125 234.984 231.342C235.098 231.559 235.256 231.729 235.458 231.85C235.658 231.971 235.889 232.032 236.153 232.032ZM237.425 232.96V231.687L237.613 230.533L237.425 229.388V228.224H238.51V232.959H237.425V232.96Z" fill="#3E8879"/>
<path d="M240.268 227.356C240.083 227.356 239.931 227.293 239.809 227.168C239.688 227.043 239.626 226.888 239.626 226.704C239.626 226.519 239.687 226.365 239.809 226.24C239.931 226.115 240.083 226.052 240.268 226.052C240.458 226.052 240.614 226.115 240.732 226.24C240.85 226.365 240.91 226.519 240.91 226.704C240.91 226.888 240.85 227.043 240.732 227.168C240.614 227.294 240.459 227.356 240.268 227.356ZM239.725 232.96V228.225H240.811V232.96H239.725Z" fill="#3E8879"/>
<path d="M242.023 232.96V225.856H243.109V232.96H242.023Z" fill="#3E8879"/>
<path d="M245.861 233.058C245.598 233.058 245.345 233.024 245.102 232.954C244.858 232.885 244.634 232.786 244.431 232.658C244.227 232.53 244.049 232.374 243.898 232.189L244.588 231.499C244.752 231.689 244.942 231.833 245.155 231.928C245.369 232.024 245.61 232.072 245.88 232.072C246.123 232.072 246.307 232.036 246.432 231.964C246.557 231.892 246.62 231.786 246.62 231.648C246.62 231.503 246.561 231.392 246.443 231.313C246.324 231.234 246.172 231.167 245.984 231.111C245.796 231.055 245.599 230.998 245.392 230.938C245.184 230.878 244.987 230.798 244.799 230.696C244.611 230.595 244.459 230.455 244.341 230.277C244.222 230.099 244.163 229.869 244.163 229.587C244.163 229.284 244.233 229.024 244.375 228.808C244.517 228.59 244.717 228.423 244.977 228.304C245.237 228.186 245.547 228.127 245.91 228.127C246.292 228.127 246.629 228.194 246.922 228.329C247.214 228.464 247.459 228.666 247.656 228.935L246.966 229.625C246.828 229.454 246.67 229.326 246.492 229.24C246.314 229.155 246.11 229.112 245.881 229.112C245.663 229.112 245.496 229.145 245.377 229.211C245.259 229.276 245.2 229.372 245.2 229.497C245.2 229.629 245.259 229.73 245.377 229.803C245.496 229.875 245.648 229.938 245.836 229.991C246.024 230.044 246.221 230.101 246.428 230.164C246.636 230.227 246.833 230.312 247.021 230.42C247.209 230.529 247.361 230.674 247.479 230.854C247.598 231.035 247.657 231.27 247.657 231.559C247.657 232.02 247.496 232.385 247.174 232.655C246.851 232.923 246.414 233.058 245.861 233.058Z" fill="#3E8879"/>
<path d="M358.351 303.019H216.119C213.523 303.019 211.419 300.915 211.419 298.319V246.004C211.419 243.408 213.523 241.304 216.119 241.304H358.351C360.947 241.304 363.051 243.408 363.051 246.004V298.319C363.052 300.914 360.947 303.019 358.351 303.019Z" fill="white" stroke="#3E8879" stroke-width="1.5" stroke-miterlimit="10" stroke-linecap="round" stroke-linejoin="round"/>
<path d="M464.829 303.019H376.343C373.747 303.019 371.643 300.915 371.643 298.319V246.004C371.643 243.408 373.747 241.304 376.343 241.304H464.829C467.425 241.304 469.529 243.408 469.529 246.004V298.319C469.53 300.914 467.425 303.019 464.829 303.019Z" fill="white" stroke="#3E8879" stroke-width="1.5" stroke-miterlimit="10" stroke-linecap="round" stroke-linejoin="round"/>
<path d="M333.967 338.562H389.064C391.18 338.562 392.896 336.846 392.896 334.73V322.536C392.896 320.42 391.18 318.704 389.064 318.704H333.967C331.85 318.704 330.135 320.42 330.135 322.536V334.73C330.134 336.846 331.85 338.562 333.967 338.562Z" fill="#FF9799"/>
<path d="M350.013 332.716C349.492 332.716 349.011 332.625 348.567 332.444C348.124 332.263 347.735 332.009 347.403 331.679C347.071 331.351 346.813 330.967 346.629 330.53C346.445 330.092 346.353 329.621 346.353 329.115C346.353 328.608 346.446 328.137 346.629 327.699C346.814 327.261 347.069 326.882 347.399 326.559C347.728 326.237 348.115 325.985 348.558 325.804C349.002 325.623 349.484 325.532 350.003 325.532C350.556 325.532 351.048 325.621 351.478 325.799C351.909 325.977 352.286 326.22 352.608 326.529L351.572 327.574C351.387 327.377 351.166 327.222 350.906 327.111C350.646 326.999 350.345 326.943 350.003 326.943C349.701 326.943 349.423 326.994 349.17 327.095C348.916 327.198 348.699 327.344 348.519 327.534C348.338 327.725 348.197 327.955 348.094 328.225C347.992 328.495 347.942 328.791 347.942 329.114C347.942 329.442 347.993 329.742 348.094 330.012C348.197 330.282 348.338 330.512 348.519 330.702C348.7 330.893 348.916 331.041 349.17 331.146C349.423 331.251 349.701 331.303 350.003 331.303C350.358 331.303 350.668 331.247 350.931 331.136C351.194 331.024 351.421 330.869 351.612 330.672L352.658 331.718C352.323 332.027 351.939 332.27 351.508 332.447C351.076 332.627 350.578 332.716 350.013 332.716Z" fill="white"/>
<path d="M355.261 332.707C354.821 332.707 354.428 332.599 354.082 332.382C353.737 332.164 353.464 331.868 353.264 331.493C353.063 331.118 352.962 330.691 352.962 330.211C352.962 329.731 353.063 329.304 353.264 328.929C353.464 328.554 353.738 328.258 354.082 328.04C354.428 327.823 354.82 327.715 355.261 327.715C355.583 327.715 355.874 327.778 356.135 327.903C356.395 328.028 356.607 328.201 356.771 328.421C356.936 328.642 357.028 328.894 357.047 329.176V331.248C357.027 331.53 356.937 331.782 356.775 332.003C356.614 332.223 356.402 332.396 356.139 332.521C355.876 332.644 355.583 332.707 355.261 332.707ZM355.567 331.345C355.889 331.345 356.149 331.238 356.346 331.024C356.543 330.811 356.642 330.54 356.642 330.21C356.642 329.986 356.597 329.789 356.508 329.618C356.42 329.447 356.295 329.313 356.134 329.218C355.972 329.122 355.786 329.075 355.576 329.075C355.365 329.075 355.18 329.123 355.018 329.218C354.857 329.313 354.728 329.447 354.633 329.618C354.537 329.789 354.489 329.986 354.489 330.21C354.489 330.427 354.535 330.621 354.628 330.792C354.72 330.963 354.848 331.098 355.013 331.196C355.179 331.295 355.363 331.345 355.567 331.345ZM356.583 332.608V331.316L356.81 330.151L356.583 328.987V327.813H358.063V332.608H356.583Z" fill="white"/>
<path d="M359.129 332.608V327.813H360.638V332.608H359.129ZM362.296 332.608V329.875C362.296 329.626 362.218 329.423 362.064 329.269C361.91 329.115 361.714 329.037 361.477 329.037C361.313 329.037 361.167 329.071 361.043 329.141C360.918 329.21 360.818 329.309 360.746 329.437C360.674 329.565 360.638 329.711 360.638 329.876L360.056 329.59C360.056 329.216 360.138 328.887 360.303 328.604C360.467 328.322 360.696 328.103 360.989 327.948C361.282 327.794 361.612 327.717 361.98 327.717C362.335 327.717 362.65 327.801 362.922 327.969C363.195 328.136 363.41 328.359 363.568 328.634C363.726 328.91 363.804 329.213 363.804 329.542V332.61H362.296V332.608Z" fill="white"/>
<path d="M367.09 332.716C366.597 332.716 366.15 332.608 365.748 332.391C365.347 332.173 365.031 331.874 364.801 331.493C364.571 331.112 364.455 330.684 364.455 330.211C364.455 329.731 364.572 329.302 364.806 328.924C365.039 328.545 365.357 328.247 365.758 328.03C366.159 327.813 366.61 327.705 367.11 327.705C367.485 327.705 367.829 327.769 368.141 327.897C368.454 328.025 368.731 328.217 368.974 328.474L368.007 329.441C367.896 329.316 367.766 329.224 367.617 329.165C367.47 329.105 367.3 329.076 367.109 329.076C366.892 329.076 366.7 329.124 366.532 329.219C366.364 329.314 366.232 329.446 366.137 329.614C366.041 329.781 365.993 329.977 365.993 330.201C365.993 330.425 366.041 330.622 366.137 330.793C366.232 330.964 366.365 331.099 366.536 331.197C366.707 331.296 366.897 331.345 367.108 331.345C367.305 331.345 367.481 331.31 367.635 331.241C367.79 331.172 367.923 331.075 368.035 330.95L368.992 331.917C368.742 332.18 368.459 332.379 368.143 332.514C367.829 332.649 367.477 332.716 367.09 332.716Z" fill="white"/>
<path d="M371.914 332.716C371.394 332.716 370.933 332.61 370.528 332.396C370.123 332.182 369.806 331.884 369.576 331.502C369.346 331.121 369.23 330.69 369.23 330.21C369.23 329.73 369.343 329.301 369.571 328.923C369.798 328.544 370.105 328.246 370.493 328.029C370.882 327.812 371.319 327.704 371.806 327.704C372.28 327.704 372.698 327.806 373.059 328.01C373.421 328.214 373.705 328.497 373.912 328.859C374.119 329.22 374.223 329.635 374.223 330.102C374.223 330.187 374.218 330.278 374.208 330.373C374.198 330.468 374.18 330.578 374.154 330.703L370.02 330.713V329.677L373.512 329.667L372.861 330.102C372.854 329.826 372.812 329.597 372.733 329.416C372.654 329.235 372.537 329.097 372.382 329.001C372.228 328.906 372.038 328.858 371.815 328.858C371.579 328.858 371.373 328.912 371.199 329.021C371.024 329.129 370.889 329.282 370.795 329.479C370.699 329.676 370.651 329.917 370.651 330.2C370.651 330.483 370.702 330.724 370.804 330.925C370.906 331.126 371.05 331.28 371.238 331.389C371.426 331.498 371.647 331.552 371.904 331.552C372.141 331.552 372.354 331.511 372.546 331.429C372.736 331.347 372.904 331.223 373.049 331.059L373.878 331.887C373.641 332.163 373.355 332.371 373.02 332.509C372.684 332.647 372.315 332.716 371.914 332.716Z" fill="white"/>
<path d="M374.953 332.608V325.445H376.462V332.608H374.953Z" fill="white"/>
<path d="M410.6 338.562H465.697C467.813 338.562 469.529 336.846 469.529 334.73V322.536C469.529 320.42 467.813 318.704 465.697 318.704H410.6C408.484 318.704 406.768 320.42 406.768 322.536V334.73C406.768 336.846 408.484 338.562 410.6 338.562Z" fill="#3E8879"/>
<path d="M429.826 332.716C429.254 332.716 428.762 332.622 428.35 332.435C427.938 332.248 427.563 331.963 427.221 331.581L428.227 330.585C428.451 330.842 428.699 331.04 428.972 331.182C429.244 331.324 429.562 331.394 429.924 331.394C430.253 331.394 430.508 331.335 430.689 331.216C430.87 331.098 430.96 330.934 430.96 330.723C430.96 330.533 430.9 330.378 430.782 330.259C430.664 330.141 430.508 330.039 430.313 329.953C430.119 329.868 429.905 329.786 429.671 329.707C429.437 329.628 429.206 329.537 428.976 329.435C428.746 329.334 428.534 329.205 428.339 329.05C428.146 328.896 427.989 328.701 427.87 328.468C427.752 328.235 427.693 327.94 427.693 327.585C427.693 327.157 427.797 326.789 428.004 326.48C428.211 326.171 428.499 325.936 428.867 325.775C429.235 325.614 429.659 325.533 430.139 325.533C430.625 325.533 431.072 325.619 431.476 325.79C431.88 325.961 432.214 326.194 432.478 326.49L431.471 327.487C431.26 327.269 431.048 327.108 430.834 327.004C430.62 326.899 430.379 326.846 430.109 326.846C429.839 326.846 429.626 326.897 429.467 326.998C429.309 327.101 429.231 327.247 429.231 327.438C429.231 327.616 429.29 327.758 429.409 327.868C429.527 327.976 429.683 328.07 429.877 328.148C430.071 328.227 430.285 328.306 430.519 328.385C430.753 328.464 430.985 328.556 431.214 328.661C431.444 328.766 431.656 328.899 431.851 329.06C432.045 329.221 432.202 329.425 432.32 329.671C432.438 329.918 432.498 330.223 432.498 330.584C432.498 331.248 432.261 331.77 431.787 332.147C431.316 332.527 430.661 332.716 429.826 332.716Z" fill="white"/>
<path d="M435.32 332.706C434.88 332.706 434.487 332.598 434.141 332.381C433.796 332.163 433.523 331.867 433.323 331.492C433.122 331.117 433.021 330.69 433.021 330.21C433.021 329.73 433.122 329.303 433.323 328.928C433.523 328.553 433.797 328.257 434.141 328.039C434.487 327.822 434.879 327.714 435.32 327.714C435.642 327.714 435.933 327.777 436.194 327.902C436.454 328.027 436.666 328.2 436.83 328.42C436.995 328.641 437.087 328.893 437.106 329.175V331.247C437.086 331.529 436.996 331.781 436.835 332.002C436.674 332.222 436.462 332.395 436.199 332.52C435.935 332.644 435.643 332.706 435.32 332.706ZM435.628 331.345C435.95 331.345 436.209 331.238 436.406 331.024C436.603 330.811 436.702 330.54 436.702 330.211C436.702 329.987 436.657 329.79 436.568 329.619C436.48 329.448 436.355 329.314 436.194 329.22C436.032 329.124 435.846 329.076 435.636 329.076C435.425 329.076 435.24 329.124 435.078 329.22C434.917 329.315 434.788 329.448 434.693 329.619C434.597 329.79 434.55 329.987 434.55 330.211C434.55 330.428 434.596 330.622 434.689 330.793C434.781 330.964 434.909 331.099 435.074 331.197C435.238 331.295 435.424 331.345 435.628 331.345ZM436.643 332.607V331.315L436.87 330.15L436.643 328.986V327.812H438.123V332.607H436.643Z" fill="white"/>
<path d="M440.698 332.607L438.666 327.812H440.294L441.676 331.808H440.965L442.347 327.812H443.945L441.913 332.607H440.698Z" fill="white"/>
<path d="M446.727 332.716C446.207 332.716 445.746 332.61 445.341 332.396C444.937 332.182 444.619 331.884 444.389 331.503C444.159 331.122 444.043 330.691 444.043 330.211C444.043 329.731 444.156 329.302 444.384 328.924C444.611 328.545 444.918 328.247 445.306 328.03C445.695 327.813 446.132 327.705 446.619 327.705C447.093 327.705 447.511 327.807 447.872 328.011C448.234 328.215 448.519 328.498 448.726 328.86C448.933 329.221 449.037 329.636 449.037 330.103C449.037 330.188 449.032 330.279 449.022 330.374C449.012 330.469 448.994 330.579 448.968 330.704L444.834 330.714V329.678L448.326 329.668L447.675 330.103C447.668 329.827 447.626 329.598 447.547 329.417C447.468 329.236 447.351 329.098 447.196 329.002C447.042 328.907 446.852 328.859 446.629 328.859C446.393 328.859 446.187 328.913 446.013 329.022C445.838 329.13 445.703 329.283 445.609 329.48C445.513 329.677 445.465 329.918 445.465 330.201C445.465 330.484 445.516 330.725 445.618 330.926C445.72 331.127 445.864 331.281 446.052 331.39C446.24 331.499 446.461 331.553 446.718 331.553C446.955 331.553 447.168 331.512 447.36 331.43C447.551 331.348 447.718 331.224 447.863 331.06L448.692 331.888C448.455 332.164 448.168 332.372 447.834 332.51C447.496 332.647 447.128 332.716 446.727 332.716Z" fill="white"/>
<path d="M456.673 252.625H384.497V291.229H456.673V252.625Z" fill="white" stroke="#97AFFF" stroke-width="1.5" stroke-miterlimit="10" stroke-linecap="round" stroke-linejoin="round" stroke-dasharray="8 5"/>
<path d="M422.214 251.07H418.958V254.18H422.214V251.07Z" fill="white" stroke="#97AFFF" stroke-width="1.5" stroke-miterlimit="10" stroke-linecap="round" stroke-linejoin="round"/>
<path d="M458.302 251.07H455.046V254.18H458.302V251.07Z" fill="white" stroke="#97AFFF" stroke-width="1.5" stroke-miterlimit="10" stroke-linecap="round" stroke-linejoin="round"/>
<path d="M386.126 251.07H382.87V254.18H386.126V251.07Z" fill="white" stroke="#97AFFF" stroke-width="1.5" stroke-miterlimit="10" stroke-linecap="round" stroke-linejoin="round"/>
<path d="M384.57 273.482H384.425C383.566 273.482 382.87 272.786 382.87 271.927C382.87 271.068 383.566 270.372 384.425 270.372H384.57C385.429 270.372 386.125 271.068 386.125 271.927C386.125 272.786 385.429 273.482 384.57 273.482Z" fill="white" stroke="#97AFFF" stroke-width="1.5" stroke-miterlimit="10" stroke-linecap="round" stroke-linejoin="round"/>
<path d="M456.746 273.482H456.601C455.742 273.482 455.046 272.786 455.046 271.927C455.046 271.068 455.742 270.372 456.601 270.372H456.746C457.605 270.372 458.301 271.068 458.301 271.927C458.301 272.786 457.605 273.482 456.746 273.482Z" fill="white" stroke="#97AFFF" stroke-width="1.5" stroke-miterlimit="10" stroke-linecap="round" stroke-linejoin="round"/>
<path d="M422.214 289.674H418.958V292.784H422.214V289.674Z" fill="white" stroke="#97AFFF" stroke-width="1.5" stroke-miterlimit="10" stroke-linecap="round" stroke-linejoin="round"/>
<path d="M458.302 289.674H455.046V292.784H458.302V289.674Z" fill="white" stroke="#97AFFF" stroke-width="1.5" stroke-miterlimit="10" stroke-linecap="round" stroke-linejoin="round"/>
<path d="M386.126 289.674H382.87V292.784H386.126V289.674Z" fill="white" stroke="#97AFFF" stroke-width="1.5" stroke-miterlimit="10" stroke-linecap="round" stroke-linejoin="round"/>
<path d="M415.357 260.335H392.174V283.518H415.357V260.335Z" fill="white" stroke="#3E8879" stroke-width="1.5" stroke-miterlimit="10" stroke-linecap="round" stroke-linejoin="round"/>
<path d="M392.174 276.568L400.401 269.385L408.093 276.568" stroke="#3E8879" stroke-width="1.5" stroke-miterlimit="10" stroke-linecap="round" stroke-linejoin="round"/>
<path d="M404.788 273.482L408.663 270.372L415.357 275.936" stroke="#3E8879" stroke-width="1.5" stroke-miterlimit="10" stroke-linecap="round" stroke-linejoin="round"/>
<path d="M406.708 266.161C406.708 267.221 405.849 268.081 404.788 268.081C403.728 268.081 402.868 267.222 402.868 266.161C402.868 265.101 403.727 264.241 404.788 264.241C405.849 264.241 406.708 265.101 406.708 266.161Z" stroke="#3E8879" stroke-width="1.5" stroke-miterlimit="10" stroke-linecap="round" stroke-linejoin="round"/>
<path d="M425.814 283.519H448.997V260.336H425.814V283.519Z" fill="white" stroke="#3E8879" stroke-width="1.5" stroke-miterlimit="10" stroke-linecap="round" stroke-linejoin="round"/>
<path d="M432.614 276.067V267.866C432.614 266.811 433.75 266.146 434.67 266.663L442.299 270.951C443.258 271.49 443.232 272.88 442.253 273.382L434.624 277.295C433.706 277.766 432.614 277.099 432.614 276.067Z" stroke="#3E8879" stroke-width="1.5" stroke-miterlimit="10" stroke-linecap="round" stroke-linejoin="round"/>
<path d="M431.229 393.659H350.876V474.012H431.229V393.659Z" fill="#303030" stroke="#303030" stroke-width="1.5" stroke-miterlimit="10"/>
<path d="M454.862 393.659H374.509V474.012H454.862V393.659Z" fill="#3E8879" stroke="#303030" stroke-width="1.5" stroke-miterlimit="10"/>
<path d="M446.287 393.659H438.176V420.62H446.287V393.659Z" fill="#303030" stroke="#303030" stroke-width="1.5" stroke-miterlimit="10"/>
<path d="M150.665 393.659H70.3115V474.012H150.665V393.659Z" fill="#143642" stroke="#143642" stroke-width="1.5" stroke-miterlimit="10"/>
<path d="M174.297 393.659H93.9443V474.012H174.297V393.659Z" fill="#3E8879" stroke="#143642" stroke-width="1.5" stroke-miterlimit="10"/>
<path d="M165.722 393.659H157.611V420.62H165.722V393.659Z" fill="#143642" stroke="#143642" stroke-width="1.5" stroke-miterlimit="10"/>
<path d="M159.936 313.307H79.583V393.66H159.936V313.307Z" fill="#143642" stroke="#143642" stroke-width="1.5" stroke-miterlimit="10"/>
<path d="M183.569 313.307H103.216V393.66H183.569V313.307Z" fill="#3E8879" stroke="#143642" stroke-width="1.5" stroke-miterlimit="10"/>
<path d="M174.994 313.307H166.883V340.268H174.994V313.307Z" fill="#143642" stroke="#143642" stroke-width="1.5" stroke-miterlimit="10"/>
<path d="M173.147 226.546C178.463 230.822 183.451 234.015 187.731 233.796C192.627 233.546 195.416 230.047 198.407 226.487C204.714 218.982 210.894 210.064 213.412 207.197C213.591 206.993 213.767 206.831 213.943 206.662C215.908 204.884 217.899 205.473 221.24 203.508C222.496 202.769 223.658 201.644 224.803 200.535C225.008 200.878 225.283 201.078 225.574 201.176C226.018 201.691 226.654 201.759 227.124 201.672C227.799 201.547 228.363 201.088 228.831 200.586C229.713 199.641 230.37 198.487 230.733 197.246C230.97 196.433 231.081 195.553 230.833 194.743C230.585 193.933 230.061 193.648 229.727 193.579C230.325 192.482 230.377 191.164 229.914 190.153C229.451 189.142 229.074 188.509 228.2 188.388C228.733 187.315 228.664 186.583 228.158 185.684C227.536 184.576 226.222 184.274 224.863 184.4C226.561 182.885 228.425 181.557 230.412 180.448C231.35 179.925 232.93 178.814 232.46 177.505C232.15 176.641 231.567 176.003 229.465 176.326C227.478 176.631 225.652 177.634 223.916 178.599C222.145 179.583 220.559 180.752 218.952 181.985C217.344 183.219 216.349 184.155 215.002 185.043C213.702 185.899 213.296 185.125 213.507 183.789C213.776 182.086 214.837 180.229 214.603 178.521C214.561 178.212 214.449 177.417 214.127 177.149C213.529 176.649 213.029 176.582 212.532 176.707C211.032 177.081 210.206 179.53 209.603 180.583C208.805 181.974 207.939 183.33 207.337 184.823C206.563 186.744 205.92 189.354 205.572 191.399C205.145 193.909 202.873 196.176 201.071 197.894C198.592 200.257 191.273 205.165 186.568 208.219C181.834 202.085 168.464 184.884 165.698 182.272C162.932 179.66 157.378 177.898 152.708 178.303L154.562 211.798C154.563 211.795 165.48 220.379 173.147 226.546Z" fill="#753C40"/>
<path d="M213.944 206.662C215.909 204.884 217.9 205.473 221.241 203.508C222.497 202.769 223.659 201.644 224.804 200.535C225.009 200.878 225.284 201.078 225.575 201.176C226.019 201.691 226.655 201.759 227.125 201.672C227.8 201.547 228.364 201.088 228.832 200.586C229.714 199.641 230.371 198.487 230.734 197.246C230.971 196.433 231.082 195.553 230.834 194.743C230.586 193.933 230.062 193.648 229.728 193.579C230.326 192.482 230.378 191.164 229.915 190.153C229.452 189.142 229.075 188.509 228.201 188.388C228.734 187.315 228.665 186.583 228.159 185.684C227.537 184.576 226.223 184.274 224.864 184.4C226.562 182.885 228.426 181.557 230.413 180.448C231.351 179.925 232.931 178.814 232.461 177.505C232.151 176.641 231.568 176.003 229.466 176.326C227.479 176.631 225.653 177.634 223.917 178.599C222.146 179.583 220.56 180.752 218.953 181.985C217.345 183.219 216.35 184.155 215.003 185.043C213.703 185.899 213.297 185.125 213.508 183.789C213.777 182.086 214.838 180.229 214.604 178.521C214.562 178.212 214.45 177.417 214.128 177.149C213.53 176.649 213.03 176.582 212.533 176.707C211.033 177.081 210.207 179.53 209.604 180.583C208.806 181.974 207.94 183.33 207.338 184.823" stroke="#143642" stroke-width="1.5" stroke-miterlimit="10" stroke-linecap="round" stroke-linejoin="round"/>
<path d="M228.453 187.841C227.573 189.84 226.261 191.649 224.634 193.106C223.88 193.781 223.032 194.395 222.053 194.649C221.213 194.867 220.03 194.867 219.425 194.21C218.629 193.346 218.917 192.104 219.627 191.289C220.001 190.86 220.326 190.395 220.743 190.008C221.46 189.343 222 188.604 222.522 187.776" stroke="#143642" stroke-width="1.5" stroke-miterlimit="10" stroke-linecap="round" stroke-linejoin="round"/>
<path d="M229.726 193.579C228.907 194.893 227.86 195.971 226.639 197.064C225.885 197.739 225.037 198.353 224.058 198.607C223.218 198.825 222.035 198.825 221.43 198.168C220.634 197.304 220.93 196.44 221.64 195.626C222.014 195.197 222.145 194.923 222.562 194.536" stroke="#143642" stroke-width="1.5" stroke-miterlimit="10" stroke-linecap="round" stroke-linejoin="round"/>
<path d="M219.408 194.18C219.447 194.985 219.083 195.756 218.646 196.432C217.057 198.887 214.326 200.568 211.418 200.881" stroke="#143642" stroke-width="1.5" stroke-miterlimit="10" stroke-linecap="round" stroke-linejoin="round"/>
<path d="M174.147 190.267C167.01 181.632 164.164 179.289 159.166 177.597C154.168 175.905 149.398 175.149 143.274 173.543C142.658 179.131 127.201 183.379 119.391 174.205L101.747 180.642C101.747 180.642 93.9414 189.813 99.2384 207.909C99.8714 210.072 103.916 220.414 103.037 228.653C102.79 230.973 102.169 233.187 100.232 237.72C99.3794 239.718 98.4364 245.12 102.404 247.884C119.535 259.821 149.565 265.1 167.493 247.172C171.705 242.96 169.344 237.703 168.632 235.56C167.573 232.373 166.273 227.673 166.709 222.288C178.004 217.784 182.337 203.074 182.337 203.074C184.199 193.579 179.053 196.203 174.147 190.267Z" fill="#91EFDC" stroke="#143642" stroke-width="1.5" stroke-miterlimit="10" stroke-linecap="round" stroke-linejoin="round"/>
<path d="M168.632 235.561C167.452 232.01 165.965 226.583 166.924 220.42C170.829 206.905 174.484 202.078 160.442 187.777" stroke="#143642" stroke-width="1.5" stroke-miterlimit="10" stroke-linecap="round" stroke-linejoin="round"/>
<path d="M182.338 203.075C182.338 203.075 178.005 217.784 166.71 222.289L170.931 225.611C182.226 221.107 186.275 207.836 186.275 207.836L182.338 203.075Z" fill="#91EFDC" stroke="#143642" stroke-width="1.5" stroke-miterlimit="10" stroke-linecap="round" stroke-linejoin="round"/>
<path d="M133.282 173.747C134.329 173.745 135.47 173.5 136.391 172.985C136.602 172.867 138.558 170.954 138.198 170.816C140.434 171.673 143.035 171.522 145.156 170.411C147.277 169.3 148.883 167.248 149.452 164.922C151.269 165.148 153.116 165.373 154.923 165.079C156.731 164.785 158.526 163.894 159.49 162.338C160.194 161.202 160.395 159.767 160.03 158.481C161.509 159.246 163.133 159.79 164.798 159.81C166.463 159.83 168.173 159.285 169.36 158.117C170.547 156.949 171.123 155.123 170.601 153.542C170.252 154.385 169.229 154.857 168.34 154.65C167.451 154.443 166.761 153.628 166.621 152.726C166.336 150.901 168.15 149.027 169.101 147.647C170.218 146.027 171.228 144.232 171.361 142.226C171.539 139.532 169.928 136.807 167.481 135.664C170.077 135.017 171.237 131.627 170.338 129.31C169.777 127.864 168.681 126.693 167.521 125.663C167.981 127.023 167.389 128.663 166.166 129.415C164.529 130.422 162.608 129.644 161.548 128.211C159.837 125.899 161.19 122.95 160.97 120.375C160.751 117.813 159.536 115.326 157.582 113.643C154.978 111.399 151.158 110.665 147.908 111.784C144.873 106.197 137.216 106.516 132.738 110.064C131.615 108.183 129.207 107.486 127.017 107.47C124.927 107.454 122.777 107.94 121.102 109.189C119.427 110.438 118.307 112.531 118.557 114.606C115.953 113.317 112.698 113.139 110.195 114.613C107.692 116.087 106.246 119.375 107.299 122.083C105.02 121.5 102.473 122.345 100.882 124.078C99.2915 125.811 98.6615 128.335 99.1025 130.646C99.3155 131.763 99.8245 132.487 99.1525 133.56C98.6395 134.378 97.7005 134.962 96.7195 134.919C95.1785 134.852 93.8855 133.265 94.1325 131.742C92.8735 132.409 92.0595 133.839 92.1285 135.262C92.1975 136.685 93.1465 138.029 94.4645 138.571C92.9785 139.117 91.6895 140.214 90.9805 141.629C90.2715 143.044 90.1705 144.766 90.7775 146.228C91.7195 148.498 94.5115 150.069 94.0095 152.815C93.7665 154.142 92.7885 155.191 92.1095 156.357C91.1345 158.032 90.7685 160.096 91.3145 161.956C91.8595 163.816 93.3745 165.41 95.2605 165.858C96.8225 166.229 98.4675 165.823 99.9565 165.224C100.164 167.911 102.342 170.227 104.938 170.949C107.534 171.671 110.406 170.938 112.589 169.358C112.685 169.289 112.786 169.215 112.904 169.207C113.109 169.192 113.268 169.373 113.396 169.534C114.989 171.535 117.269 173.05 119.798 173.426C122.328 173.802 125.08 172.933 126.713 170.965C126.774 170.892 126.837 170.815 126.927 170.783C127.111 170.719 127.293 170.876 127.428 171.017C129.077 172.736 131.158 173.752 133.282 173.747Z" fill="#143642"/>
<path d="M131.847 161.615C144.728 161.538 155.11 151.502 155.036 139.2C154.963 126.898 144.461 116.988 131.58 117.065C118.699 117.142 108.317 127.178 108.39 139.48C108.464 151.782 118.966 161.692 131.847 161.615Z" fill="#143642"/>
<path d="M141.526 174.424L140.301 165.004C148.138 163.304 157.253 157.047 155.192 141.597C154.699 137.907 154.319 133.79 152.593 130.876C150.219 126.124 148.193 125.484 145.533 123.534C141.56 120.243 130.675 119.95 121.759 125.212C112.704 131.48 114.208 142.784 114.208 142.784C115.248 144.766 116.042 146.865 116.567 149.025C114.86 146.795 112.298 145.017 109.413 144.803C106.529 144.589 103.427 146.271 102.699 148.946C101.979 151.59 103.764 154.459 106.317 155.69C108.87 156.92 112.363 156.989 115.507 155.364L115.511 155.362C116.536 157.622 118.257 160.185 121.737 162.045L120.318 175.696C130.134 179.734 139.236 178.9 141.526 174.424Z" fill="#753C40"/>
<path d="M134.766 150.924C136.598 150.825 139.514 151.218 140.066 152.566C140.321 151.245 141.088 150.826 141.088 150.826C141.088 150.826 140.212 150.762 139.124 150.334C138.036 149.906 136.908 149.973 136 150.331C135.092 150.688 134.766 150.924 134.766 150.924Z" fill="#143642"/>
<path d="M135.62 150.246C135.357 150.361 135.107 150.503 134.874 150.67C134.614 150.856 134.54 151.155 134.823 151.362C134.948 151.454 135.104 151.494 135.256 151.524C136.224 151.716 137.225 151.579 138.193 151.389C138.42 151.344 138.664 151.286 138.809 151.106C138.949 150.933 138.942 150.702 138.84 150.512C138.739 150.324 138.518 150.248 138.323 150.169C137.848 149.976 137.326 149.901 136.816 149.942C136.404 149.974 136 150.08 135.62 150.246Z" fill="white"/>
<path d="M130.674 151.113C132.118 151.796 133.29 151.443 134.002 151.292C135.353 151.006 136.239 149.962 137.673 150.032C138.55 150.075 139.372 150.455 140.229 150.648C141.133 150.851 142.084 150.843 142.984 150.623" stroke="#143642" stroke-width="1.5" stroke-miterlimit="10" stroke-linecap="round" stroke-linejoin="round"/>
<path d="M141.458 150.83C140.68 151.015 140.158 151.566 140.082 152.361C140.07 152.481 140.06 152.798 140.005 152.906C139.912 153.092 139.806 153.196 139.446 153.337C137.97 153.914 134.907 154.404 132.987 151.616" stroke="#143642" stroke-width="1.5" stroke-miterlimit="10" stroke-linecap="round" stroke-linejoin="round"/>
<path d="M105.352 150.128C106.641 149.059 108.516 148.676 110.149 149.15C111.782 149.623 113.117 150.937 113.564 152.51" stroke="#143642" stroke-width="1.5" stroke-miterlimit="10" stroke-linecap="round" stroke-linejoin="round"/>
<path d="M108.467 151.796C108.999 151.292 109.725 151.01 110.463 150.885C111.2 150.76 111.955 150.782 112.703 150.81" stroke="#143642" stroke-width="1.5" stroke-miterlimit="10" stroke-linecap="round" stroke-linejoin="round"/>
<path d="M136.041 137.008C136.441 138.362 137.652 139.62 138.607 140.638C139.149 141.216 139.733 141.769 140.143 142.448C140.702 143.372 140.215 144.823 137.746 146.542" stroke="#143642" stroke-width="1.5" stroke-miterlimit="10" stroke-linecap="round" stroke-linejoin="round"/>
<path d="M150.69 138.257C149.804 136.665 147.886 135.715 146.01 135.938C144.134 136.161 141.656 137.563 141.689 140.242C142.895 142.704 148.908 142.31 150.69 138.257Z" fill="white"/>
<path d="M141.042 140.397C140.15 137.555 142.912 134.918 145.143 134.068C147.552 133.15 151.014 133.236 151.917 136.294C151.739 136.726 150.531 137.39 150.531 137.39C150.531 137.39 149.092 134.9 145.439 136.155C141.786 137.41 141.042 140.397 141.042 140.397Z" fill="#91EFDC"/>
<path d="M148.892 140.071C148.506 141.419 147.046 142.192 145.633 141.797C144.22 141.402 143.387 139.989 143.773 138.641C144.159 137.293 145.619 136.52 147.032 136.915C148.446 137.31 149.279 138.723 148.892 140.071Z" fill="#143642"/>
<path d="M143.58 138.603L146.333 139.356L143.476 140.062L143.58 138.603Z" fill="white"/>
<path d="M141.689 140.242C142.477 137.852 144.138 136.992 145.756 136.523C147.531 136.009 148.96 136.251 150.645 137.617" stroke="#143642" stroke-width="1.5" stroke-miterlimit="10" stroke-linecap="round" stroke-linejoin="round"/>
<path d="M152.208 136.191C152 136.896 151.367 137.457 150.642 137.578" stroke="#143642" stroke-width="1.5" stroke-miterlimit="10" stroke-linecap="round" stroke-linejoin="round"/>
<path d="M142.223 130.895C144.899 130.274 147.545 130.866 149.637 132.312" stroke="#143642" stroke-width="1.5" stroke-miterlimit="10" stroke-linecap="round" stroke-linejoin="round"/>
<path d="M123.782 140.893C124.4 139.179 126.139 137.932 128.026 137.849C129.913 137.766 132.585 138.751 132.985 141.4C132.192 144.024 126.194 144.605 123.782 140.893Z" fill="white"/>
<path d="M133.615 141.31C133.935 138.348 130.71 136.302 128.356 135.905C125.814 135.476 122.435 136.236 122.147 139.412C122.405 139.801 123.72 140.216 123.72 140.216C123.72 140.216 124.644 137.493 128.473 138.01C132.301 138.526 133.615 141.31 133.615 141.31Z" fill="#91EFDC"/>
<path d="M130.917 141.989C130.503 143.329 129.028 144.071 127.623 143.647C126.218 143.223 125.415 141.793 125.829 140.453C126.243 139.113 127.718 138.371 129.123 138.795C130.528 139.219 131.331 140.649 130.917 141.989Z" fill="#143642"/>
<path d="M125.635 140.411L128.372 141.221L125.501 141.868L125.635 140.411Z" fill="white"/>
<path d="M132.987 141.401C131.824 139.17 130.046 138.588 128.373 138.386C126.539 138.165 125.167 138.634 123.725 140.254" stroke="#143642" stroke-width="1.5" stroke-miterlimit="10" stroke-linecap="round" stroke-linejoin="round"/>
<path d="M121.951 139.099C122.27 139.761 122.985 140.213 123.72 140.216" stroke="#143642" stroke-width="1.5" stroke-miterlimit="10" stroke-linecap="round" stroke-linejoin="round"/>
<path d="M130.421 131.881C127.09 131.692 125.009 132.279 122.728 134.616" stroke="#143642" stroke-width="1.5" stroke-miterlimit="10" stroke-linecap="round" stroke-linejoin="round"/>
<path d="M128.031 164.198C128.031 164.198 133.624 165.999 140.299 165.004L140.704 168.116C138.102 168.416 130.425 168.18 128.031 164.198Z" fill="#143642"/>
<path d="M124.313 120.584C124.417 109.595 137.3 107.961 141.088 113.949C144.545 119.413 146.579 117.835 152.208 119.34C157.858 120.85 159.671 126.2 157.487 132.312C155.865 136.852 156.865 138.727 160.39 139.099C160.39 139.099 156.941 142.941 153.42 140.062C150.913 138.012 151.72 134.987 151.77 132.178C151.794 130.847 151.464 129.513 150.473 128.572C148.986 127.16 147.317 127.494 145.929 127.587C144.08 127.711 142.922 127.94 141.442 127.568C139.705 127.131 138.827 126.062 137.8 124.595C136.48 122.711 135.234 121.323 132.789 121.407C130.31 121.492 128.384 123.072 127.534 125.481C124.458 124.149 121.874 125.268 121.015 126.019C118.456 128.256 119.966 130.947 120.633 133.674C120.976 135.078 121.105 136.588 120.612 137.947C120.159 139.196 119.211 140.219 118.117 140.971C117.023 141.724 115.781 142.23 114.538 142.698C113.271 143.174 112.742 144.337 112.287 145.551C112.287 145.551 107.72 143.716 107.186 137.577C106.652 131.438 113.147 134.909 112.703 129.035C112.259 123.161 114.026 115.869 124.313 120.584Z" fill="#143642"/>
<path d="M141.089 113.949C144.546 119.413 146.58 117.835 152.209 119.34C157.859 120.85 159.672 126.2 157.488 132.312C155.866 136.852 156.866 138.727 160.391 139.099C160.391 139.099 159.056 141.988 154.846 141.714" stroke="#753C40" stroke-width="1.5" stroke-miterlimit="10" stroke-linecap="round" stroke-linejoin="round"/>
<path d="M121.266 166.577C119.659 166.67 118.057 167.663 118.057 170.637C118.057 173.108 116.484 174.018 117.04 176.572C117.616 179.22 122.414 182.035 131.177 182.261C138.66 182.454 144.651 179.089 145.433 175.806C146.083 173.075 144.45 171.628 144.116 169.902C143.782 168.176 143.408 166.619 140.705 166.619L140.825 169.742C140.825 169.742 139.508 172.051 131.185 172.051C122.862 172.051 120.968 169.288 120.968 169.288L121.266 166.577Z" fill="#91EFDC" stroke="#143642" stroke-width="1.5" stroke-miterlimit="10" stroke-linecap="round" stroke-linejoin="round"/>
<path d="M159.343 239.238L173.851 239.254C175.341 239.255 176.971 238.092 177.492 236.656L188.809 205.488C189.33 204.051 188.546 202.886 187.056 202.884L172.547 202.868C171.057 202.866 169.427 204.029 168.906 205.466L157.589 236.633C157.068 238.07 157.853 239.236 159.343 239.238Z" fill="#3E8879"/>
<path d="M162.356 239.241L176.864 239.257C178.354 239.259 179.984 238.096 180.505 236.659L191.822 205.491C192.343 204.055 191.559 202.889 190.069 202.887L175.561 202.871C174.071 202.869 172.441 204.033 171.92 205.469L160.603 236.636C160.082 238.074 160.867 239.239 162.356 239.241Z" fill="#143642"/>
<path d="M172.29 211.914L175.277 211.917C175.496 211.917 175.735 211.746 175.812 211.535L178.012 205.476C178.088 205.265 177.973 205.094 177.755 205.094L174.768 205.091C174.549 205.091 174.31 205.262 174.233 205.473L172.033 211.532C171.956 211.743 172.071 211.914 172.29 211.914Z" fill="#3E8879"/>
<path d="M174.536 206.904C174.35 207.446 174.679 207.887 175.272 207.888C175.865 207.889 176.497 207.449 176.683 206.907C176.869 206.364 176.54 205.924 175.947 205.923C175.354 205.922 174.722 206.361 174.536 206.904Z" fill="white"/>
<path d="M173.36 210.103C173.174 210.645 173.503 211.086 174.096 211.087C174.689 211.088 175.321 210.648 175.507 210.106C175.694 209.563 175.364 209.123 174.771 209.122C174.178 209.121 173.546 209.561 173.36 210.103Z" fill="white"/>
<path d="M103.51 236.386C98.0323 222.736 93.6433 214.497 90.6553 204.458C88.1893 196.173 88.8243 184.288 103.126 181.208C108.628 187.1 111.662 191.564 115.272 201.2L125.107 225.308C134.431 225.758 147.212 226.063 150.931 225.666C157.133 225.004 158.683 219.31 164.556 217.45L162.804 222.274C162.441 223.667 164.026 224.065 165.08 224.299C168.121 224.976 171.251 225.498 174.344 225.12C176.096 224.906 177.867 224.405 179.598 224.748C180.064 224.84 180.56 225.025 180.795 225.438C182.337 228.148 174.667 229.737 170.938 230.084C169.709 230.198 168.57 230.155 167.473 230.26C166.804 230.324 166.888 230.838 167.476 230.99C168.58 231.275 171.893 231.458 173.875 231.332C176.093 231.191 177.816 230.868 179.97 230.318C180.76 230.116 181.673 229.915 182.49 229.96C182.664 229.97 182.84 229.987 183.006 230.039C183.396 230.162 183.713 230.478 183.868 230.857C184.237 231.757 183.752 232.901 183.121 233.555C182.536 234.16 181.81 234.628 181.017 234.909C181.316 235.391 181.457 236.192 181.248 236.794C180.978 237.573 180.203 238.077 179.707 238.354C178.596 238.975 177.726 239.282 176.854 239.416C177.473 241.004 176.94 242.273 175.527 242.823C174.031 243.405 172.103 243.485 170.271 243.503C167.242 243.532 164.634 243.609 160.855 243.106C158.359 242.774 154.663 242.632 152.15 242.781C146.833 243.097 132.12 246.421 120.677 247.436C111.988 248.208 107.544 246.437 103.51 236.386Z" fill="#753C40"/>
<path d="M125.151 224.876C122.058 225.196 118.134 226.898 115.888 229.404" stroke="#143642" stroke-width="1.5" stroke-miterlimit="10" stroke-linecap="round" stroke-linejoin="round"/>
<path d="M167.98 236.792C171.016 237.125 174.152 236.838 177.152 236.322C179.39 235.938 182.055 235.362 183.749 233.719C184.519 232.972 184.935 231.926 184.569 230.874C184.277 230.036 183.63 229.397 182.778 229.143C181.679 228.815 180.438 229.059 179.359 229.344C178.213 229.646 177.093 229.937 175.915 230.091C173.085 230.461 169.99 230.579 167.211 229.829C166.278 229.577 165.88 231.024 166.812 231.275C169.036 231.875 171.425 231.92 173.712 231.791C174.915 231.723 176.117 231.593 177.304 231.384C178.378 231.195 179.403 230.837 180.47 230.622C181.145 230.486 182.141 230.319 182.732 230.755C183.268 231.151 183.342 231.904 182.881 232.457C182.364 233.078 181.551 233.492 180.815 233.793C179.66 234.266 178.419 234.561 177.196 234.794C174.2 235.364 171.022 235.623 167.982 235.29C167.022 235.187 167.029 236.688 167.98 236.792Z" fill="#143642"/>
<path d="M177.84 238.534C174.867 239.302 171.751 239.632 168.689 239.336C168.285 239.297 167.939 239.709 167.939 240.086C167.939 240.524 168.284 240.797 168.689 240.836C171.875 241.145 175.147 240.78 178.239 239.981C179.173 239.739 178.777 238.292 177.84 238.534Z" fill="#143642"/>
<path d="M103.147 180.169C96.4242 182.393 90.9592 187.154 89.5352 193.879C88.1112 200.604 90.6332 205.695 92.2602 212.795C92.7272 214.832 90.6422 217.966 96.4182 220.339C100.191 213.582 112.686 209.553 119.104 210.613C121.287 207.181 120.459 206.08 117.532 202.441C115.346 199.724 115.432 196.426 114.726 193.579" fill="#91EFDC"/>
<path d="M103.147 180.169C96.4242 182.393 90.9592 187.154 89.5352 193.879C88.1112 200.604 90.6332 205.695 92.2602 212.795C92.7272 214.832 90.6422 217.966 96.4182 220.339C100.191 213.582 112.686 209.553 119.104 210.613C121.287 207.181 120.459 206.08 117.532 202.441C115.346 199.724 115.432 196.426 114.726 193.579" stroke="#143642" stroke-width="1.5" stroke-miterlimit="10" stroke-linecap="round" stroke-linejoin="round"/>
<path d="M119.104 210.613C112.687 209.553 100.192 213.582 96.418 220.339L98.98 226.104C102.753 219.347 115.248 215.318 121.666 216.378L119.104 210.613Z" fill="#91EFDC"/>
<path d="M119.104 210.613C112.687 209.553 100.192 213.582 96.418 220.339L98.98 226.104C102.753 219.347 115.248 215.318 121.666 216.378L119.104 210.613Z" stroke="#143642" stroke-width="1.5" stroke-miterlimit="10" stroke-linecap="round" stroke-linejoin="round"/>
<path d="M246.485 452.481C247.639 454.154 249.536 457.364 247.731 460.252C246.976 461.46 242.75 464.647 234.504 461.899C229.544 460.246 224.931 459.658 219.441 453.514C213.483 446.846 208.661 437.798 202.063 431.763C199.736 429.635 195.164 425.428 193.347 422.851C191.88 420.77 190.992 417.895 192.064 414.638C193.644 409.839 199.119 406.111 202.543 402.396C205.221 399.49 206.064 395.428 206.526 391.933C206.911 389.019 207.998 373.917 209.02 366.578C210.075 359.006 211.888 349.527 214.47 342.287C217.553 333.641 221.343 327.639 221.343 327.639C221.343 327.639 217.022 326.479 201.482 322.979C172.845 316.529 143.369 311.673 128.71 295.222C115.613 280.524 118.433 261.637 118.812 252.76H177.768C204.772 265.071 242.386 285.906 252.184 293.592C261.782 301.121 267.867 308.537 263.125 325.478C261.089 332.751 257.924 341.091 245.297 369.86C242.17 376.984 239.903 383.807 237.413 391.178C234.42 400.037 230.5 407.879 230.794 416.884C230.893 419.92 234.011 433.126 238.403 439.587C240.209 442.248 244.435 449.509 246.485 452.481Z" fill="#AD6163"/>
<path d="M229.982 324.942C227.027 326.314 224.415 327.042 221.343 327.637" stroke="#143642" stroke-width="1.5" stroke-miterlimit="10" stroke-linecap="round" stroke-linejoin="round"/>
<path d="M207.185 380.621C205.781 380.585 204.869 381.174 204.518 385.343C204.337 387.486 204.178 390.701 202.86 393.966C201.312 397.803 196.887 400.882 190.498 406.628C185.054 411.524 188.057 417.69 192.023 422.929C195.989 428.168 201.859 431.041 204.39 434.591C206.921 438.14 212.317 445.475 214.794 449.355C217.271 453.235 224.004 460.765 233.62 463.519C239.313 465.15 245.632 464.372 247.405 462.595C249.178 460.818 250.819 456.934 246.631 451.579C242.443 446.224 237.806 437.84 236.247 433.462C232.64 423.332 231.435 415.577 232.413 410.769C233.392 405.962 234.702 403.407 235.876 400.378C237.05 397.349 240.063 392.869 237.434 391.567L235.869 394.271C235.869 394.271 230.481 396.695 218.882 393.078C207.283 389.461 206.896 383.44 206.896 383.44L207.185 380.621Z" fill="white" stroke="#143642" stroke-width="1.5" stroke-miterlimit="10" stroke-linecap="round" stroke-linejoin="round"/>
<path d="M245.36 467.762C249.611 462.924 249.637 459.049 244.526 450.583C241.416 445.432 239.907 442.19 238.318 436.617C237.193 432.67 236.211 426.844 235.473 421.74" stroke="#143642" stroke-width="1.5" stroke-miterlimit="10" stroke-linecap="round" stroke-linejoin="round"/>
<path d="M244.525 450.583C241.415 445.432 239.906 442.19 238.317 436.617C236.476 430.161 234.781 417.04 234.448 413.995C234.014 410.029 228.246 404.962 221.889 406.156C221.375 404.856 220.723 403.584 219.578 402.814C218.489 402.081 217.13 401.923 215.83 401.787C213.416 401.534 209.123 401.93 206.053 398.716C203.006 395.526 202.115 393.921 202.115 393.921C202.526 393.058 203.025 391.508 203.205 390.244C200.913 389.244 199.229 390.548 197.949 392.372C196.669 394.196 196.464 395.833 194.068 397.865C191.857 399.74 189.827 401.015 184.191 406.814C181.313 410.794 184.239 414.898 189.726 420.254C196.784 427.143 220.63 450.418 220.63 450.418C225.69 455.357 233.526 463.006 236.582 465.988C239.638 468.971 244.394 468.859 245.359 467.761C249.611 462.923 249.636 459.049 244.525 450.583Z" fill="#91EFDC"/>
<path d="M226.595 437.176C231.231 436.57 238.085 438.396 240.728 443.476" stroke="#143642" stroke-width="1.5" stroke-miterlimit="10" stroke-linecap="round" stroke-linejoin="round"/>
<path d="M237.556 433.552C234.729 432.741 232.447 433 229.185 433.827" stroke="#143642" stroke-width="1.5" stroke-miterlimit="10" stroke-linecap="round" stroke-linejoin="round"/>
<path d="M238.319 436.616C236.035 434.188 232.003 431.574 225.389 426.964" stroke="#143642" stroke-width="1.5" stroke-miterlimit="10" stroke-linecap="round" stroke-linejoin="round"/>
<path d="M235.875 425.872C233.048 425.061 231.184 425.216 227.922 426.043" stroke="#143642" stroke-width="1.5" stroke-miterlimit="10" stroke-linecap="round" stroke-linejoin="round"/>
<path d="M236.638 428.937C234.354 426.509 230.322 423.895 223.708 419.285" stroke="#143642" stroke-width="1.5" stroke-miterlimit="10" stroke-linecap="round" stroke-linejoin="round"/>
<path d="M234.779 417.795C231.952 416.984 229.087 417.641 225.825 418.468" stroke="#143642" stroke-width="1.5" stroke-miterlimit="10" stroke-linecap="round" stroke-linejoin="round"/>
<path d="M234.958 421.257C232.674 418.829 228.642 416.215 222.028 411.605" stroke="#143642" stroke-width="1.5" stroke-miterlimit="10" stroke-linecap="round" stroke-linejoin="round"/>
<path d="M195.582 396.246C195.392 397.508 195.428 399.322 195.861 400.6C196.728 403.156 198.627 405.359 201.031 406.598C204.818 408.55 209.604 408.139 213.045 410.658C215.548 412.49 216.832 415.519 217.888 418.427C219.839 423.801 222.383 432.759 222.03 434.612C221.677 436.465 218.85 440.576 216.125 444.538" stroke="#143642" stroke-width="1.5" stroke-miterlimit="10" stroke-linecap="round" stroke-linejoin="round"/>
<path d="M236.456 472.684C233.035 470.754 218.125 456 218.125 456C218.125 456 193.161 431.633 187.45 426.059C181.739 420.485 178.874 417.34 179.358 413.933C179.643 411.925 181.008 409.581 184.193 406.814C184.551 411.192 183.373 411.186 193.131 420.709C202.888 430.233 226.627 453.549 231.872 458.523C235.525 461.988 240.657 467.929 245.361 467.762C245.117 469.714 241.674 475.627 236.456 472.684Z" fill="white" stroke="#143642" stroke-width="1.5" stroke-miterlimit="10" stroke-linecap="round" stroke-linejoin="round"/>
<path d="M250.403 464.95C245.919 464.972 240.192 464.866 236.816 461.639C234.207 459.145 234.817 454.37 235.201 452.227C235.898 448.346 236.054 445.823 236.026 442.601C235.989 438.481 232.015 434.211 228.941 431.93C223.025 427.539 207.705 416.763 201.109 410.723C191.951 402.337 187.338 396.111 181.374 385.007C174.026 371.325 173.713 365.072 162.162 354.768C143.872 338.451 104.17 321.103 98.1392 293.13C93.3742 271.028 104.673 252.76 104.673 252.76H171.338C174.546 270.307 163.424 284.028 163.424 284.028C163.424 284.028 199.997 327.164 209.111 342.401C218.6 358.266 249.079 408.126 255.702 418.227C261.372 426.874 266.804 432.522 273.592 438.408C282.479 446.113 286.78 447.613 297.698 451.988C302.32 453.84 309.891 455.564 311.454 457.781C314.097 461.532 307.796 468.75 299.819 470.322C291.866 471.889 284.382 472.282 276.899 470.371C264.838 467.289 262.419 464.89 250.403 464.95Z" fill="#AD6163"/>
<path d="M220.161 426.17C219.082 428.323 221.242 430.111 224.485 432.319C227.142 434.128 228.243 434.83 229.47 436.276C231.441 438.599 232.087 441.467 232.413 446.44C232.503 447.823 234.794 452.175 234.617 454.499C234.44 456.822 234.291 459.954 237.019 462.306C239.747 464.658 245.178 465.658 248.995 465.439C252.811 465.22 260.552 465.917 263.201 466.784C265.851 467.652 278.214 472.047 285.731 472.149C293.249 472.251 300.323 471.643 305.904 468.442C311.485 465.241 312.427 461.57 312.489 459.783C312.551 457.996 311.806 456.125 306.688 454.498C301.57 452.872 292.557 449.697 287.149 446.907C281.741 444.117 273.993 438.575 268.508 433.283C263.023 427.991 261.061 422.821 259.507 419.62C257.953 416.418 257.035 411.003 252.348 411.924L253.815 414.768C253.815 414.768 250.65 420.48 240.756 424.538C228.485 429.571 224.087 428.387 224.087 428.387L220.161 426.17Z" fill="white" stroke="#143642" stroke-width="1.5" stroke-miterlimit="10" stroke-linecap="round" stroke-linejoin="round"/>
<path d="M304.306 450.617C298.224 448.99 294.734 447.641 289.492 444.593C283.42 441.061 272.622 432.401 270.16 430.347C266.955 427.672 258.931 428.037 255.005 433.55C253.674 432.943 252.26 432.458 250.838 432.707C249.485 432.944 248.346 433.812 247.268 434.652C245.265 436.213 242.316 439.626 237.67 439.431C233.058 439.237 230.518 438.58 230.518 438.58C230.001 437.558 229.246 436.702 227.925 435.52C226.386 436.284 226.6 438.225 226.959 440.528C227.318 442.831 228.351 444.215 228.019 447.485C227.713 450.503 227.108 452.937 227.066 461.398C227.784 466.486 232.968 467.458 240.99 467.514C251.31 467.586 286.174 467.83 286.174 467.83C293.573 467.882 305.029 467.962 309.497 467.993C313.965 468.024 317.469 464.489 317.4 462.962C317.094 456.23 314.302 453.291 304.306 450.617Z" fill="#91EFDC"/>
<path d="M227.764 434.276C226.942 434.904 226.244 435.655 225.984 436.685C225.741 437.644 225.887 438.636 226.046 439.595C226.206 440.566 226.37 441.524 226.64 442.472C226.893 443.36 227.172 444.246 227.276 445.168C227.446 446.68 227.195 448.199 227.003 449.698C226.833 451.025 226.685 452.354 226.584 453.689C226.389 456.254 226.331 458.828 226.317 461.4C226.312 462.365 227.812 462.367 227.817 461.4C227.838 457.727 227.965 454.056 228.414 450.408C228.552 449.286 228.734 448.162 228.808 447.033C228.941 444.996 228.342 443.213 227.872 441.27C227.632 440.278 227.432 439.216 227.366 438.197C227.295 437.099 227.631 436.253 228.522 435.573C229.278 434.993 228.531 433.69 227.764 434.276Z" fill="#143642"/>
<path d="M281.06 453.521C284.115 449.7 290.606 446.104 296.285 448.016" stroke="#143642" stroke-width="1.5" stroke-miterlimit="10" stroke-linecap="round" stroke-linejoin="round"/>
<path d="M286.694 442.836C283.974 444.276 282.442 446.127 280.583 449.118" stroke="#143642" stroke-width="1.5" stroke-miterlimit="10" stroke-linecap="round" stroke-linejoin="round"/>
<path d="M289.491 444.593C286.008 444.42 281.071 445.375 272.74 446.699" stroke="#143642" stroke-width="1.5" stroke-miterlimit="10" stroke-linecap="round" stroke-linejoin="round"/>
<path d="M279.854 438.265C277.134 439.705 275.842 441.174 273.983 444.165" stroke="#143642" stroke-width="1.5" stroke-miterlimit="10" stroke-linecap="round" stroke-linejoin="round"/>
<path d="M282.653 440.023C279.17 439.85 274.233 440.805 265.902 442.129" stroke="#143642" stroke-width="1.5" stroke-miterlimit="10" stroke-linecap="round" stroke-linejoin="round"/>
<path d="M273.167 432.972C270.447 434.412 268.764 436.986 266.905 439.977" stroke="#143642" stroke-width="1.5" stroke-miterlimit="10" stroke-linecap="round" stroke-linejoin="round"/>
<path d="M275.814 435.452C272.331 435.279 267.394 436.234 259.063 437.558" stroke="#143642" stroke-width="1.5" stroke-miterlimit="10" stroke-linecap="round" stroke-linejoin="round"/>
<path d="M227.982 445.168C228.755 446.257 230.098 447.599 231.352 448.248C233.86 449.545 236.89 449.829 239.601 449.019C243.872 447.743 247.182 443.96 251.604 443.363C254.82 442.928 257.986 444.279 260.892 445.706C266.262 448.342 274.68 453.249 275.758 454.902C276.836 456.555 277.688 461.705 278.509 466.669" stroke="#143642" stroke-width="1.5" stroke-miterlimit="10" stroke-linecap="round" stroke-linejoin="round"/>
<path d="M314.652 473.246C310.673 474.273 288.727 473.97 288.727 473.97C288.727 473.97 252.227 473.715 243.878 473.656C235.529 473.598 231.087 473.306 228.979 470.387C227.736 468.666 226.286 465.909 226.679 461.512C230.126 464.553 230.012 465.402 244.277 465.502C258.542 465.602 293.357 465.954 300.92 465.898C306.187 465.859 314.368 466.614 317.792 463.075C319.027 464.723 320.721 471.679 314.652 473.246Z" fill="white" stroke="#143642" stroke-width="1.5" stroke-miterlimit="10" stroke-linecap="round" stroke-linejoin="round"/>
<path d="M167.494 247.173C152.353 254.231 117.063 255.028 102.405 247.885C95.1118 269.755 93.4168 287.293 98.3178 300.041C105.223 318.001 117.862 327.364 132.582 337.135C143.766 344.559 160.522 354.664 166.377 361.799C172.232 368.933 173.556 374.876 179.918 387.621C185.204 398.211 195.935 409.433 212.012 420.561C237.909 413.788 242.993 396.995 242.993 396.995C242.993 396.995 221.755 361.069 213.899 348.515C206.043 335.961 203.486 331.655 195.845 322.459L219.303 328.801C213.403 338.799 209.092 353.588 207.897 371.935C215.558 377.702 231.119 382.494 241.413 381.415C241.413 381.415 252.904 354.48 258.41 341.552C263.916 328.624 271.057 310.058 257.093 296.589C235.473 275.733 167.494 247.173 167.494 247.173Z" fill="#143642"/>
<path d="M181.603 304.884C209.689 314.835 226.305 320.757 227.579 322.593C229.209 324.942 219.849 333.387 216.985 351.948" stroke="white" stroke-width="1.5" stroke-miterlimit="10" stroke-linecap="round" stroke-linejoin="round"/>
<path d="M219.304 328.8C225.282 322.356 233.35 319.611 239.113 319.666" stroke="white" stroke-width="1.5" stroke-miterlimit="10" stroke-linecap="round" stroke-linejoin="round"/>
<path d="M204.528 415.076C214.94 413.045 233.524 401.979 238.185 388.882" stroke="white" stroke-width="1.5" stroke-miterlimit="10" stroke-linecap="round" stroke-linejoin="round"/>
<path d="M211.654 343.551C213.39 346.73 234.869 382.039 234.869 382.039" stroke="white" stroke-width="1.5" stroke-miterlimit="10" stroke-linecap="round" stroke-linejoin="round"/>
<path d="M228.493 371.292C233.887 372.536 239.624 373.384 244.79 373.499" stroke="white" stroke-width="1.5" stroke-miterlimit="10" stroke-linecap="round" stroke-linejoin="round"/>
<path d="M176.165 270.279C175.551 276.602 172.811 281.059 168.147 284.569C167.247 285.247 166.5 285.685 166.377 286.156C166.162 286.979 166.903 287.731 167.195 288.083C174.352 296.708 189.265 313.549 197.567 323.442" stroke="white" stroke-width="1.5" stroke-miterlimit="10" stroke-linecap="round" stroke-linejoin="round"/>
<path d="M107.792 252.538C99.4195 286.463 104.831 297.521 116.664 311.931C123.016 319.666 137.45 328.681 149.436 335.915C161.882 343.426 170.521 349.482 175.724 359.616C180.927 369.75 191.138 395.238 211.934 412.677" stroke="white" stroke-width="1.5" stroke-miterlimit="10" stroke-linecap="round" stroke-linejoin="round"/>
<path d="M119.757 255.189C116.324 270.826 119.757 286.463 104.146 286.463" stroke="white" stroke-width="1.5" stroke-miterlimit="10" stroke-linecap="round" stroke-linejoin="round"/>
<path d="M268.89 507.64C375.972 507.64 462.78 502.572 462.78 496.32C462.78 490.068 375.972 485 268.89 485C161.808 485 75 490.068 75 496.32C75 502.572 161.808 507.64 268.89 507.64Z" fill="#F5F5F5"/>
</svg>
