<svg viewBox="0 0 24 24" fill="none" xmlns="http://www.w3.org/2000/svg">
<g clip-path="url(#clip0_668_6535)">
<path d="M13.5001 14.7826C14.6758 14.0503 15.581 12.955 16.0788 11.6625C16.5766 10.3699 16.6399 8.95037 16.2591 7.61864C15.8783 6.2869 15.0741 5.11543 13.9682 4.28144C12.8623 3.44746 11.5149 2.99634 10.1298 2.99634C8.74467 2.99634 7.39724 3.44746 6.29135 4.28144C5.18545 5.11543 4.38126 6.2869 4.00045 7.61864C3.61964 8.95037 3.68292 10.3699 4.18072 11.6625C4.67852 12.955 5.58375 14.0503 6.75947 14.7826C4.82353 15.4163 3.08165 16.6004 1.68103 18.2673C1.6154 18.3423 1.5654 18.4297 1.53394 18.5243C1.50247 18.6189 1.49019 18.7188 1.49779 18.8182C1.5054 18.9176 1.53274 19.0145 1.57823 19.1032C1.62371 19.1919 1.68643 19.2707 1.76271 19.3348C1.83898 19.399 1.92729 19.4474 2.02247 19.477C2.11764 19.5067 2.21778 19.5171 2.31702 19.5076C2.41625 19.4981 2.5126 19.4689 2.60043 19.4217C2.68826 19.3746 2.7658 19.3104 2.82853 19.2329C4.71103 16.9867 7.30415 15.7501 10.1251 15.7501C12.946 15.7501 15.5392 16.9867 17.4254 19.2329C17.5535 19.3853 17.7368 19.4806 17.9351 19.4979C18.1334 19.5151 18.3305 19.4528 18.4829 19.3248C18.6353 19.1967 18.7306 19.0134 18.7479 18.8151C18.7651 18.6167 18.7028 18.4197 18.5748 18.2673C17.1732 16.6004 15.4313 15.4163 13.5001 14.7826ZM5.25009 9.37509C5.25009 8.4109 5.53601 7.46837 6.07168 6.66668C6.60735 5.86499 7.36872 5.24015 8.25951 4.87117C9.1503 4.5022 10.1305 4.40566 11.0762 4.59376C12.0218 4.78186 12.8905 5.24616 13.5722 5.92794C14.254 6.60972 14.7183 7.47836 14.9064 8.42402C15.0945 9.36968 14.998 10.3499 14.629 11.2407C14.26 12.1315 13.6352 12.8928 12.8335 13.4285C12.0318 13.9642 11.0893 14.2501 10.1251 14.2501C8.83262 14.2486 7.59351 13.7345 6.67959 12.8206C5.76567 11.9067 5.25158 10.6676 5.25009 9.37509ZM23.6485 13.4129L23.2117 13.1607C23.2629 12.8894 23.2629 12.6108 23.2117 12.3395L23.6485 12.0873C23.7338 12.038 23.8086 11.9725 23.8686 11.8943C23.9286 11.8162 23.9726 11.727 23.9981 11.6318C24.0236 11.5367 24.0301 11.4374 24.0173 11.3398C24.0044 11.2421 23.9725 11.1479 23.9232 11.0626C23.874 10.9773 23.8084 10.9025 23.7303 10.8425C23.6521 10.7825 23.5629 10.7385 23.4678 10.713C23.3726 10.6875 23.2734 10.681 23.1757 10.6938C23.078 10.7067 22.9838 10.7387 22.8985 10.7879L22.4607 11.041C22.2512 10.8612 22.0103 10.7217 21.7501 10.6295V10.1251C21.7501 9.92618 21.6711 9.73541 21.5304 9.59476C21.3898 9.45411 21.199 9.37509 21.0001 9.37509C20.8012 9.37509 20.6104 9.45411 20.4698 9.59476C20.3291 9.73541 20.2501 9.92618 20.2501 10.1251V10.6295C19.9899 10.7217 19.749 10.8612 19.5395 11.041L19.1017 10.7879C19.0163 10.7387 18.9222 10.7067 18.8245 10.6938C18.7268 10.681 18.6276 10.6875 18.5324 10.713C18.4373 10.7385 18.3481 10.7825 18.2699 10.8425C18.1918 10.9025 18.1262 10.9773 18.077 11.0626C18.0277 11.1479 17.9958 11.2421 17.9829 11.3398C17.9701 11.4374 17.9766 11.5367 18.0021 11.6318C18.0276 11.727 18.0716 11.8162 18.1316 11.8943C18.1916 11.9725 18.2663 12.038 18.3517 12.0873L18.7885 12.3395C18.7373 12.6108 18.7373 12.8894 18.7885 13.1607L18.3517 13.4129C18.2663 13.4621 18.1916 13.5277 18.1316 13.6059C18.0716 13.684 18.0276 13.7732 18.0021 13.8684C17.9766 13.9635 17.9701 14.0627 17.9829 14.1604C17.9958 14.2581 18.0277 14.3523 18.077 14.4376C18.1262 14.5229 18.1918 14.5977 18.2699 14.6577C18.3481 14.7176 18.4373 14.7616 18.5324 14.7872C18.6276 14.8127 18.7268 14.8192 18.8245 14.8063C18.9222 14.7935 19.0163 14.7615 19.1017 14.7123L19.5395 14.4592C19.749 14.6389 19.9899 14.7785 20.2501 14.8707V15.3751C20.2501 15.574 20.3291 15.7648 20.4698 15.9054C20.6104 16.0461 20.8012 16.1251 21.0001 16.1251C21.199 16.1251 21.3898 16.0461 21.5304 15.9054C21.6711 15.7648 21.7501 15.574 21.7501 15.3751V14.8707C22.0103 14.7785 22.2512 14.6389 22.4607 14.4592L22.8985 14.7123C23.0124 14.7785 23.1418 14.8131 23.2735 14.8126C23.4387 14.8127 23.5992 14.7582 23.7303 14.6577C23.8613 14.5572 23.9555 14.4162 23.9983 14.2567C24.041 14.0972 24.0299 13.928 23.9667 13.7754C23.9034 13.6228 23.7916 13.4954 23.6485 13.4129ZM20.2501 12.7501C20.2501 12.6018 20.2941 12.4567 20.3765 12.3334C20.4589 12.2101 20.576 12.1139 20.7131 12.0572C20.8501 12.0004 21.0009 11.9856 21.1464 12.0145C21.2919 12.0434 21.4255 12.1149 21.5304 12.2198C21.6353 12.3246 21.7067 12.4583 21.7357 12.6038C21.7646 12.7493 21.7498 12.9001 21.693 13.0371C21.6362 13.1741 21.5401 13.2913 21.4168 13.3737C21.2934 13.4561 21.1484 13.5001 21.0001 13.5001C20.8012 13.5001 20.6104 13.4211 20.4698 13.2804C20.3291 13.1398 20.2501 12.949 20.2501 12.7501Z" fill="currentColor"/>
</g>
<defs>
<clipPath id="clip0_668_6535">
<rect width="24" height="24" fill="transparent"/>
</clipPath>
</defs>
</svg>
