<svg viewBox="0 0 24 24" fill="none" xmlns="http://www.w3.org/2000/svg">
<path d="M19.2698 12.4737C19.7021 12.4737 20.0564 12.8249 20.0167 13.2555C19.8869 14.6659 19.4071 16.0261 18.6157 17.2106C17.6788 18.6128 16.3472 19.7056 14.7892 20.351C13.2312 20.9963 11.5169 21.1652 9.86292 20.8362C8.20897 20.5072 6.68973 19.6951 5.4973 18.5027C4.30488 17.3103 3.49282 15.791 3.16383 14.1371C2.83484 12.4831 3.00369 10.7688 3.64903 9.2108C4.29437 7.65282 5.38721 6.32119 6.78935 5.38431C7.97385 4.59285 9.33414 4.11313 10.7445 3.98327C11.1751 3.94363 11.5263 4.29786 11.5263 4.73022C11.5263 5.16258 11.1747 5.50853 10.7451 5.55705C9.64485 5.68132 8.58611 6.06682 7.65922 6.68615C6.51455 7.45099 5.62239 8.53809 5.09556 9.80997C4.56873 11.0819 4.43089 12.4814 4.69946 13.8316C4.96804 15.1818 5.63097 16.4221 6.60443 17.3956C7.57789 18.369 8.81815 19.032 10.1684 19.3005C11.5186 19.5691 12.9181 19.4313 14.19 18.9044C15.4619 18.3776 16.549 17.4854 17.3138 16.3408C17.9332 15.4139 18.3187 14.3551 18.4429 13.2549C18.4915 12.8253 18.8374 12.4737 19.2698 12.4737Z" fill="currentColor"/>
<path d="M12.9618 5.01826C13.0443 3.91678 14.0179 3.0685 15.07 3.40485C16.343 3.81178 17.5117 4.51527 18.4743 5.46888C19.437 6.42249 20.1515 7.58451 20.5704 8.85353C20.9167 9.90242 20.0777 10.884 18.977 10.977L14.812 11.3288C13.5854 11.4324 12.5573 10.4139 12.6493 9.18638L12.9618 5.01826Z" fill="currentColor"/>
</svg>
