<svg  viewBox="0 0 24 24" fill="none" xmlns="http://www.w3.org/2000/svg">
<path fill-rule="evenodd" clip-rule="evenodd" d="M9.40171 9.39593C9.07144 9.72955 9.07144 10.2705 9.40171 10.6041L13.3615 14.6041C13.6918 14.9377 14.2272 14.9377 14.5575 14.6041C14.8878 14.2705 14.8878 13.7295 14.5575 13.3959L10.5977 9.39593C10.2674 9.06231 9.73197 9.06231 9.40171 9.39593Z" fill="currentColor"/>
<path fill-rule="evenodd" clip-rule="evenodd" d="M14.5973 9.39593C14.9276 9.72955 14.9276 10.2705 14.5973 10.6041L10.6375 14.6041C10.3073 14.9377 9.77179 14.9377 9.44152 14.6041C9.11126 14.2705 9.11126 13.7295 9.44152 13.3959L13.4013 9.39593C13.7316 9.06231 14.2671 9.06231 14.5973 9.39593Z" fill="currentColor"/>
<path fill-rule="evenodd" clip-rule="evenodd" d="M12.0004 4.85C8.05156 4.85 4.85039 8.05117 4.85039 12C4.85039 15.9488 8.05156 19.15 12.0004 19.15C15.9492 19.15 19.1504 15.9488 19.1504 12C19.1504 8.05117 15.9492 4.85 12.0004 4.85ZM3.15039 12C3.15039 7.11228 7.11267 3.15 12.0004 3.15C16.8881 3.15 20.8504 7.11228 20.8504 12C20.8504 16.8877 16.8881 20.85 12.0004 20.85C7.11267 20.85 3.15039 16.8877 3.15039 12Z" fill="currentColor"/>
</svg>
