<svg viewBox="0 0 21 21" fill="none" xmlns="http://www.w3.org/2000/svg">
<g clip-path="url(#clip0_7608_68563)">
<path fill-rule="evenodd" clip-rule="evenodd" d="M6.67166 8.87187C7.00561 7.34835 8.3641 6.20841 9.98718 6.20841C11.5686 6.20841 12.899 7.29053 13.2751 8.75574C13.3582 9.0795 13.6563 9.30111 13.9903 9.28738C14.0232 9.28602 14.0564 9.28534 14.0897 9.28534C15.3979 9.28534 16.4583 10.3458 16.4583 11.6539C16.4583 12.9621 15.3979 14.0225 14.0897 14.0225H12.2949H12.1667V15.4392H12.2949H14.0897C16.1803 15.4392 17.875 13.7445 17.875 11.6539C17.875 9.69641 16.3891 8.08594 14.4837 7.88892C13.7932 6.07842 12.0412 4.79175 9.98718 4.79175C7.82215 4.79175 5.99247 6.22127 5.38801 8.18743C4.05606 8.77318 3.125 10.104 3.125 11.6539C3.125 13.7445 4.81972 15.4392 6.91026 15.4392H8.70513H8.83333V14.0225H8.70513H6.91026C5.60212 14.0225 4.54167 12.9621 4.54167 11.6539C4.54167 10.5965 5.23505 9.69924 6.19373 9.39545C6.43519 9.31893 6.61742 9.1193 6.67166 8.87187Z" fill="currentColor"/>
<path fill-rule="evenodd" clip-rule="evenodd" d="M10.4993 11.4453C10.1081 11.4453 9.79102 11.7624 9.79102 12.1536L9.79102 18.8203C9.79102 19.2115 10.1081 19.5286 10.4993 19.5286C10.8906 19.5286 11.2077 19.2115 11.2077 18.8203L11.2077 12.1536C11.2077 11.7624 10.8906 11.4453 10.4993 11.4453Z" fill="currentColor"/>
<path fill-rule="evenodd" clip-rule="evenodd" d="M7.49891 16.6544C7.22229 16.931 7.22229 17.3795 7.49891 17.6561L9.42117 19.5784C10.0232 20.1805 10.9994 20.1805 11.6014 19.5784L13.5138 17.666C13.7904 17.3894 13.7904 16.9409 13.5138 16.6643C13.2372 16.3877 12.7887 16.3877 12.5121 16.6643L10.5997 18.5767C10.5509 18.6255 10.4717 18.6255 10.4229 18.5767L8.50065 16.6544C8.22403 16.3778 7.77554 16.3778 7.49891 16.6544Z" fill="currentColor"/>
</g>
<defs>
<clipPath id="clip0_7608_68563">
<rect width="20" height="20" fill="none" transform="translate(0.5 0.5)"/>
</clipPath>
</defs>
</svg>
