<svg viewBox="0 0 24 24" fill="none" xmlns="http://www.w3.org/2000/svg">
<path fill-rule="evenodd" clip-rule="evenodd" d="M12.8579 5.24462C14.2092 3.89331 16.4001 3.89331 17.7515 5.24462C19.1028 6.59593 19.1028 8.78684 17.7515 10.1382L9.76498 18.1246C9.24034 18.6493 8.53178 18.9486 7.7899 18.9591L5.88604 18.9859C4.84399 19.0006 3.99546 18.1521 4.01015 17.11L4.03698 15.2062C4.04744 14.4643 4.3468 13.7557 4.87145 13.2311L12.8579 5.24462ZM16.5494 6.4467C15.862 5.75928 14.7474 5.75928 14.06 6.4467L6.07353 14.4332C5.86183 14.6449 5.74103 14.9308 5.73681 15.2301L5.70998 17.134C5.70879 17.2185 5.77759 17.2873 5.86208 17.2861L7.76594 17.2593C8.06529 17.255 8.3512 17.1342 8.5629 16.9225L16.5494 8.93607C17.2368 8.24865 17.2368 7.13412 16.5494 6.4467Z" fill="currentColor"/>
<path fill-rule="evenodd" clip-rule="evenodd" d="M15.3053 10.769L12.2298 7.69211L13.4316 6.48975L16.5071 9.56667L15.3053 10.769Z" fill="currentColor"/>
<path fill-rule="evenodd" clip-rule="evenodd" d="M12.3047 18.8153C12.3047 18.3459 12.6852 17.9653 13.1547 17.9653H20.1535C20.623 17.9653 21.0035 18.3459 21.0035 18.8153C21.0035 19.2848 20.623 19.6653 20.1535 19.6653H13.1547C12.6852 19.6653 12.3047 19.2848 12.3047 18.8153Z" fill="currentColor"/>
</svg>
