<svg viewBox="0 0 24 24" fill="none" xmlns="http://www.w3.org/2000/svg">
<path fill-rule="evenodd" clip-rule="evenodd" d="M12.3979 11.2752C12.066 10.9432 12.066 10.405 12.3979 10.0731L18.0548 4.41624C18.3867 4.08429 18.9249 4.08429 19.2569 4.41624C19.5888 4.74818 19.5888 5.28638 19.2569 5.61832L13.6 11.2752C13.2681 11.6071 12.7299 11.6071 12.3979 11.2752Z" fill="currentColor"/>
<path fill-rule="evenodd" clip-rule="evenodd" d="M14.2734 4.30874C14.2734 3.8393 14.654 3.45874 15.1234 3.45874L18.3856 3.45874C19.4073 3.45874 20.2356 4.28701 20.2356 5.30874L20.2356 8.55414C20.2356 9.02359 19.8551 9.40414 19.3856 9.40414C18.9162 9.40414 18.5356 9.02359 18.5356 8.55414L18.5356 5.30874C18.5356 5.2259 18.4685 5.15874 18.3856 5.15874L15.1234 5.15874C14.654 5.15874 14.2734 4.77818 14.2734 4.30874Z" fill="currentColor"/>
<path fill-rule="evenodd" clip-rule="evenodd" d="M9.00039 4.85002C7.26069 4.85002 5.85039 6.26033 5.85039 8.00002V15C5.85039 16.7397 7.26069 18.15 9.00039 18.15H16.0004C17.7401 18.15 19.1504 16.7397 19.1504 15V11.4286C19.1504 10.9592 19.5309 10.5786 20.0004 10.5786C20.4698 10.5786 20.8504 10.9592 20.8504 11.4286V15C20.8504 17.6786 18.679 19.85 16.0004 19.85H9.00039C6.32181 19.85 4.15039 17.6786 4.15039 15V8.00002C4.15039 5.32144 6.32181 3.15002 9.00039 3.15002H11.8218C12.2913 3.15002 12.6718 3.53058 12.6718 4.00002C12.6718 4.46947 12.2913 4.85002 11.8218 4.85002H9.00039Z" fill="currentColor"/>
</svg>
