<svg  viewBox="0 0 24 24" fill="none" xmlns="http://www.w3.org/2000/svg">
<path fill-rule="evenodd" clip-rule="evenodd" d="M7.00039 6.8499C5.81298 6.8499 4.85039 7.81249 4.85039 8.9999V14.9999C4.85039 16.1873 5.81298 17.1499 7.00039 17.1499H17.0004C18.1878 17.1499 19.1504 16.1873 19.1504 14.9999V10.9999C19.1504 9.81249 18.1878 8.8499 17.0004 8.8499H13.9087C13.1486 8.8499 12.4056 8.62492 11.7731 8.2033L10.2847 7.21099C9.93149 6.97554 9.51653 6.8499 9.09206 6.8499H7.00039ZM3.15039 8.9999C3.15039 6.87361 4.87409 5.1499 7.00039 5.1499H9.09206C9.85215 5.1499 10.5952 5.37489 11.2277 5.79651L12.7161 6.78881C13.0693 7.02426 13.4843 7.1499 13.9087 7.1499H17.0004C19.1267 7.1499 20.8504 8.87361 20.8504 10.9999V14.9999C20.8504 17.1262 19.1267 18.8499 17.0004 18.8499H7.00039C4.87409 18.8499 3.15039 17.1262 3.15039 14.9999V8.9999Z" fill="currentColor"/>
</svg>
