<svg viewBox="0 0 24 24" fill="none" xmlns="http://www.w3.org/2000/svg">
<path fill-rule="evenodd" clip-rule="evenodd" d="M8.25644 4.48538C9.158 3.62802 10.3546 3.1499 11.5987 3.1499H12.4021C13.6462 3.1499 14.8428 3.62801 15.7443 4.48538L19.3426 7.90728C20.3054 8.82283 20.8504 10.0932 20.8504 11.4218V15.9999C20.8504 18.6785 18.679 20.8499 16.0004 20.8499H8.00039C5.32181 20.8499 3.15039 18.6785 3.15039 15.9999V11.4218C3.15039 10.0932 3.6954 8.82283 4.65814 7.90728L8.25644 4.48538ZM11.5987 4.8499C10.7906 4.8499 10.0135 5.16043 9.42795 5.71727L5.82965 9.13918C5.20437 9.73382 4.85039 10.5589 4.85039 11.4218V15.9999C4.85039 17.7396 6.26069 19.1499 8.00039 19.1499H16.0004C17.7401 19.1499 19.1504 17.7396 19.1504 15.9999V11.4218C19.1504 10.5589 18.7964 9.73381 18.1711 9.13918L14.5728 5.71727C13.9873 5.16043 13.2101 4.8499 12.4021 4.8499H11.5987Z" fill="currentColor"/>
<path fill-rule="evenodd" clip-rule="evenodd" d="M9.15039 15.9999C9.15039 15.5305 9.53095 15.1499 10.0004 15.1499H14.0004C14.4698 15.1499 14.8504 15.5305 14.8504 15.9999C14.8504 16.4693 14.4698 16.8499 14.0004 16.8499H10.0004C9.53095 16.8499 9.15039 16.4693 9.15039 15.9999Z" fill="currentColor"/>
</svg>
