<svg viewBox="0 0 24 24" fill="none" xmlns="http://www.w3.org/2000/svg">
<path fill-rule="evenodd" clip-rule="evenodd" d="M12.0004 4.85C8.05156 4.85 4.85039 8.05117 4.85039 12C4.85039 15.9488 8.05156 19.15 12.0004 19.15C15.9492 19.15 19.1504 15.9488 19.1504 12C19.1504 8.05117 15.9492 4.85 12.0004 4.85ZM3.15039 12C3.15039 7.11228 7.11267 3.15 12.0004 3.15C16.8881 3.15 20.8504 7.11228 20.8504 12C20.8504 16.8877 16.8881 20.85 12.0004 20.85C7.11267 20.85 3.15039 16.8877 3.15039 12Z" fill="currentColor"/>
<path fill-rule="evenodd" clip-rule="evenodd" d="M11.9996 11.15C12.4691 11.15 12.8496 11.5306 12.8496 12L12.8496 15C12.8496 15.4694 12.4691 15.85 11.9996 15.85C11.5302 15.85 11.1496 15.4694 11.1496 15L11.1496 12C11.1496 11.5306 11.5302 11.15 11.9996 11.15Z" fill="currentColor"/>
<path d="M13 9C13 9.55228 12.5523 10 12 10C11.4477 10 11 9.55228 11 9C11 8.44772 11.4477 8 12 8C12.5523 8 13 8.44772 13 9Z" fill="currentColor"/>
</svg>
