<svg viewBox="0 0 24 24" fill="none" xmlns="http://www.w3.org/2000/svg">
<path d="M14.7207 5.072C13.5046 4.36977 12.125 4.00005 10.7207 4C9.31633 3.99995 7.93673 4.36956 6.72053 5.07169C5.50433 5.77383 4.49438 6.78374 3.7922 7.99991C3.09002 9.21609 2.72035 10.5957 2.72035 12C2.72035 13.4043 3.09002 14.7839 3.7922 16.0001C4.49438 17.2163 5.50433 18.2262 6.72053 18.9283C7.93673 19.6304 9.31633 20.0001 10.7207 20C12.125 19.9999 13.5046 19.6302 14.7207 18.928" stroke="currentColor" stroke-width="2" stroke-linecap="round"/>
<path d="M21.502 11.375C21.1018 11.6956 21.1018 12.3044 21.502 12.625V12.625V12.625C21.7943 12.2596 21.7943 11.7404 21.502 11.375V11.375V11.375ZM11.722 11C11.4567 11 11.2024 11.1054 11.0148 11.2929C10.8273 11.4804 10.722 11.7348 10.722 12C10.722 12.2652 10.8273 12.5196 11.0148 12.7071C11.2024 12.8946 11.4567 13 11.722 13L11.722 11ZM16.7213 16.9995C17.1524 17.3449 17.7818 17.2752 18.1268 16.8439L21.502 12.625V12.625C20.6406 11.9348 19.3827 12.0741 18.6932 12.936L16.5659 15.5951C16.2212 16.0259 16.2908 16.6545 16.7213 16.9995V16.9995ZM21.502 11.375L18.1212 7.14911C17.7793 6.72168 17.1555 6.65261 16.7283 6.99489V6.99489C16.2962 7.34113 16.2318 7.97435 16.5854 8.40047L19.3912 11.7818C20.009 12.5263 21.2052 12.2957 21.502 11.375V11.375ZM21.202 12C21.202 11.4477 20.7542 11 20.202 11L11.722 11L11.722 13L20.202 13C20.7542 13 21.202 12.5523 21.202 12V12Z" fill="currentcolor"/>
</svg>
