<svg viewBox="0 0 24 24" fill="none" xmlns="http://www.w3.org/2000/svg">
<path fill-rule="evenodd" clip-rule="evenodd" d="M14.6675 16.7407V7.89971C14.6675 7.45177 14.1238 7.22982 13.8103 7.54982L13.208 8.16472C12.2526 9.14003 10.9447 9.68967 9.57944 9.68967C8.431 9.68967 7.5 10.6207 7.5 11.7691V12.8713C7.5 14.0198 8.431 14.9508 9.57944 14.9508C10.9447 14.9508 12.2526 15.5004 13.208 16.4757L13.8103 17.0906C14.1238 17.4106 14.6675 17.1887 14.6675 16.7407ZM9.57944 8.18967C7.60257 8.18967 6 9.79223 6 11.7691V12.8713C6 14.8482 7.60257 16.4508 9.57944 16.4508C10.5416 16.4508 11.4632 16.8381 12.1364 17.5254L12.7388 18.1403C13.9926 19.4202 16.1675 18.5325 16.1675 16.7407V7.89971C16.1675 6.10794 13.9926 5.22018 12.7388 6.50015L12.1364 7.11505C11.4632 7.80234 10.5416 8.18967 9.57944 8.18967Z" fill="currentColor"/>
<path fill-rule="evenodd" clip-rule="evenodd" d="M5.39889 18.601C5.06695 18.2691 5.06695 17.7309 5.39889 17.399L17.3989 5.39896C17.7308 5.06701 18.269 5.06701 18.601 5.39896C18.9329 5.7309 18.9329 6.26909 18.601 6.60104L6.60097 18.601C6.26903 18.933 5.73084 18.933 5.39889 18.601Z" fill="currentColor"/>
</svg>
