<svg viewBox="0 0 24 24" fill="none" xmlns="http://www.w3.org/2000/svg">
<path d="M21.1696 2.05991C20.4528 1.93644 19.7269 1.87289 18.9996 1.86991C16.518 1.86787 14.0881 2.57948 11.9996 3.91991C9.90574 2.59708 7.47625 1.90294 4.9996 1.91991C4.27224 1.92289 3.5464 1.98644 2.8296 2.10991C2.5948 2.15039 2.38218 2.27337 2.23001 2.4567C2.07784 2.64004 1.99613 2.87168 1.9996 3.10991V15.1099C1.99745 15.2568 2.02772 15.4024 2.08825 15.5363C2.14877 15.6703 2.23806 15.7892 2.34977 15.8847C2.46148 15.9801 2.59285 16.0498 2.73455 16.0887C2.87625 16.1277 3.02479 16.1349 3.1696 16.1099C4.60262 15.8618 6.0708 15.903 7.48766 16.231C8.90453 16.559 10.2414 17.1673 11.4196 18.0199L11.5396 18.0899H11.6496C11.7605 18.1361 11.8795 18.1599 11.9996 18.1599C12.1197 18.1599 12.2387 18.1361 12.3496 18.0899H12.4596L12.5796 18.0199C13.7496 17.1482 15.0826 16.5202 16.4997 16.1733C17.9169 15.8263 19.3893 15.7673 20.8296 15.9999C20.9744 16.0249 21.1229 16.0177 21.2646 15.9787C21.4063 15.9398 21.5377 15.8701 21.6494 15.7747C21.7611 15.6792 21.8504 15.5603 21.9109 15.4263C21.9715 15.2924 22.0017 15.1468 21.9996 14.9999V2.99991C21.9892 2.77206 21.9012 2.55462 21.7502 2.38365C21.5993 2.21267 21.3944 2.09844 21.1696 2.05991ZM10.9996 15.3499C9.14948 14.3766 7.09011 13.8686 4.9996 13.8699C4.6696 13.8699 4.3396 13.8699 3.9996 13.8699V3.86991C4.33265 3.85071 4.66654 3.85071 4.9996 3.86991C7.13298 3.86755 9.21981 4.4936 10.9996 5.66991V15.3499ZM19.9996 13.9099C19.6596 13.9099 19.3296 13.9099 18.9996 13.9099C16.9091 13.9086 14.8497 14.4166 12.9996 15.3899V5.66991C14.7794 4.4936 16.8662 3.86755 18.9996 3.86991C19.3327 3.85071 19.6665 3.85071 19.9996 3.86991V13.9099ZM21.1696 18.0599C20.4528 17.9364 19.7269 17.8729 18.9996 17.8699C16.518 17.8679 14.0881 18.5795 11.9996 19.9199C9.91111 18.5795 7.48123 17.8679 4.9996 17.8699C4.27224 17.8729 3.5464 17.9364 2.8296 18.0599C2.69942 18.0806 2.57462 18.1268 2.46236 18.1958C2.3501 18.2649 2.2526 18.3554 2.17546 18.4623C2.09833 18.5692 2.04308 18.6903 2.0129 18.8186C1.98272 18.9469 1.9782 19.0799 1.9996 19.2099C2.05042 19.4696 2.20209 19.6986 2.42139 19.8466C2.64069 19.9947 2.90974 20.0498 3.1696 19.9999C4.60262 19.7518 6.0708 19.793 7.48766 20.121C8.90453 20.449 10.2414 21.0573 11.4196 21.9099C11.589 22.0305 11.7917 22.0953 11.9996 22.0953C12.2075 22.0953 12.4102 22.0305 12.5796 21.9099C13.7578 21.0573 15.0947 20.449 16.5115 20.121C17.9284 19.793 19.3966 19.7518 20.8296 19.9999C21.0895 20.0498 21.3585 19.9947 21.5778 19.8466C21.7971 19.6986 21.9488 19.4696 21.9996 19.2099C22.021 19.0799 22.0165 18.9469 21.9863 18.8186C21.9561 18.6903 21.9009 18.5692 21.8237 18.4623C21.7466 18.3554 21.6491 18.2649 21.5368 18.1958C21.4246 18.1268 21.2998 18.0806 21.1696 18.0599V18.0599Z" fill="currentColor"/>
</svg>
