<svg viewBox="0 0 24 24" fill="none" xmlns="http://www.w3.org/2000/svg">
<path fill-rule="evenodd" clip-rule="evenodd" d="M12.7287 5.65712L9.87944 2.80788C8.70786 1.63631 6.80837 1.63631 5.63679 2.80788L2.80837 5.63631C1.63679 6.80788 1.63679 8.70737 2.80837 9.87895L4.21597 11.2865L4.22258 11.2932L4.22926 11.2998L5.65761 12.7282L3.4575 14.9283C3.3179 15.0679 3.22275 15.2457 3.18403 15.4393L2.12337 20.7426C1.98342 21.4423 2.60034 22.0593 3.30007 21.9193L8.60337 20.8586C8.79696 20.8199 8.97476 20.7248 9.11436 20.5852L11.3145 18.385L14.1221 21.1927C15.2936 22.3642 17.1931 22.3642 18.3647 21.1927L21.1931 18.3642C22.3647 17.1927 22.3647 15.2932 21.1931 14.1216L18.3855 11.314L20.9211 8.77845C22.0926 7.60688 22.0927 5.70739 20.9211 4.53581L19.5069 3.1216C18.3353 1.95003 16.4358 1.95003 15.2642 3.1216L12.7287 5.65712ZM4.22258 7.05052C3.83206 7.44104 3.83206 8.07421 4.22258 8.46473L4.92972 9.17187L6.3439 7.75769C6.73443 7.36717 7.36759 7.36717 7.75812 7.75769C8.14864 8.14821 8.14864 8.78138 7.75812 9.1719L6.34394 10.5861L7.07183 11.314L11.3145 7.07134L8.46522 4.22209C8.0747 3.83157 7.44153 3.83157 7.05101 4.22209L4.22258 7.05052ZM16.9713 12.7282L12.7287 16.9708L13.415 17.6571L14.1221 16.95C14.5126 16.5595 15.1458 16.5595 15.5363 16.95C15.9268 17.3406 15.9268 17.9737 15.5363 18.3642L14.8292 19.0713L15.5363 19.7784C15.9268 20.169 16.56 20.169 16.9505 19.7784L19.7789 16.95C20.1695 16.5595 20.1695 15.9263 19.7789 15.5358L16.9713 12.7282ZM19.5069 5.95003L18.0927 4.53581C17.7021 4.14529 17.069 4.14529 16.6784 4.53581L15.2642 5.95005L18.0926 8.77847L19.5069 7.36424C19.8974 6.97372 19.8974 6.34055 19.5069 5.95003ZM5.08581 16.1284L13.85 7.36426L16.6784 10.1927L7.91424 18.9569L4.3787 19.664L5.08581 16.1284Z" fill="currentColor"/>
</svg>
