<svg  viewBox="0 0 24 24" fill="none" xmlns="http://www.w3.org/2000/svg">
<path fill-rule="evenodd" clip-rule="evenodd" d="M6.00039 20.8501C5.53095 20.8501 5.15039 20.4695 5.15039 20.0001V14.0001C5.15039 13.5307 5.53095 13.1501 6.00039 13.1501C6.46983 13.1501 6.85039 13.5307 6.85039 14.0001V20.0001C6.85039 20.4695 6.46983 20.8501 6.00039 20.8501Z" fill="currentColor"/>
<path fill-rule="evenodd" clip-rule="evenodd" d="M18.0004 20.8501C17.5309 20.8501 17.1504 20.4695 17.1504 20.0001V10.0001C17.1504 9.53065 17.5309 9.1501 18.0004 9.1501C18.4698 9.1501 18.8504 9.53065 18.8504 10.0001V20.0001C18.8504 20.4695 18.4698 20.8501 18.0004 20.8501Z" fill="currentColor"/>
<path fill-rule="evenodd" clip-rule="evenodd" d="M12.0004 20.8501C11.5309 20.8501 11.1504 20.4695 11.1504 20.0001L11.1504 4.0001C11.1504 3.53065 11.5309 3.1501 12.0004 3.1501C12.4698 3.1501 12.8504 3.53065 12.8504 4.0001L12.8504 20.0001C12.8504 20.4695 12.4698 20.8501 12.0004 20.8501Z" fill="currentColor"/>
</svg>
