<svg viewBox="0 0 24 24" fill="none" xmlns="http://www.w3.org/2000/svg">
<path fill-rule="evenodd" clip-rule="evenodd" d="M8.32485 6.99841L6.81721 4.94255C6.71469 4.80274 6.52094 4.76711 6.37539 4.86129C4.40296 6.13757 3.86077 8.08717 4.6521 9.52437C5.51752 11.0961 6.85229 13.0237 8.89965 15.0711C10.947 17.1185 12.8746 18.4532 14.4464 19.3187C15.8836 20.11 17.8332 19.5678 19.1095 17.5954C19.2036 17.4498 19.168 17.2561 19.0282 17.1535L16.9723 15.6459C16.67 15.4242 16.2691 15.3902 15.9338 15.5579L15.1143 15.9676C14.4173 16.3161 13.4619 16.4385 12.5575 15.9732C11.9528 15.6622 11.0209 15.071 9.96031 14.0104C8.89976 12.9499 8.30859 12.0179 7.99752 11.4133C7.53222 10.5089 7.65465 9.55342 8.00314 8.85644L8.41287 8.03699C8.58053 7.70167 8.54655 7.30073 8.32485 6.99841ZM5.28888 3.18215C2.74837 4.82602 1.44061 7.83829 2.90011 10.489C3.85264 12.219 5.29947 14.2994 7.48544 16.4853C9.6714 18.6713 11.7518 20.1181 13.4817 21.0706C16.1325 22.5301 19.1447 21.2224 20.7886 18.6819C21.4582 17.647 21.2049 16.2696 20.2109 15.5407L18.1551 14.0331C17.2481 13.368 16.0453 13.266 15.0393 13.769L14.2199 14.1788C13.9827 14.2974 13.7083 14.3161 13.4724 14.1948C13.0428 13.9737 12.2813 13.503 11.3745 12.5962C10.4677 11.6894 9.99701 10.928 9.77596 10.4983C9.65463 10.2625 9.67339 9.98809 9.792 9.75087L10.2017 8.93142C10.7047 7.92545 10.6028 6.72265 9.93766 5.81569L8.43002 3.75982C7.70113 2.76588 6.32371 2.51256 5.28888 3.18215Z" fill="currentColor"/>
</svg>
