<svg viewBox="0 0 20 20" fill="none" xmlns="http://www.w3.org/2000/svg">
<path d="M10 5.17871C7.15698 5.17871 4.67553 6.93068 3.15283 8.32239C2.14595 9.24267 2.14591 10.7573 3.15272 11.6776C4.6754 13.0696 7.15691 14.8218 10 14.8218C12.0264 14.8218 14.4397 13.2993 16.1651 11.9653C17.4778 10.9505 17.4777 9.04951 16.165 8.03477C14.4396 6.70098 12.0264 5.17871 10 5.17871ZM10 13.0037C8.34375 13.0037 6.99563 11.6562 6.99563 9.99996C6.99563 8.34371 8.34375 6.99559 10 6.99559C11.6562 6.99559 13.0044 8.34371 13.0044 9.99996C13.0044 11.6562 11.6562 13.0037 10 13.0037ZM10 8.24621C9.76695 8.24181 9.53536 8.28391 9.31877 8.37006C9.10218 8.4562 8.90494 8.58465 8.73857 8.74791C8.5722 8.91117 8.44004 9.10595 8.34983 9.32088C8.25961 9.5358 8.21314 9.76656 8.21314 9.99965C8.21314 10.2327 8.25961 10.4635 8.34983 10.6784C8.44004 10.8933 8.5722 11.0881 8.73857 11.2514C8.90494 11.4146 9.10218 11.5431 9.31877 11.6292C9.53536 11.7154 9.76695 11.7575 10 11.7531C10.4593 11.7444 10.8969 11.5559 11.2186 11.228C11.5404 10.9001 11.7206 10.459 11.7206 9.99965C11.7206 9.54026 11.5404 9.09921 11.2186 8.77132C10.8969 8.44343 10.4593 8.25488 10 8.24621Z" fill="currentColor"/>
</svg>
