<svg  viewBox="0 0 15 15" fill="none" xmlns="http://www.w3.org/2000/svg">
<path fill-rule="evenodd" clip-rule="evenodd" d="M6.13686 10.5737C8.58727 10.5737 10.5737 8.58727 10.5737 6.13686C10.5737 3.68645 8.58727 1.7 6.13686 1.7C3.68645 1.7 1.7 3.68645 1.7 6.13686C1.7 8.58727 3.68645 10.5737 6.13686 10.5737ZM6.13686 12.2737C9.52616 12.2737 12.2737 9.52616 12.2737 6.13686C12.2737 2.74757 9.52616 0 6.13686 0C2.74757 0 0 2.74757 0 6.13686C0 9.52616 2.74757 12.2737 6.13686 12.2737Z" fill="currentColor"/>
<path fill-rule="evenodd" clip-rule="evenodd" d="M9.91928 9.91947C9.58733 10.2514 9.58733 10.7896 9.91928 11.1215L12.3989 13.6012C12.7309 13.9332 13.2691 13.9332 13.601 13.6012C13.933 13.2693 13.933 12.7311 13.601 12.3991L11.1214 9.91947C10.7894 9.58752 10.2512 9.58752 9.91928 9.91947Z" fill="currentColor"/>
</svg>
