<svg  viewBox="0 0 24 24" fill="none" xmlns="http://www.w3.org/2000/svg">
<path fill-rule="evenodd" clip-rule="evenodd" d="M11.1494 12.0001C11.1494 12.4695 11.53 12.8501 11.9994 12.8501L19.9994 12.8501C20.4689 12.8501 20.8494 12.4695 20.8494 12.0001C20.8494 11.5307 20.4689 11.1501 19.9994 11.1501L11.9994 11.1501C11.53 11.1501 11.1494 11.5307 11.1494 12.0001Z" fill="currentColor"/>
<path fill-rule="evenodd" clip-rule="evenodd" d="M17.3999 15.6011C17.7319 15.9331 18.2701 15.9331 18.602 15.6011L20.9087 13.2944C21.6312 12.5719 21.6312 11.4006 20.9087 10.6781L18.6139 8.38326C18.2819 8.05132 17.7437 8.05132 17.4118 8.38326C17.0798 8.71521 17.0798 9.2534 17.4118 9.58534L19.7066 11.8802C19.7652 11.9388 19.7652 12.0337 19.7066 12.0923L17.3999 14.399C17.068 14.731 17.068 15.2692 17.3999 15.6011Z" fill="currentColor"/>
<path fill-rule="evenodd" clip-rule="evenodd" d="M14.1496 15.0001C14.1496 16.7398 12.7393 18.1501 10.9996 18.1501H6.99961C5.25991 18.1501 3.84961 16.7398 3.84961 15.0001V8.5001C3.84961 6.7604 5.25991 5.3501 6.99961 5.3501H10.9996C12.7393 5.3501 14.1496 6.7604 14.1496 8.5001V9.67867C14.1496 10.1481 14.5302 10.5287 14.9996 10.5287C15.4691 10.5287 15.8496 10.1481 15.8496 9.67867V8.5001C15.8496 5.82152 13.6782 3.6501 10.9996 3.6501H6.99961C4.32103 3.6501 2.14961 5.82152 2.14961 8.5001V15.0001C2.14961 17.6787 4.32103 19.8501 6.99961 19.8501H10.9996C13.6782 19.8501 15.8496 17.6787 15.8496 15.0001V14.3394C15.8496 13.8699 15.4691 13.4894 14.9996 13.4894C14.5302 13.4894 14.1496 13.8699 14.1496 14.3394V15.0001Z" fill="currentColor"/>
</svg>
