<svg  viewBox="0 0 24 24" fill="none" xmlns="http://www.w3.org/2000/svg">
<path fill-rule="evenodd" clip-rule="evenodd" d="M7.7693 18.3672C7.02913 19.0328 5.85039 18.5075 5.85039 17.5121V8C5.85039 6.26031 7.26069 4.85 9.00039 4.85H15.1917C16.9314 4.85 18.3417 6.26031 18.3417 8V17.5121C18.3417 18.5075 17.163 19.0328 16.4228 18.3672L14.2109 16.3784C13.6302 15.8563 12.8769 15.5674 12.096 15.5674C11.3152 15.5674 10.5619 15.8563 9.98122 16.3784L7.7693 18.3672ZM4.15039 17.5121C4.15039 19.9789 7.07162 21.2807 8.90596 19.6314L11.1179 17.6425C11.3864 17.401 11.7349 17.2674 12.096 17.2674C12.4572 17.2674 12.8056 17.401 13.0742 17.6425L15.2861 19.6314C17.1205 21.2807 20.0417 19.9789 20.0417 17.5121V8C20.0417 5.32142 17.8703 3.15 15.1917 3.15H9.00039C6.32181 3.15 4.15039 5.32142 4.15039 8V17.5121Z" fill="currentColor"/>
<path fill-rule="evenodd" clip-rule="evenodd" d="M9.15039 8.0001C9.15039 8.46954 9.53095 8.8501 10.0004 8.8501H14.0004C14.4698 8.8501 14.8504 8.46954 14.8504 8.0001C14.8504 7.53066 14.4698 7.1501 14.0004 7.1501H10.0004C9.53095 7.1501 9.15039 7.53066 9.15039 8.0001Z" fill="currentColor"/>
</svg>
