<svg viewBox="0 0 24 24" fill="none" xmlns="http://www.w3.org/2000/svg">
<path fill-rule="evenodd" clip-rule="evenodd" d="M12.0004 5.85C8.60384 5.85 5.85039 8.60345 5.85039 12C5.85039 15.3966 8.60384 18.15 12.0004 18.15C15.3969 18.15 18.1504 15.3966 18.1504 12C18.1504 8.60345 15.3969 5.85 12.0004 5.85ZM4.15039 12C4.15039 7.66456 7.66496 4.15 12.0004 4.15C16.3358 4.15 19.8504 7.66456 19.8504 12C19.8504 16.3354 16.3358 19.85 12.0004 19.85C7.66496 19.85 4.15039 16.3354 4.15039 12Z" fill="currentColor"/>
<path fill-rule="evenodd" clip-rule="evenodd" d="M12.0006 7.4C12.332 7.4 12.6006 7.66863 12.6006 8L12.6006 12C12.6006 12.3314 12.332 12.6 12.0006 12.6C11.6692 12.6 11.4006 12.3314 11.4006 12L11.4006 8C11.4006 7.66863 11.6692 7.4 12.0006 7.4Z" fill="currentColor"/>
<path fill-rule="evenodd" clip-rule="evenodd" d="M15.6006 12C15.6006 12.3314 15.332 12.6 15.0006 12.6H12.0006C11.6692 12.6 11.4006 12.3314 11.4006 12C11.4006 11.6686 11.6692 11.4 12.0006 11.4H15.0006C15.332 11.4 15.6006 11.6686 15.6006 12Z" fill="currentColor"/>
</svg>
