<svg viewBox="0 0 24 24" fill="none" xmlns="http://www.w3.org/2000/svg">
<path fill-rule="evenodd" clip-rule="evenodd" d="M6.49445 15.7596C5.82872 15.7596 5.18011 15.9705 4.64171 16.3621L4.47399 16.484C3.57326 17.1391 4.03663 18.5641 5.15039 18.5641H12.6695C13.7832 18.5641 14.2466 17.1391 13.3459 16.484L13.1782 16.3621C12.6398 15.9705 11.9911 15.7596 11.3254 15.7596H6.49445ZM3.64182 14.9872C4.47078 14.3843 5.46944 14.0596 6.49445 14.0596H11.3254C12.3504 14.0596 13.3491 14.3843 14.178 14.9872L14.3458 15.1092C16.578 16.7326 15.4296 20.2641 12.6695 20.2641H5.15039C2.39022 20.2641 1.24185 16.7326 3.4741 15.1092L3.64182 14.9872Z" fill="currentColor"/>
<path fill-rule="evenodd" clip-rule="evenodd" d="M8.91063 5.8499C7.38986 5.8499 6.15703 7.08273 6.15703 8.60351C6.15703 10.1243 7.38986 11.3571 8.91063 11.3571C10.4314 11.3571 11.6642 10.1243 11.6642 8.60351C11.6642 7.08273 10.4314 5.8499 8.91063 5.8499ZM4.45703 8.60351C4.45703 6.14385 6.45098 4.1499 8.91063 4.1499C11.3703 4.1499 13.3642 6.14385 13.3642 8.60351C13.3642 11.0632 11.3703 13.0571 8.91063 13.0571C6.45098 13.0571 4.45703 11.0632 4.45703 8.60351Z" fill="currentColor"/>
<path fill-rule="evenodd" clip-rule="evenodd" d="M16.3199 11.7938C15.9036 11.7938 15.4981 11.9256 15.1614 12.1705C14.6251 12.5605 14.901 13.4091 15.5642 13.4091H20.0496C20.7128 13.4091 20.9888 12.5605 20.4524 12.1705C20.1158 11.9256 19.7102 11.7938 19.294 11.7938H16.3199ZM14.4556 11.2C14.9974 10.806 15.65 10.5938 16.3199 10.5938H19.294C19.9638 10.5938 20.6165 10.806 21.1582 11.2C22.6345 12.2736 21.875 14.6091 20.0496 14.6091H15.5642C13.7388 14.6091 12.9794 12.2736 14.4556 11.2Z" fill="currentColor"/>
<path fill-rule="evenodd" clip-rule="evenodd" d="M17.8073 5.5999C16.8948 5.5999 16.1551 6.33964 16.1551 7.25215C16.1551 8.16467 16.8948 8.90441 17.8073 8.90441C18.7198 8.90441 19.4596 8.16467 19.4596 7.25215C19.4596 6.33964 18.7198 5.5999 17.8073 5.5999ZM14.9551 7.25215C14.9551 5.6769 16.2321 4.3999 17.8073 4.3999C19.3826 4.3999 20.6596 5.6769 20.6596 7.25215C20.6596 8.82741 19.3826 10.1044 17.8073 10.1044C16.2321 10.1044 14.9551 8.82741 14.9551 7.25215Z" fill="currentColor"/>
</svg>
