<svg viewBox="0 0 24 24" fill="none" xmlns="http://www.w3.org/2000/svg">
<path fill-rule="evenodd" clip-rule="evenodd" d="M9.17575 15.8499C8.51002 15.8499 7.86141 16.0608 7.32301 16.4524L6.47399 17.0699C5.57326 17.7249 6.03664 19.1499 7.15039 19.1499H16.8497C17.9634 19.1499 18.4268 17.7249 17.526 17.0699L16.677 16.4524C16.1386 16.0608 15.49 15.8499 14.8243 15.8499H9.17575ZM6.32312 15.0775C7.15208 14.4747 8.15074 14.1499 9.17575 14.1499H14.8243C15.8493 14.1499 16.848 14.4746 17.6769 15.0775L18.5259 15.695C20.7582 17.3185 19.6098 20.8499 16.8497 20.8499H7.15039C4.39022 20.8499 3.24185 17.3185 5.4741 15.695L6.32312 15.0775Z" fill="currentColor"/>
<path fill-rule="evenodd" clip-rule="evenodd" d="M12.0004 4.8499C10.2607 4.8499 8.85039 6.26021 8.85039 7.9999C8.85039 9.7396 10.2607 11.1499 12.0004 11.1499C13.7401 11.1499 15.1504 9.7396 15.1504 7.9999C15.1504 6.26021 13.7401 4.8499 12.0004 4.8499ZM7.15039 7.9999C7.15039 5.32132 9.32181 3.1499 12.0004 3.1499C14.679 3.1499 16.8504 5.32132 16.8504 7.9999C16.8504 10.6785 14.679 12.8499 12.0004 12.8499C9.32181 12.8499 7.15039 10.6785 7.15039 7.9999Z" fill="currentColor"/>
</svg>
