<svg viewBox="0 0 24 24" fill="none" xmlns="http://www.w3.org/2000/svg">
<path fill-rule="evenodd" clip-rule="evenodd" d="M19.1106 10.9309C15.914 5.2897 7.78634 5.2897 4.58967 10.9309C4.35823 11.3393 3.83951 11.4828 3.43109 11.2514C3.02266 11.0199 2.87919 10.5012 3.11063 10.0928C6.9585 3.30241 16.7418 3.30241 20.5897 10.0928C20.8211 10.5012 20.6776 11.0199 20.2692 11.2514C19.8608 11.4828 19.3421 11.3393 19.1106 10.9309Z" fill="currentColor"/>
<path fill-rule="evenodd" clip-rule="evenodd" d="M16.2537 12.7483C14.5268 8.98049 9.17309 8.98049 7.44615 12.7483C7.25056 13.1751 6.74605 13.3625 6.31929 13.1669C5.89254 12.9713 5.70515 12.4668 5.90074 12.04C8.23371 6.94993 15.4661 6.94993 17.7991 12.04C17.9947 12.4668 17.8073 12.9713 17.3805 13.1669C16.9538 13.3625 16.4493 13.1751 16.2537 12.7483Z" fill="currentColor"/>
<path fill-rule="evenodd" clip-rule="evenodd" d="M13.3846 14.504C12.9527 12.9495 10.7485 12.9495 10.3167 14.504C10.191 14.9564 9.7225 15.2212 9.27018 15.0955C8.81786 14.9699 8.55304 14.5014 8.67869 14.049C9.57163 10.8345 14.1296 10.8345 15.0225 14.049C15.1482 14.5014 14.8834 14.9699 14.4311 15.0955C13.9787 15.2212 13.5102 14.9564 13.3846 14.504Z" fill="currentColor"/>
<path d="M13.262 16.6295C13.262 17.4092 12.6299 18.0412 11.8502 18.0412C11.0705 18.0412 10.4385 17.4092 10.4385 16.6295C10.4385 15.8498 11.0705 15.2177 11.8502 15.2177C12.6299 15.2177 13.262 15.8498 13.262 16.6295Z" fill="currentColor"/>
</svg>
